<?xml version="1.0" encoding="UTF-8"?><svg id="b" xmlns="http://www.w3.org/2000/svg" viewBox="0 0 500 102.8"><g id="c"><g><path d="M20.62,.45h47.74l2.18-.03h4.85c2.32,0,6.15-.11,11.54-.34L88.95,0c-.29,4.19-.35,5.83-.36,8.05l-.03,6.41-.03,6.08V54.5c0,21.39-4.84,28.65-27.9,40.04-1.02,.5-12.78,6.37-14.01,7.03l-1.15,.62-1.18,.62-1.18-.62-1.18-.62c-4.85-2.54-9.77-4.77-13.59-6.65C7.22,84.55,.45,77.19,.45,54.5V20.54l-.06-6.08-.03-6.41C.35,4.17,.31,2.92,0,0L2.02,.08c5.31,.22,9.26,.34,11.57,.34h4.82l2.21,.03h0Z" fill="#1d1d1b"/><polygon points="44.29 100.72 53.37 96.26 53.6 96.18 53.55 95.98 53.55 54.18 53.46 53.93 53.74 53.98 86.62 53.98 86.91 54.07 86.82 53.7 86.82 35.98 86.91 35.7 86.62 35.78 53.74 35.78 53.46 35.84 53.55 35.55 53.55 2.31 53.6 2.02 53.35 2.11 35.34 2.11 35.06 2.02 35.14 2.31 35.14 35.55 35.2 35.84 34.95 35.78 2.32 35.78 2.04 35.7 2.12 35.98 2.12 53.87 2.04 54.07 2.32 53.98 34.95 53.98 35.2 53.93 35.14 54.27 35.14 95.89 35.06 96.23 35.29 96.29 44.29 100.72 44.29 100.72" fill="#fff"/><polyline points="53.89 2.11 53.49 2.02 53.55 2.33 53.55 35.61 53.49 35.87 53.86 35.78 86.6 35.78 86.91 35.87 86.82 35.58 86.82 2.25 86.91 2.02 86.6 2.11 2.46 2.11 2.04 2.02 2.12 2.33 2.12 35.61 2.04 35.87 2.44 35.78 34.92 35.78 35.2 35.87 35.14 35.58 35.14 2.25 35.2 2.02 34.92 2.11" fill="#e41713"/><path d="M35.06,53.99H2.24l-.2-.09,.09,.23v1.99c0,18.27,6.1,27.16,24.87,36.23l5.94,2.87,2.07,.97,.17,.2-.03-.28V54.16s.06-.26,.06-.26" fill="#e41713"/><path d="M53.72,53.99l-.23-.09,.06,.2v41.88l-.06,.31,.23-.26,1.87-.85c25.49-12,31.23-19.14,31.23-38.9v-2.1l.09-.28-.28,.09" fill="#e41713"/><path d="M7.46,37.43c.09,.1,.15,.18,.2,.23,.11,.12,.18,.21,.23,.26,.04,.04,.12,.12,.25,.26,.05,.05,.13,.13,.23,.23-.08,.06-.13,.1-.14,.11l-.28,.26-.23,.25-.09,.09v.27c0,2.3,.6,3.87,1.87,4.9l.23,.18-.23,.16-.26-.03-.54-.06-.48-.09-.28-.06-.28,2.05h-.4l-.28-2.05-.28,.06c-.25,.05-.4,.08-.45,.09l-.57,.06-.26,.03c-.12,0-.22-.04-.22-.09,0-.05,.05-.12,.13-.18l.43-.33c.35-.27,.58-.61,.99-1.45,.18-.38,.28-.7,.28-.94,0-.6,.09-1.08,.2-1.08l.06-1.05,.03-.4-.11-.09-.23-.25-.28-.26-.12-.11c.1-.1,.18-.18,.23-.23,.39-.39,.43-.43,.65-.74" fill="#1d1d1b"/><path d="M18.22,37.43c.22,.31,.26,.35,.65,.74,.05,.05,.13,.13,.23,.23l-.11,.11-.28,.26-.23,.25-.14,.09,.06,.4,.06,1.05c.08,1.5,.92,3.24,1.79,3.72,.15,.08,.24,.15,.24,.18,0,.08-.06,.14-.13,.14h-.37s-.54-.07-.54-.07l-.48-.09-.28-.06-.28,2.05h-.37l-.28-2.05-.28,.06-.48,.09-.54,.06-.26,.03h-.04c-.11,0-.19-.04-.19-.09,0-.06,.04-.12,.12-.18l.43-.33c.37-.28,.47-.43,.99-1.45,.21-.4,.31-.72,.31-.94,0-.6,.08-1.08,.17-1.08l.06-1.05,.03-.4s-.07-.07-.09-.09c-.15-.15-.23-.23-.26-.25l-.28-.26-.11-.11c.1-.1,.18-.18,.23-.23,.13-.13,.22-.22,.26-.26,.04-.05,.12-.13,.23-.26,.04-.05,.11-.13,.2-.23" fill="#1d1d1b"/><path d="M12.86,43.73l.2,.23,.2,.25c.05,.06,.13,.15,.26,.26l.26,.23-.14,.11-.25,.26-.26,.23-.09,.11v.27c0,2.36,.56,3.84,1.87,4.9l.23,.18-.23,.16-.26-.03-.54-.06-.48-.09-.28-.06-.28,2.04h-.4l-.28-2.04-.28,.06-.48,.09-.54,.06-.26,.03h-.03c-.11,0-.2-.04-.2-.09,0-.04,.05-.11,.14-.18l.43-.33c.9-.69,1.54-2.6,1.54-4.65v-.27s-.09-.11-.09-.11l-.26-.23-.25-.26-.14-.11c.43-.37,.64-.6,.91-.97" fill="#1d1d1b"/><path d="M23.65,43.73c.27,.37,.48,.59,.91,.97l-.14,.11-.25,.26-.26,.23-.09,.11v.27c0,1.54,.45,3.4,.96,3.99l.57,.65c.05,.05,.15,.14,.31,.26l.25,.18-.23,.16-.26-.03-.54-.06-.48-.09-.28-.06-.28,2.04h-.4l-.28-2.04-.28,.06-.48,.09-.54,.06-.26,.03h-.03c-.11,0-.2-.04-.2-.1,0-.04,.05-.11,.13-.17l.41-.33c.89-.71,1.56-2.61,1.56-4.65v-.27s-.09-.11-.09-.11l-.26-.23-.26-.26-.14-.11c.11-.1,.2-.18,.25-.23,.12-.11,.21-.19,.26-.26l.2-.25,.2-.23h0Z" fill="#1d1d1b"/><path d="M29.04,37.43c.22,.31,.26,.35,.65,.74,.05,.05,.13,.13,.23,.23l-.11,.11-.29,.26-.22,.25-.11,.09,.03,.4,.06,1.05c.08,1.46,.94,3.26,1.79,3.72,.15,.08,.24,.15,.24,.18,0,.08-.05,.14-.11,.14h-.36s-.57-.07-.57-.07c-.12-.01-.28-.04-.48-.09l-.26-.06-.28,2.05h-.4l-.28-2.05-.3,.07-.47,.07-.54,.06-.26,.03h-.04c-.11,0-.19-.04-.19-.09,0-.05,.05-.12,.13-.18l.41-.33c.38-.3,.5-.48,.99-1.45,.21-.4,.31-.72,.31-.94,0-.6,.08-1.08,.17-1.08l.06-1.05,.03-.4-.09-.09-.26-.25c-.13-.13-.21-.22-.26-.26-.02-.02-.07-.06-.14-.11,.1-.1,.18-.18,.23-.23,.13-.13,.22-.22,.26-.26,.04-.05,.12-.13,.23-.26,.04-.05,.11-.13,.2-.23" fill="#1d1d1b"/><path d="M59.68,37.37l.2,.26,.2,.23c.13,.15,.22,.25,.26,.28,.05,.05,.14,.13,.26,.23l-.14,.11-.26,.26-.26,.22-.09,.11v.25c0,2.29,.77,4.29,1.87,4.89,.17,.1,.25,.17,.25,.25l-.02,.04-.23,.06h-.25c-.33,0-.92-.1-1.31-.23l-.28,2.05h-.4l-.28-2.05c-.4,.13-.98,.23-1.31,.23h-.25c-.17,0-.24-.03-.24-.1,0-.08,.07-.16,.24-.24,1.09-.57,1.87-2.61,1.87-4.89v-.25l-.09-.11-.26-.22-.26-.26-.14-.11c.12-.1,.2-.17,.26-.23,.04-.04,.12-.13,.26-.28l.2-.23,.2-.26h0Z" fill="#1d1d1b"/><path d="M70.5,37.37l.2,.26,.23,.23,.26,.28,.23,.23-.14,.11-.26,.26-.26,.22-.09,.11v.25c0,2.26,.78,4.3,1.87,4.89,.17,.1,.25,.17,.25,.25l-.02,.04-.23,.06h-.26c-.33,0-.92-.1-1.31-.23l-.28,2.05h-.4l-.28-2.05c-.46,.15-.96,.23-1.42,.23-.31,0-.37-.02-.37-.11,0-.09,.07-.15,.26-.23,.23-.1,.64-.52,.88-.91,.45-.72,.71-1.34,.71-1.7,0-.61,.09-1.11,.2-1.11l.06-1.05,.03-.37s-.09-.09-.11-.11c-.36-.36-.39-.39-.65-.59l.26-.23,.26-.28,.23-.23,.17-.26h0Z" fill="#1d1d1b"/><path d="M65.1,43.68c.09,.1,.16,.18,.2,.23,.11,.12,.18,.21,.23,.26,.04,.04,.11,.13,.24,.27,.05,.05,.14,.11,.24,.21l-.14,.11-.26,.28-.26,.23-.09,.11,.03,.37,.06,1.05c.09,1.55,.89,3.23,1.79,3.72,.17,.09,.25,.17,.25,.25l-.02,.03-.23,.06h-.26c-.33,0-.92-.1-1.31-.23l-.28,2.05h-.4l-.28-2.05c-.38,.14-.95,.23-1.42,.23-.29,0-.36-.02-.36-.13,0-.08,.07-.13,.25-.21,.22-.09,.65-.54,.88-.91,.46-.76,.74-1.39,.74-1.7,0-.61,.08-1.11,.17-1.11l.06-1.05,.03-.37-.11-.11-.23-.23-.28-.28-.11-.11c.1-.1,.18-.18,.23-.23,.39-.39,.43-.43,.65-.74" fill="#1d1d1b"/><path d="M76,43.68c.09,.1,.16,.18,.2,.23,.11,.12,.18,.21,.23,.26,.04,.04,.12,.12,.26,.25,.05,.05,.13,.13,.23,.23-.05,.05-.09,.09-.11,.11-.16,.16-.25,.26-.28,.28-.15,.13-.24,.21-.26,.23-.01,.01-.04,.05-.09,.11l.03,.37,.06,1.05c.09,1.55,.89,3.23,1.79,3.72,.17,.09,.25,.17,.25,.25l-.02,.03-.23,.06h-.26c-.33,0-.92-.1-1.31-.23l-.28,2.05h-.37l-.31-2.05c-.38,.14-.95,.23-1.42,.23-.29,0-.36-.02-.36-.13,0-.08,.07-.13,.25-.21,.22-.09,.66-.54,.88-.91,.46-.76,.74-1.39,.74-1.7,0-.61,.08-1.11,.17-1.11l.05-1.05,.03-.37-.12-.11-.23-.23-.28-.28-.11-.11c.1-.1,.18-.18,.23-.23,.39-.39,.43-.43,.65-.74" fill="#1d1d1b"/><path d="M81.4,37.37l.2,.26,.23,.23,.26,.28,.23,.23-.14,.11-.26,.26-.26,.22-.09,.11v.25c0,2.26,.78,4.3,1.87,4.89,.17,.1,.25,.17,.25,.25l-.02,.04-.23,.06h-.26c-.33,0-.92-.1-1.31-.23l-.28,2.05h-.4l-.28-2.05c-.46,.15-.96,.23-1.41,.23-.31,0-.37-.02-.37-.11,0-.09,.07-.15,.26-.23,.23-.1,.64-.52,.88-.91,.45-.72,.71-1.34,.71-1.7,0-.61,.09-1.11,.2-1.11l.06-1.05,.03-.37s-.09-.09-.11-.11c-.12-.13-.2-.2-.23-.22l-.28-.26-.11-.11,.23-.23,.25-.28,.23-.23,.17-.26h0Z" fill="#1d1d1b"/><path d="M39.38,66.7c.22,.3,.26,.35,.65,.74,.05,.05,.13,.13,.23,.23l-.11,.11-.28,.26-.23,.26-.11,.11,.03,.37,.06,1.05c.05,.93,.44,2.12,.91,2.81,.32,.46,.66,.81,.88,.91,.19,.08,.26,.14,.26,.23,0,.09-.07,.11-.4,.11-.44,0-1.02-.09-1.39-.23l-.28,2.05h-.4l-.28-2.05c-.38,.12-.97,.23-1.31,.23h-.26c-.17,0-.24-.03-.24-.1,0-.08,.07-.16,.24-.24,.27-.14,.66-.54,.88-.91,.5-.83,.74-1.38,.74-1.7,0-.61,.08-1.11,.17-1.11l.06-1.05,.03-.37-.09-.11-.26-.26-.26-.26-.14-.11c.1-.1,.18-.18,.23-.23,.13-.13,.22-.22,.26-.25,.04-.05,.12-.13,.23-.26,.05-.05,.11-.13,.2-.22" fill="#1d1d1b"/><path d="M49.51,66.7c.22,.3,.26,.35,.65,.74,.05,.05,.13,.13,.23,.23l-.11,.11-.28,.26-.23,.26-.11,.11,.03,.37,.06,1.05c.05,.93,.44,2.12,.91,2.81,.31,.46,.66,.81,.88,.91,.19,.08,.26,.14,.26,.23,0,.09-.07,.11-.41,.11-.44,0-1.02-.09-1.39-.23l-.28,2.05h-.4l-.29-2.05c-.38,.12-.97,.23-1.31,.23h-.26c-.17,0-.24-.03-.24-.1,0-.08,.07-.16,.24-.24,.27-.14,.66-.54,.88-.91,.5-.83,.74-1.38,.74-1.7,0-.61,.08-1.11,.17-1.11l.06-1.05,.03-.37-.09-.11-.25-.26-.26-.26-.14-.11c.1-.1,.18-.18,.23-.23,.13-.13,.22-.22,.26-.25,.04-.05,.12-.13,.23-.26,.04-.05,.11-.13,.2-.22" fill="#1d1d1b"/><path d="M44.35,75.9l.13,.3,.27,.18,.26,.28,.23,.23-.11,.11-.28,.26s-.1,.1-.23,.22c-.03,.03-.06,.06-.11,.12l.03,.37,.06,1.05c.08,1.54,.95,3.33,1.79,3.72,.19,.09,.26,.14,.26,.22l-.03,.06-.2,.09-.26-.03-.57-.06c-.12-.01-.28-.04-.48-.08l-.26-.06-.31,2.05h-.37l-.29-2.05-.28,.06-.48,.08-.54,.06-.26,.03h-.03c-.13,0-.21-.05-.21-.13,0-.09,.07-.15,.23-.24,.28-.15,.66-.54,.88-.91,.5-.84,.74-1.38,.74-1.7,0-.61,.08-1.11,.17-1.11l.06-1.05,.03-.37-.09-.12-.25-.22-.26-.26-.14-.11,.23-.23,.25-.28,.23-.23,.2-.25h0Z" fill="#1d1d1b"/><path d="M39.32,85.27l.2,.26,.23,.23,.26,.28,.19,.27-.1,.07-.26,.26-.26,.22-.09,.11,.03,.37,.06,1.05c.09,1.55,.89,3.23,1.79,3.72,.17,.09,.24,.17,.24,.25l-.02,.04-.23,.06h-.26c-.23,0-.64-.06-1.31-.2l-.28,2.02h-.4l-.28-2.02c-.6,.14-1.05,.2-1.42,.2-.29,0-.36-.03-.36-.13,0-.07,.07-.13,.25-.21,.22-.1,.65-.54,.88-.91,.46-.76,.74-1.39,.74-1.7,0-.61,.08-1.11,.17-1.11l.06-1.05,.03-.37s-.09-.09-.11-.11c-.12-.13-.2-.2-.23-.22l-.28-.26-.11-.12,.23-.22,.25-.28,.23-.23,.17-.26h0Z" fill="#1d1d1b"/><path d="M49.51,85.27l.17,.26,.23,.23,.21,.33,.27,.18-.11,.12-.28,.26s-.1,.1-.23,.22c-.02,.03-.06,.06-.11,.11l.03,.37,.06,1.05c.05,.93,.44,2.12,.91,2.81,.31,.46,.66,.81,.88,.91,.19,.08,.26,.15,.26,.23,0,.09-.07,.11-.38,.11-.37,0-.82-.06-1.41-.2l-.28,2.02h-.4l-.29-2.02c-.67,.14-1.08,.2-1.31,.2h-.26c-.17,0-.24-.03-.24-.1,0-.08,.07-.16,.24-.24,.27-.14,.66-.54,.88-.91,.5-.84,.74-1.38,.74-1.7,0-.61,.08-1.11,.17-1.11l.06-1.05,.03-.37-.09-.11-.25-.22-.26-.26-.14-.12,.23-.22,.26-.28,.23-.23,.2-.26h0Z" fill="#1d1d1b"/><path d="M44.35,57.45l.17,.26,.23,.23,.26,.28,.23,.23-.11,.11-.28,.26s-.1,.1-.23,.23c-.03,.03-.06,.06-.11,.11l.03,.37,.06,1.05c.08,1.53,.96,3.37,1.79,3.72,.19,.08,.25,.14,.25,.22,0,.1-.07,.13-.36,.13-.37,0-.82-.06-1.42-.2l-.31,2.04h-.37l-.29-2.04c-.67,.13-1.08,.2-1.31,.2h-.26c-.17,0-.24-.03-.24-.1,0-.08,.07-.16,.24-.24,.27-.14,.66-.54,.88-.91,.5-.83,.74-1.38,.74-1.7,0-.61,.08-1.11,.17-1.11l.06-1.05,.03-.37-.09-.11-.25-.23-.26-.26-.14-.11,.23-.23,.25-.28,.23-.23,.2-.26h0Z" fill="#1d1d1b"/><path d="M39.23,5.63c.09,.1,.15,.18,.2,.23,.11,.12,.18,.21,.23,.26,.04,.04,.12,.12,.26,.26,.05,.05,.13,.13,.23,.23l-.12,.12-.28,.25s-.11,.11-.26,.26c-.02,.02-.05,.05-.09,.09l.03,.4,.06,1.02c.05,.99,.5,2.37,.91,2.84l.57,.65s.13,.12,.31,.26l.24,.18-.24,.16-.26-.03-.54-.06-.48-.09-.28-.06-.31,1.96-.34,.09-.28-2.04-.28,.06-.48,.09-.54,.06-.3,.03c-.1,0-.19-.04-.19-.09s.04-.12,.12-.18c.03-.02,.17-.13,.43-.33,.37-.28,.47-.43,.99-1.45,.21-.4,.31-.72,.31-.94,0-.61,.08-1.11,.17-1.11l.06-1.02,.03-.4-.11-.09-.23-.26-.28-.25-.11-.12c.1-.1,.18-.18,.23-.23,.39-.39,.43-.43,.65-.74" fill="#1d1d1b"/><path d="M49.51,5.63c.22,.31,.26,.35,.65,.74,.05,.05,.13,.13,.23,.23l-.11,.12-.28,.25-.23,.26-.11,.09,.03,.4,.06,1.02c.08,1.51,.94,3.29,1.79,3.75,.15,.08,.24,.15,.24,.18,0,.08-.05,.14-.11,.14h-.36s-.57-.07-.57-.07c-.12-.01-.28-.04-.48-.09l-.26-.06-.28,2.04h-.4l-.29-2.04-.31-.03-.45,.17-.54,.06-.26,.03h-.04c-.1,0-.19-.04-.19-.09,0-.05,.05-.12,.13-.18l.41-.33c.38-.3,.5-.48,1-1.45,.2-.4,.31-.72,.31-.94,0-.61,.08-1.11,.17-1.11l.06-1.02,.03-.4-.09-.09-.25-.26c-.13-.13-.21-.22-.26-.25-.02-.02-.07-.06-.14-.12,.1-.1,.18-.18,.23-.23,.13-.13,.22-.22,.26-.26,.04-.05,.12-.13,.23-.26,.04-.05,.11-.12,.2-.23" fill="#1d1d1b"/><path d="M44.29,14.51l.2,.23,.23,.26c.14,.15,.22,.25,.26,.28,.05,.05,.12,.13,.23,.23l-.14,.11-.26,.26-.26,.22-.09,.11,.03,.37,.03,.97c.08,1.55,.92,3.31,1.82,3.8,.17,.09,.25,.17,.25,.25l-.02,.04-.23,.06h-.26c-.33,0-.92-.1-1.31-.23l-.28,2.05h-.4l-.28-2.05c-.38,.14-.94,.23-1.42,.23-.31,0-.38-.02-.38-.11,0-.09,.07-.15,.26-.23,.23-.1,.64-.52,.88-.91,.45-.72,.71-1.34,.71-1.7,0-.61,.09-1.11,.2-1.11l.06-1.05,.03-.37c-.05-.05-.09-.09-.12-.11-.12-.13-.2-.2-.22-.22l-.28-.26-.11-.11,.23-.23,.26-.28c.13-.15,.21-.23,.22-.26,.04-.05,.1-.13,.17-.23" fill="#1d1d1b"/><path d="M39.21,23.37l.2,.23,.2,.26c.05,.06,.13,.15,.26,.26l.26,.23c-.08,.06-.13,.1-.14,.11l-.26,.26-.26,.26-.09,.09v.27c0,1.5,.44,3.37,.94,3.91l.63,.74s.11,.09,.31,.26l.23,.18-.23,.16-.26-.03-.54-.06-.48-.09-.28-.06-.28,2.04h-.4l-.28-2.04-.28,.06-.48,.09-.54,.06-.26,.03h-.04c-.1,0-.19-.04-.19-.09s.05-.12,.13-.18l.41-.33c.95-.75,1.56-2.58,1.56-4.65v-.27s-.09-.09-.09-.09l-.26-.26c-.13-.13-.21-.22-.25-.26-.03-.02-.07-.06-.14-.11,.11-.1,.2-.18,.26-.23,.12-.11,.21-.19,.26-.26l.2-.26,.2-.23h0Z" fill="#1d1d1b"/><path d="M49.46,23.37c.09,.1,.16,.18,.2,.23,.11,.12,.18,.21,.23,.26,.04,.04,.12,.12,.26,.26,.05,.05,.13,.13,.23,.23-.08,.06-.13,.1-.14,.11l-.26,.26-.26,.26-.09,.09,.03,.4,.06,1.05c.09,1.57,.69,2.83,1.79,3.72l.23,.18-.23,.16-.26-.03-.54-.06-.48-.09-.28-.06-.28,2.04h-.4l-.31-2.13c-.52,.12-.54,.21-.71,.23l-.57,.06-.26,.03h-.03c-.1,0-.17-.04-.17-.09,0-.05,.04-.12,.12-.18l.43-.33c.37-.28,.48-.44,1-1.45,.2-.4,.31-.72,.31-.94,0-.6,.08-1.08,.17-1.08l.05-1.05,.03-.4-.12-.09-.23-.26-.28-.26-.11-.11c.1-.1,.18-.18,.23-.23,.39-.39,.43-.43,.65-.74" fill="#1d1d1b"/><path d="M28.19,18.8l.11,.43c.1,.38,.18,.68,.23,.91,.36,1.62,.66,2.05,1.45,2.05,.45,0,.82-.25,.94-.63l.17-.57c.04-.13,.14-.21,.27-.21,.31,0,.45,.32,.46,1.03,0,.2,.07,.67,.2,1.39,.08,.43,.11,.84,.11,1.24,0,.36-.03,.51-.17,.89,.1,.56,.17,1.31,.17,1.74,0,.7-.13,1.35-.34,1.7,.12,.47,.14,.66,.14,1.07,0,.3-.03,.63-.09,.95-.12,.68-.15,.86-.15,.98s.02,.26,.06,.38c.06,.16,.09,.28,.09,.34,0,.08-.04,.14-.09,.14l-.57-.23-.63-.34c-.2-.11-.34-.22-.65-.51-.55,.5-.71,.57-2.16,.96-.29,.08-.5,.17-.63,.26-.18,.13-.31,.2-.38,.2-.24,0-.36-.39-.36-1.2,0-.6,.06-1.16,.17-1.58-.42-.16-.78-.26-1.01-.26-.04,0-.19,.02-.43,.06h-.1c-.09,0-.15-.11-.15-.26,0-.11,.08-.38,.17-.62l.28-.68c.1-.25,.34-.53,.68-.82,.28-.24,.54-.39,.74-.43l1.02-.2c.61-.12,.97-.44,.97-.86s-.27-.69-.88-.9l-1.22-.43c-.32-.11-.68-.29-1.11-.54-.68-.4-.79-.45-.95-.45-.25,0-.38,.18-.38,.5,0,.51,.32,.86,.79,.86,.1,0,.19-.02,.29-.06,.14-.06,.24-.09,.29-.09,.13,0,.2,.08,.2,.22v.13s-.06,.48-.06,.48c-.05,.41-.31,.91-.91,1.7l-.26,.34c-.23,.92-.8,1.75-1.53,2.24-.18,.12-.29,.2-.31,.23-.03,.03-.1,.16-.23,.4-.06,.11-.25,.34-.57,.68-.24,.26-.48,.48-.71,.65-.32,.24-.51,.42-.57,.51l-.28,.48c-.05,.09-.14,.14-.23,.14-.25,0-.48-.26-.63-.71-.1-.33-.2-.43-.41-.43-.11,0-.28,.03-.5,.09l-.4,.06h-1.02c-.51,0-1.23,.13-1.56,.28-.13,.06-.23,.09-.29,.09-.07,0-.11-.04-.19-.18-.05-.09-.06-.14-.06-.23,0-.52,.37-1.5,.86-2.27,.31-.49,.41-.6,.77-.91-.12-.48-.43-.86-.8-.97l-.48-.14c-.07-.02-.12-.08-.12-.14,0-.15,.23-.35,.65-.57,.55-.29,1.11-.45,1.56-.45,.47,0,.93,.19,1.45,.6,.77,.6,.98,.71,1.35,.71,.61,0,1.18-.55,1.18-1.14,0-.39-.21-.81-.75-1.51-.79-1.02-1.03-1.56-1.03-2.31,0-.47,.14-1.06,.32-1.33l.28-.43c.06-.09,.1-.19,.1-.27,0-.19-.22-.32-.51-.32-.45,0-1.31,.32-1.99,.74-.34,.21-.57,.46-.57,.6,0,.09,.04,.17,.12,.22l.31,.2s.06,.07,.06,.12c0,.04-.05,.13-.12,.22l-.57,.74c-.29,.38-.75,.86-1.19,1.25-.15,.13-.24,.23-.28,.28,0,0-.08,.15-.23,.43-.2,.38-.74,.93-1.25,1.28-.21,.14-.34,.25-.4,.31-.04,.05-.12,.18-.23,.4-.07,.14-.2,.34-.37,.59-.28,.41-.51,.71-.68,.88l-.79,.8c-.25,.24-.46,.72-.8,1.76-.2,.63-.38,1-.49,1-.04,0-.13-.06-.22-.17-.56-.64-1.04-1.03-1.3-1.03-.06,0-.17,.05-.32,.15-.21,.13-.47,.22-.77,.28l-1.05,.2c-.79,.15-1.1,.32-1.56,.85-.11,.13-.2,.2-.25,.2-.09,0-.15-.14-.15-.33l.03-.27,.14-.77c.15-.82,.34-1.43,.57-1.85l.48-.88c.09-.17,.14-.33,.14-.46,0-.65-.68-1.25-1.5-1.33-.21-.02-.29-.07-.29-.19,0-.15,.23-.43,.54-.67,.57-.43,1.32-.74,1.79-.74,.29,0,.73,.12,1.28,.34l.62,.26c.23,.1,.45,.15,.63,.15,.66,0,1.3-.6,2.09-1.96,.36-.61,.51-1.05,.51-1.45,0-.72-.34-1.16-.9-1.16-.43,0-.89,.2-1.23,.54-.29,.29-.44,.59-.44,.88v.31s.01,.07,.01,.07c0,.27-.09,.41-.25,.41-.27,0-.66-.38-1.77-1.73-.83-1.01-1.02-1.44-1.05-2.44-.96-1.23-1.2-1.75-1.2-2.62l.04-.59c-.66-.8-.85-1.24-.85-1.98,0-.27,.04-.43,.2-.75-.34-.49-.45-.72-.54-1.11l-.14-.6c-.1-.41-.25-.76-.46-1.05-.26-.37-.28-.42-.28-.54,0-.33,.23-.46,1.22-.71-.04-.28-.06-.49-.06-.63,0-.17,.02-.32,.09-.68l.2-1.05c.08-.42,.12-.73,.12-.91,0-.2-.03-.34-.21-.91-.1-.32-.18-.54-.26-.65-.09-.14-.17-.32-.17-.39,0-.1,.07-.16,.2-.16,.28,0,1.03,.45,1.79,1.09,1.63,1.35,1.96,1.89,2.19,3.52,.02,.13,.04,.32,.09,.57,.78,.58,1.19,1.27,1.19,2.01,0,.59-.21,1.27-.57,1.82l-.57,.88c-.17,.26-.25,.59-.25,.94,0,.54,.15,1.02,.54,1.7,.44,.76,.81,1.08,1.27,1.08,.75,0,1.41-1.3,1.41-2.79v-.2s0-.51,0-.51c0-.29,.02-.57,.06-.93,.05-.44,.08-.72,.09-.82l.03-.68v-.45c0-.16-.08-.32-.28-.55l-.62-.68c-.9-.99-1.4-1.91-1.4-2.61,0-.86,.63-1.51,1.45-1.51,.16,0,.32,.03,.6,.11v-.19c0-1.25,.26-2.18,.6-2.18l.13,.04,.51,.45,.63,.4,.17,.17c0-.35,.02-.39,.37-.79,.09-.1,.22-.28,.4-.54,.14-.21,.24-.35,.28-.42,.04-.07,.09-.16,.14-.26,.08-.14,.15-.21,.24-.21,.08,0,.14,.1,.25,.41,.07,.19,.11,.24,.59,.68,.17,.15,.29,.28,.34,.37,.05,.08,.12,.27,.23,.57,.02,.05,.05,.13,.09,.22,.21-.27,.31-.36,.57-.51l.42-.26c.16-.09,.27-.15,.32-.15,.04,0,.09,.07,.14,.18,.05,.1,.12,.24,.23,.43,.3,.53,.4,.78,.4,1.03v.28s0,.34,0,.34c.93,.29,1.28,.77,1.28,1.78,0,.73-.38,1.55-1.11,2.42-.49,.58-.54,.7-.54,1.1,0,2.1,1.46,3.32,4.04,3.36l1.9,.03c1.22,.02,1.95,.14,3.09,.51,1.35,.44,1.74,.54,2.13,.54,.13,0,.26-.04,.37-.11,.11-.07,.17-.17,.17-.25,0-.4-.7-.72-2.98-1.37-4.68-1.33-6.67-3.21-6.67-6.31,0-2.4,1.99-4.25,4.57-4.25,.83,0,2.11,.22,2.84,.49l1.16,.43c.21,.08,.42,.12,.61,.12,.4,0,.6-.33,.61-1,0-.36,.09-.48,.32-.48,.33,0,.83,.41,1.29,1.05,.47,.65,.77,1.38,.77,1.86,0,.64-.3,1.1-.99,1.49-.64,.97-1.42,1.42-2.48,1.42-.82,0-1.99-.46-3.91-1.56-.67-.38-1.01-.51-1.37-.51-.5,0-.83,.29-.83,.74,0,.41,.32,.67,1.15,.96,1.22,.43,1.53,.6,2.02,1.11,1.45,.25,2.08,.5,2.98,1.19,2.49,.79,4.04,2.49,4.04,4.44s-1.28,3.26-3.06,3.26c-.42,0-.68-.03-1.34-.17" fill="#1d1d1b"/><path d="M81.17,18.8l.11,.43c.1,.38,.18,.68,.23,.91,.36,1.62,.66,2.05,1.45,2.05,.45,0,.82-.25,.94-.63l.17-.57c.04-.13,.14-.21,.27-.21,.31,0,.47,.34,.5,1.03,0,.26,.07,.73,.17,1.39,.08,.48,.11,.92,.11,1.31,0,.29-.04,.46-.17,.81l.06,.34c.09,.56,.12,.78,.12,1.04,0,1.22-.06,1.58-.35,2.05,.12,.47,.15,.68,.15,1.02,0,.21-.03,.52-.09,1l-.11,.85,.03,.51c.08,.19,.11,.3,.11,.34,0,.08-.05,.14-.11,.14l-.57-.23-.63-.34c-.2-.11-.34-.22-.65-.51-.55,.49-.63,.53-1.28,.71-.94,.26-1.29,.38-1.48,.51-.18,.13-.32,.2-.39,.2-.22,0-.38-.43-.38-1.05,0-.91,.05-1.38,.2-1.73-.55-.19-.83-.26-1.03-.26-.08,0-.12,0-.41,.06h-.13c-.08,.01-.13-.09-.13-.26,0-.28,.2-.84,.46-1.3,.36-.64,.94-1.16,1.39-1.25l1.02-.2c.61-.12,.97-.44,.97-.86s-.27-.68-.88-.9l-1.19-.43c-.4-.14-.78-.32-1.13-.54-.3-.18-.51-.31-.63-.37-.1-.06-.21-.09-.31-.09-.25,0-.41,.18-.41,.49,0,.48,.37,.88,.82,.88,.1,0,.2-.02,.29-.06,.13-.06,.22-.09,.26-.09,.13,0,.23,.13,.23,.3,0,.5-.32,1.38-.66,1.8l-.34,.43-.25,.34c-.1,.73-.81,1.78-1.53,2.24-.17,.11-.28,.19-.31,.23-.02,.03-.1,.16-.22,.4-.06,.11-.25,.34-.57,.68-.24,.26-.48,.48-.71,.65-.32,.24-.51,.41-.57,.51l-.28,.48c-.06,.1-.13,.15-.22,.15-.25,0-.49-.27-.63-.72-.1-.33-.19-.43-.41-.43-.11,0-.28,.03-.5,.09l-.4,.06h-.99c-.54,0-1.26,.13-1.59,.28-.13,.06-.23,.09-.3,.09-.14,0-.22-.15-.22-.44,0-.9,.69-2.27,1.59-3.15-.13-.52-.41-.87-.77-.97-.32-.09-.49-.13-.51-.14-.05-.03-.09-.08-.09-.14,0-.18,.2-.36,.65-.57,.81-.38,1.04-.45,1.49-.45,.51,0,.95,.18,1.49,.6,.77,.6,.98,.71,1.35,.71,.61,0,1.19-.55,1.19-1.13,0-.4-.22-.83-.75-1.51-.76-.97-1.02-1.6-1.02-2.41,0-.55,.11-.85,.6-1.65,.08-.13,.12-.23,.12-.3,0-.16-.26-.3-.54-.3-.3,0-.68,.11-1.19,.34-.86,.39-1.36,.76-1.36,.98,0,.09,.05,.18,.14,.24l.28,.2s.06,.07,.06,.12c0,.05-.05,.15-.12,.22-.05,.07-.24,.31-.57,.74-.4,.53-.78,.92-1.19,1.25-.15,.12-.25,.21-.29,.28l-.22,.43c-.19,.36-.75,.94-1.22,1.28-.21,.15-.35,.26-.4,.31-.06,.06-.14,.2-.26,.4-.29,.52-.75,1.16-1.05,1.48l-.77,.8c-.22,.23-.53,.88-.82,1.76-.23,.69-.38,1-.49,1-.04,0-.13-.06-.22-.17-.55-.63-1.05-1.02-1.29-1.02-.06,0-.18,.05-.33,.14-.22,.13-.48,.23-.77,.28l-1.02,.2c-.85,.17-1.19,.35-1.59,.85-.1,.13-.18,.2-.23,.2-.1,0-.18-.15-.18-.35l.03-.25s.05-.28,.14-.77c.15-.81,.36-1.48,.57-1.85l.51-.88c.09-.16,.14-.32,.14-.46,0-.65-.61-1.18-1.53-1.33-.19-.03-.29-.1-.29-.21,0-.13,.22-.38,.57-.64,.6-.46,1.27-.74,1.74-.74,.32,0,.74,.11,1.3,.34l.62,.26c.23,.1,.45,.15,.64,.15,.66,0,1.3-.6,2.09-1.96,.36-.61,.51-1.05,.51-1.46,0-.72-.34-1.15-.89-1.15-.44,0-.86,.19-1.21,.54-.31,.31-.47,.63-.47,.9l.02,.29v.15c0,.23-.07,.33-.24,.33-.21,0-.46-.21-.96-.8-.2-.24-.47-.55-.8-.94-.86-1.01-1.04-1.41-1.08-2.44-.96-1.23-1.2-1.91-1.2-2.62l.04-.59c-.69-.83-.82-1.15-.82-1.97,0-.36,.02-.46,.17-.76-.34-.49-.45-.72-.54-1.11l-.14-.6c-.1-.41-.25-.75-.45-1.05-.25-.36-.28-.42-.28-.53,0-.3,.28-.49,1-.67l.23-.06c-.04-.28-.06-.49-.06-.63,0-.17,.02-.32,.09-.68l.2-1.05c.08-.41,.12-.72,.12-.93,0-.24-.04-.44-.17-.88-.09-.29-.18-.51-.28-.65-.11-.16-.17-.29-.17-.37,0-.1,.1-.17,.23-.17,.07,0,.19,.04,.29,.09,.96,.52,2,1.35,2.75,2.18,.64,.71,.85,1.31,.99,2.9,.87,.65,1.19,1.23,1.19,2.15,0,.55-.18,1.08-.57,1.68-.35,.53-.54,.82-.57,.88-.17,.28-.26,.62-.26,.96,0,.51,.16,.99,.54,1.68,.43,.75,.81,1.08,1.26,1.08,.74,0,1.42-1.29,1.42-2.71v-.28s0-.77,0-.77l.09-.68,.06-.82,.06-.68,.02-.38c0-.28-.06-.36-.93-1.29-.96-1.04-1.42-1.91-1.42-2.71,0-.76,.66-1.4,1.45-1.4,.16,0,.31,.03,.6,.11v-.34l.03-.6,.17-.74c.14-.59,.2-.7,.4-.7l.14,.04,.51,.45,.63,.4,.17,.17c.04-.35,.07-.42,.37-.79,.15-.18,.28-.37,.4-.54l.28-.42,.17-.26c.11-.17,.16-.21,.24-.21s.13,.1,.22,.41c.04,.13,.13,.26,.26,.37l.37,.31c.3,.25,.5,.63,.62,1.16,.23-.28,.33-.38,.57-.51l.45-.26c.17-.09,.27-.14,.3-.14,.03,0,.08,.07,.13,.17,.07,.15,.14,.29,.23,.43,.37,.59,.4,.67,.4,1.07v.24s0,.34,0,.34c.92,.25,1.28,.75,1.28,1.77,0,.77-.35,1.55-1.08,2.43-.48,.59-.57,.77-.57,1.2,0,2,1.51,3.22,4.06,3.26l1.87,.03c1.22,.02,1.97,.14,3.09,.51,1.31,.43,1.74,.54,2.14,.54,.29,0,.53-.16,.53-.35,0-.41-.69-.73-2.98-1.38-4.68-1.32-6.67-3.21-6.67-6.31,0-2.4,2-4.25,4.59-4.25,.81,0,2.09,.22,2.82,.49l1.16,.43c.21,.08,.42,.12,.61,.12,.4,0,.55-.25,.61-1,.03-.33,.13-.48,.35-.48,.3,0,.88,.47,1.3,1.05,.43,.6,.74,1.39,.74,1.9,0,.6-.31,1.06-.99,1.45-.64,.97-1.42,1.42-2.48,1.42-.81,0-2.18-.55-3.91-1.56-.68-.4-.98-.51-1.36-.51-.51,0-.84,.29-.84,.74,0,.41,.3,.67,1.15,.96,1.34,.48,1.63,.64,2.02,1.11,1.45,.25,2.08,.5,2.98,1.19,2.59,.83,4.03,2.43,4.03,4.48,0,1.87-1.27,3.22-3.03,3.22-.47,0-.71-.03-1.38-.17" fill="#1d1d1b"/><path d="M28.73,72.41c.25,.63,.33,.93,.37,1.34l.06,1.19c.04,1.19,.44,1.79,1.19,1.79,.27,0,.5-.07,.63-.2l.31-.31,.12-.04c.2,0,.31,.13,.31,.37l-.04,.46c-.02,.21,.02,.65,.11,1.3,.06,.39,.09,.77,.09,1.15,0,.6-.04,.84-.26,1.38,.2,.56,.31,1.19,.31,1.71,0,.62-.1,1.04-.34,1.38,.11,.49,.14,.69,.14,.96,0,.28-.04,.64-.11,1.08-.1,.59-.14,1.05-.11,1.36v.07c0,.18-.05,.27-.16,.27s-.24-.09-.35-.23c-.18-.22-.29-.3-.42-.3-.2,0-.26,.1-.55,.96-.09,.26-.32,.62-.68,1.05-.28,.34-.46,.62-.51,.82-.09,.34-.15,.54-.17,.59-.03,.08-.1,.13-.17,.14h-.04c-.47,0-1-1-1.55-2.9-.15-.53-.35-.77-.64-.77-.2,0-.41,.13-.49,.32l-.17,.4c-.03,.07-.09,.11-.15,.11-.23,0-.57-.41-.79-.94-.18-.43-.28-.9-.28-1.3,0-.89,.66-1.56,2.63-2.67,.86-.48,1.19-1.1,1.19-2.21,0-.88-.27-1.39-1.02-1.96-.6-.45-.95-.62-1.27-.62-.27,0-.48,.18-.48,.41,0,.27,.15,.43,.52,.56,.44,.15,.63,.31,.63,.5,0,.18-.18,.57-.49,1.03-.32,.49-.46,.63-.91,.94-.13,.78-.5,1.28-1.36,1.84-.17,.49-.27,.67-.57,1.05l-.59,.77c-.19,.24-.4,.67-.43,.88-.06,.43-.1,.51-.27,.51-.22,0-.69-.4-1.15-.99-.27-.35-.34-.52-.37-.94-.3,.23-.39,.26-.97,.34-.35,.05-.6,.11-.77,.2-.44,.23-.58,.29-.66,.29-.12,0-.16-.06-.17-.27l-.03-.62c0-.86,.34-1.86,.85-2.53-.5-.43-.99-.7-1.39-.74-.17-.02-.21-.04-.21-.1,0-.11,.11-.33,.27-.52,.21-.27,.38-.46,.51-.57,.41-.34,1.1-.6,1.65-.6,.37,0,.91,.13,1.62,.4,.25,.09,.48,.14,.68,.14,.31,0,.49-.2,.49-.56,0-.51-.26-1.32-.83-2.62-.39-.88-.56-1.47-.56-1.88,0-.98,.46-2,1.05-2.3-.27-.14-.4-.17-.64-.17-.28,0-.51,.07-.87,.28-.42,.25-.66,.46-.66,.61,0,.06,.09,.15,.23,.25,.22,.15,.26,.21,.26,.42,0,.7-.58,1.64-1.39,2.25-.18,1-.64,1.6-1.54,2.02-.12,.54-.19,.7-.62,1.31-.74,1.04-.92,1.37-1.05,1.96-.07,.3-.14,.43-.23,.43-.12,0-.37-.19-.65-.49-.24-.26-.39-.44-.46-.54-.12-.19-.18-.37-.31-.91-.2,.06-.26,.07-.4,.07h-.42s-.28-.02-.28-.02c-.62,0-1.28,.14-1.62,.35-.12,.07-.21,.11-.25,.11-.18,0-.33-.39-.33-.86,0-1.03,.28-1.87,.95-2.8-.24-.2-.32-.28-.54-.51-.09-.1-.17-.17-.23-.2l-.31-.17c-.11-.06-.17-.13-.17-.18,0-.15,.42-.55,.91-.86,.54-.35,.98-.51,1.37-.51,.47,0,.71,.12,1.3,.63,.4,.35,.68,.51,.87,.51,.14,0,.29-.09,.41-.25,.09-.13,.14-.28,.14-.42,0-.54-.65-1.46-1.37-1.93-.54-.35-1.12-.54-1.69-.54-.79,0-1.47,.39-1.77,1.02l-.31,.65c-.07,.15-.16,.23-.27,.23-.18,0-.28-.08-.92-.83l-.74-.85c-.23-.26-.38-.51-.46-.74-.07-.21-.12-.33-.14-.37-.03-.04-.12-.11-.28-.23-.57-.4-.98-1.2-1.22-2.36-.02-.08-.04-.21-.09-.37-.7-.85-1.11-1.91-1.11-2.82,0-.12,0-.17,.06-.39-.4-.41-.45-.5-.77-1.59-.23-.77-.37-1.1-.65-1.48-.07-.1-.11-.18-.11-.22,0-.15,.24-.28,.65-.35,.39-.06,.41-.07,.57-.07l.56,.04-.03-.78c0-.46,.03-.75,.15-1.29,.06-.27,.09-.47,.09-.59,0-.05-.02-.21-.06-.49-.03-.21-.06-.36-.09-.42-.04-.11-.06-.19-.06-.24,0-.09,.06-.14,.17-.14,.08,0,.2,.04,.37,.12,.5,.24,.91,.49,1.22,.74,.98,.77,1.75,1.95,1.75,2.68l-.02,.22c-.04,.25-.06,.39-.06,.42,0,.12,.07,.29,.2,.46l.31,.43c.28,.38,.46,.82,.46,1.11,0,.27-.06,.38-.51,1.04-.34,.5-.48,.86-.48,1.27,0,.51,.2,1.16,.57,1.8,.34,.59,.72,.91,1.09,.91,.64,0,.91-.56,1.01-2.08,.05-.79,.13-1.5,.23-2.16l.03-.39c0-.18-.05-.28-.28-.55l-.85-.99c-.81-.95-1.06-1.44-1.06-2.12,0-.78,.51-1.32,1.26-1.32l.34,.03v-.22c0-.18,.04-.44,.14-.77,.18-.61,.4-1.08,.52-1.08,.04,0,.13,.05,.27,.14,.04,.03,.22,.09,.51,.2,.16,.05,.27,.11,.57,.28,.14-.49,.24-.71,.45-.99,.37-.47,.78-.85,.93-.85,.09,0,.26,.12,.46,.34l.54,.57c.09,.09,.2,.28,.31,.54l.11,.26c.15-.09,.27-.15,.34-.2,.22-.13,.37-.22,.45-.26,.35-.16,.53-.25,.54-.26,.15-.1,.25-.15,.29-.15,.09,0,.15,.17,.36,1.11,.14,.64,.17,.78,.2,1.25,.91,.13,1.33,.65,1.33,1.62,0,.92-.45,1.82-1.42,2.86-.26,.28-.33,.42-.33,.68,0,2.51,.87,3.3,4.02,3.63,1.93,.2,2.51,.33,4.83,1.02,1.22,.37,1.92,.52,2.37,.52,.54,0,.84-.19,.84-.54,0-.53-.38-.69-2.64-1.17-5.26-1.11-7.33-2.91-7.33-6.37,0-2.48,1.85-4.33,4.32-4.33,1.09,0,2.06,.33,3.6,1.22,1.43,.83,1.72,.97,2.05,.97,.38,0,.53-.24,.53-.86,0-.4,.12-.59,.37-.59,.23,0,.57,.24,.88,.6,.47,.56,.65,.84,.65,1.61,0,1.02-.55,1.7-1.62,1.99-.11,.13-.2,.22-.26,.28-.58,.66-1.09,.88-2.03,.88-.81,0-1.82-.33-2.51-.83l-1.36-.97c-.59-.42-1.02-.59-1.43-.59-.58,0-.93,.35-.93,.93s.38,1.03,1,1.23l1.28,.4c.45,.14,.67,.23,1.22,.51,.32-.05,.46-.06,.64-.06,.79,0,1.65,.22,2.4,.6,.24,.12,.41,.2,.51,.23l.71,.2c1.61,.45,2.93,2.26,2.93,4.01,0,2.01-1.3,3.26-3.4,3.26l-.66-.03h0Z" fill="#1d1d1b"/><path d="M78.13,71.99c.49,.65,1.19,1.08,1.76,1.08,.18,0,.48-.05,.77-.12,.15-.04,.28-.06,.38-.06,.14,0,.19,.05,.19,.18,0,.1-.07,.34-.15,.53-.09,.22-.14,.39-.17,.51l-.11,.6-.28,.51-.4,.37-.11,.11v.38c0,.69-.21,1.09-.77,1.46-.05,.03-.11,.08-.2,.14l-.06,.23c-.13,.53-.22,.86-.28,.99-.07,.15-.25,.42-.54,.79-.34,.45-.57,.82-.71,1.17-.12,.28-.21,.36-.39,.36-.28,0-.56-.35-.6-.76-.06,.09-.11,.14-.14,.17l-.34,.23-.54,.37c-.24,.17-.39,.28-.46,.34l-.31,.31c-.05,.05-.11,.09-.16,.09-.14,0-.29-.24-.43-.71l-.29-.94c-.08-.25-.11-.56-.11-.92,0-.47,.03-.64,.2-1.01-.57,.06-.73,.09-1.02,.2-.09,.03-.2,.06-.25,.06-.09,0-.15-.07-.15-.18,0-.06,.05-.26,.11-.42l.37-.96c.29-.75,1.21-1.43,1.95-1.43,.18,0,.42,.05,.73,.15,.18,.06,.33,.09,.43,.09,.33,0,.59-.24,.59-.55,0-.15-.1-.31-.23-.37-.05-.02-.39-.13-1.02-.31-.48-.14-.71-.31-1.25-.94-.39-.45-.54-.58-.68-.58-.11,0-.17,.07-.17,.2l.03,.38v.17c0,.79-.22,1.54-.8,2.58l-.79,1.45c-.38,.69-.54,1.21-.54,1.73,0,.57,.25,1.08,.57,1.16l.43,.11c.05,.01,.1,.04,.14,.09,.05,.06,.09,.12,.09,.16,0,.06-.05,.16-.14,.26-.05,.06-.22,.28-.51,.65-.49,.64-.8,.87-1.39,1.05-.34,.83-.9,1.31-1.9,1.65l-.11,.2c-.34,.59-1.09,1.14-1.57,1.14h-.11c-.07,.52-.44,1.06-1,1.45-.39,.27-.6,.43-.65,.48-.03,.04-.08,.12-.14,.26-.13,.28-.25,.4-.41,.4-.3,0-.55-.28-.73-.83-.11,.07-.2,.13-.25,.17-.32,.23-.5,.35-.54,.37-.13,.06-.46,.16-1,.28-.69,.16-1.3,.46-1.45,.71l-.26,.43-.12,.05c-.14,0-.3-.19-.37-.45-.16-.59-.26-1.2-.26-1.59,0-1.01,.33-1.67,1.36-2.69v-.24c0-1.57,1.19-2.63,2.95-2.63h.28s.97,.07,.97,.07h.09c.52,0,1-.2,1.53-.63,.69-.57,.89-.92,.89-1.55,0-.2-.05-.43-.27-1.14-.14-.47-.21-.91-.21-1.34,0-1.17,.86-2.63,2.03-3.44,.3-.21,.53-.48,.53-.64,0-.07-.04-.12-.08-.12-.08,0-.2,.08-.36,.22-.14,.12-.36,.27-.68,.43l-.45,.23-.51,.2c-.16,.06-.23,.15-.23,.26,0,.06,.02,.15,.06,.26,.04,.09,.06,.17,.06,.21,0,.06-.05,.18-.14,.33l-.4,.65c-.39,.64-.67,.91-1.17,1.14-.32,.93-.78,1.41-1.45,1.5-.54,1.08-1.01,1.46-1.96,1.56-.13,.41-.36,.76-.85,1.31-.2,.22-.32,.37-.37,.45-.22,.4-.24,.43-.34,.43-.13,0-.43-.19-.65-.43-.1-.11-.19-.22-.25-.34l-.26-.45c-.08-.15-.17-.21-.27-.21h-.18s-.63,.1-.63,.1c-.39,.05-.95,.37-1.13,.65l-.34,.51c-.04,.05-.09,.09-.14,.09-.25,0-.41-.56-.41-1.49,0-.82,.13-1.36,.41-1.75l.8-1.11c.11-.15,.17-.31,.17-.43s-.05-.25-.14-.36c-.17-.2-.33-.32-.45-.34l-.6-.09c-.11-.02-.15-.04-.15-.09s.03-.12,.09-.19c.2-.25,.44-.46,.71-.63,.7-.43,1.17-.6,1.64-.6s1,.17,1.48,.49l.82,.54c.12,.08,.25,.12,.4,.12,.38,0,.67-.23,.94-.74,.26-.49,.37-.9,.37-1.31,0-1.07-.76-1.84-1.82-1.84-.49,0-1,.19-1.48,.57-.15,.11-.24,.22-.28,.31l-.23,.51c-.05,.12-.14,.2-.2,.2-.14,0-.46-.41-.73-.94-.14-.28-.27-.62-.4-1.02-.17-.56-.24-.97-.24-1.42l.04-.77c-.39-.6-.51-1.04-.51-1.76,0-.26,.04-.46,.2-1-.24-.4-.31-.69-.31-1.27l.03-.35,.09-.4,.06-.34c-.27-.36-.36-.59-.63-1.84-.15-.7-.25-1.01-.37-1.19-.05-.08-.08-.14-.08-.17,0-.17,.4-.32,.85-.32l.4,.03c-.1-.27-.12-.37-.12-.58,0-.35,.07-.74,.21-1.13,.15-.43,.18-.55,.18-.7,0-.33-.05-.68-.12-.87l-.23-.57c-.05-.13-.07-.22-.07-.29,0-.06,.04-.08,.14-.08,.56,0,1.62,.6,2.46,1.39,.83,.79,1.1,1.42,1.1,2.59l-.05,.62c.77,.68,1.11,1.24,1.11,1.85,0,.44-.14,.74-.57,1.16-.77,.76-.94,1.16-.94,2.14,0,1.51,.45,2.32,1.28,2.32,.73,0,1.3-.8,1.39-1.96l.09-1.08c.02-.28,.07-.62,.14-1.02,.05-.26,.09-.59,.09-.74,0-.38-.25-.86-1-1.73-.8-.93-1.07-1.43-1.07-2.16,0-.87,.6-1.51,1.42-1.51,.2,0,.31,.03,.55,.16,.01-.5,.03-.59,.31-1.28,.22-.55,.46-.94,.57-.94,.04,0,.1,.04,.17,.11,.12,.12,.24,.23,.37,.31,.18,.12,.27,.19,.28,.2,.06,.05,.15,.13,.25,.26,.18-.64,.36-.94,.88-1.45,.4-.39,.55-.51,.62-.51,.06,0,.13,.05,.2,.14l.34,.45,.48,.54c.18,.2,.25,.38,.34,.88l.28-.17,.45-.26c.08-.05,.2-.12,.34-.23,.08-.06,.14-.09,.18-.09,.05,0,.1,.09,.13,.2l.17,.65,.37,.74c.11,.22,.14,.39,.14,.73v.18s.19,0,.19,0c.56,0,1.04,.66,1.04,1.42,0,1.01-.8,2.32-1.86,3.01-.1,.34-.12,.48-.12,.75,0,2.26,.59,2.73,4.07,3.25,.87,.13,1.64,.29,2.33,.48,.11,.03,.86,.28,2.24,.74,.77,.26,1.28,.37,1.68,.37,.42,0,.66-.12,.66-.34,0-.39-.57-.74-2.31-1.42l-2.47-.97c-2.51-.98-3.7-2.51-3.7-4.77,0-2.63,1.97-4.6,4.6-4.6,.99,0,1.96,.2,3.35,.71,1.79,.65,1.89,.68,2.08,.68,.35,0,.54-.24,.59-.74,.05-.42,.16-.6,.4-.6,.35,0,.73,.33,1,.85,.23,.46,.37,1,.37,1.47,0,.94-.5,1.55-1.39,1.73-.6,.78-1.36,1.18-2.28,1.18-1.13,0-1.69-.22-3.62-1.43-.69-.43-.99-.54-1.49-.54-.68,0-1.18,.42-1.18,.99,0,.52,.42,.86,1.36,1.11,.56,.15,.64,.19,.94,.48,.23-.05,.33-.07,.47-.07,.92,0,2.06,.5,3.02,1.32,1.75,.54,3.31,2.43,3.31,4.01,0,1.75-1.52,3.32-3.21,3.32-.46,0-1.37-.15-2.19-.35" fill="#1d1d1b"/><path d="M31,31.24c-.08-.34-.11-.52-.11-.69l.02-.22,.09-.45,.03-.37c0-.39-.07-.68-.2-.86l-.34-.46c-.11-.15-.21-.33-.28-.54-.04-.1-.06-.19-.06-.24,0-.13,.08-.21,.2-.21,.08,0,.11,.01,.36,.17,.11,.06,.21,.1,.28,.1,.17,0,.26-.27,.26-.76,0-.55-.05-.85-.17-.99l-.43-.48-.37-.31c-.09-.08-.15-.17-.15-.25,0-.12,.1-.21,.23-.21,.13,0,.4,.06,.63,.14l.13,.03c.11,0,.16-.07,.16-.24v-.1s-.09-.6-.09-.6l-.17-.63c-.05-.2-.09-.23-.21-.23h-.07s-.71,.15-.71,.15h-.11c-.93,0-1.91-.78-2.21-1.76l-.57-1.84c-.18-.57-.6-1.11-1.36-1.73-.23-.19-.43-.3-.57-.31l-.51-.06c-.1-.01-.15-.07-.15-.14,0-.12,.11-.17,.35-.17l.94,.09c.34,.03,.86,.16,1.53,.4,.85,.29,1.42,.42,1.9,.42,1.42,0,2.27-.77,2.27-2.05,0-.88-.46-1.87-1.16-2.51-.4-.36-.8-.63-.94-.63-.08,0-.14,.07-.14,.15l.03,.36v.03c0,.14-.08,.25-.19,.25-.14,0-.31-.19-.49-.57-.54-1.12-1.39-1.78-2.27-1.78-.15,0-.26,.06-.26,.15,0,.06,.05,.2,.14,.41l.23,.51c.06,.14,.09,.22,.09,.26s-.05,.06-.12,.06c-.13,0-.34-.12-.48-.27l-.43-.45-.37-.57c-.3-.45-.54-.66-1.16-.99-.35-.19-.58-.31-.68-.37-.13-.08-.25-.11-.35-.11s-.15,.05-.15,.15c0,.09,.04,.2,.11,.31,.21,.32,.29,.49,.29,.57,0,.09-.07,.17-.15,.17-.22,0-.68-.45-1.08-1.05-.33-.5-.51-1.06-.51-1.6,0-1.22,.89-2.12,2.1-2.12,.62,0,1.41,.26,2.13,.71l1.33,.82c.46,.29,1.15,.51,1.55,.51,.18,0,.55-.06,.83-.14,.12-.04,.24-.08,.34-.14,.08-.05,.14-.11,.14-.16,0-.06-.03-.11-.08-.13l-.17-.06-.63-.11c-.16-.03-.42-.13-.77-.28-.75-.34-1.22-.58-1.42-.71-.47-.3-.78-.49-.94-.54-.23-.08-.37-.18-.37-.27,0-.08,.04-.13,.13-.13s.19,.04,.31,.11c.41,.26,.78,.4,1.05,.4l1.22,.42c.6,.21,1.49,.4,1.89,.4,.52,0,.93-.42,.93-.94,0-.33-.2-.83-.49-1.25-.07-.09-.14-.14-.19-.14-.11,0-.18,.08-.18,.23l.03,.23,.04,.34c0,.37-.25,.66-.56,.66-.11,0-.27-.03-.45-.09l-1.85-.6c-1.55-.5-2.26-.65-3.04-.65-2.21,0-3.89,1.52-3.89,3.51,0,2.26,1.59,3.72,5.51,5.07,3.86,1.32,4.4,1.65,4.4,2.64,0,.57-.58,1.08-1.22,1.08-.26,0-.49-.02-.68-.06-.13-.03-.78-.18-1.93-.46-1.16-.28-2.22-.4-3.53-.4-2.79,0-4.33,.49-5.67,1.79-.33,.33-.45,.38-.83,.38h-.19s-.4-.04-.4-.04h-.05c-.33,0-.58,.16-.8,.51-.3,.48-.46,.74-.48,.77-.08,.11-.2,.17-.32,.17-.26,0-.41-.19-.7-.88-.14-.33-.34-.62-.6-.85l-.57-.51c-.09-.08-.14-.16-.14-.22,0-.06,.04-.15,.11-.26,.27-.4,.36-.57,.4-.74,.08-.38,.09-.4,.24-.4,.18,0,.23,.18,.24,.82,0,.19,.08,.45,.23,.77l.31,.68c.04,.09,.14,.14,.26,.14,.29,0,.67-.69,.77-1.42,.08-.61,.15-.8,.27-.8,.05,0,.1,.02,.12,.06,.03,.04,.11,.21,.25,.51,.08,.16,.2,.3,.37,.43,.16,.12,.28,.19,.34,.2h.04c.23,0,.31-.15,.36-.68l.03-.28-.06-.4-.04-.27c0-.18,.06-.3,.17-.3,.06,0,.14,.04,.21,.12l.28,.28c.19,.19,.38,.28,.56,.28,.23,0,.38-.1,.38-.25,0-.13-.05-.27-.26-.66l-.2-.37c-.23-.43-.41-.6-.62-.6l-.29,.03-.34,.14c-.1,.04-.18,.06-.22,.06-.05,0-.09-.05-.09-.11,0-.25,.17-.65,.48-1.16,.22-.36,.38-1.13,.45-2.23,.1-1.48,.3-2.44,.51-2.44,.14,0,.19,.12,.19,.43l-.02,.39v.27c0,.27,.05,.48,.12,.48,.24,0,.53-.36,.76-.95,.09-.24,.14-.44,.14-.58l-.03-.13-.57-1.05-.57-.17c-.1-.03-.18-.08-.2-.13v-.69l-.05-.34-.12-.28-.14-.31c-.62,.34-.92,.56-1.14,.85-.22,.3-.35,.41-.46,.41-.07,0-.14-.07-.14-.15,0-.07,.03-.22,.09-.46l.02-.16c0-.61-.37-1.21-.98-1.6l-.17,.23-.2,.28-.34,.4c-.11,.13-.21,.32-.28,.57-.04,.12-.06,.23-.06,.32v.04s0,.1,0,.1c0,.23-.03,.29-.13,.29l-.07-.03-.2-.28-.31-.34-.48-.31-.26-.2c-.05,.11-.09,.2-.11,.26-.09,.2-.13,.35-.14,.46l-.03,.46-.03,.48v.08c0,.25-.05,.35-.21,.35-.05,0-.19-.06-.33-.14-.12-.07-.27-.11-.41-.11-.44,0-.73,.31-.73,.78,0,.57,.17,1.11,.46,1.49l.37,.48c.1,.13,.29,.24,.3,.17l.07-.6-.09-.48-.02-.22c0-.18,.06-.3,.17-.3,.16,0,.26,.18,.36,.65l.23,1.05,.23,1.34c.06,.36,.18,.74,.34,1.14,.22,.53,.39,.87,.48,.99,.31,.4,.35,.46,.35,.55,0,.07-.05,.13-.12,.13-.06,0-.15-.03-.26-.09-.1-.05-.21-.09-.34-.11l-.22-.03c-.45,0-.55,.39-.55,2.29,0,1.16,.25,2.73,.54,3.48l.6,1.5c.09,.24,.14,.48,.14,.71,0,2.07-2.75,5.32-5.77,6.82-1.12,.56-1.48,1.09-1.56,2.33l-.03,.37c.46-.24,.64-.31,.97-.4,.85-.22,1.01-.33,1.13-.74l.11-.37c.04-.14,.11-.19,.77-.54,.22-.12,.38-.25,.45-.37,.14-.24,.26-.37,.34-.37,.07,0,.11,.03,.11,.09l-.02,.1-.28,.81-.03,.2c0,.6,.33,1.09,.94,1.4,.1-.66,.17-.88,.37-1.19l.51-.79c.19-.3,.27-.65,.27-1.22,0-.31-.03-.64-.07-.88l-.02-.23c0-.14,.08-.23,.2-.23,.1,0,.18,.04,.19,.09l.11,.54c.02,.12,.14,.2,.28,.2,.27,0,.63-.35,1-.99,.14-.24,.21-.5,.21-.75l-.04-.38-.09-.43v-.08c0-.19,.1-.32,.24-.32,.06,0,.12,.02,.13,.06l.17,.65c.06,.22,.21,.37,.37,.37,.19,0,.52-.33,.71-.71,.17-.34,.26-.72,.26-1.16,0-.61,.06-.78,.28-.78,.07,0,.13,.03,.14,.07l.11,.37c.04,.13,.13,.23,.2,.23,.12,0,.44-.35,.65-.71,.06-.09,.09-.18,.09-.26,0-.12-.08-.24-.26-.39-.3-.25-.31-.28-.31-.66s.06-.54,.31-.99c.14-.24,.26-.47,.37-.68,.36-.7,.49-.88,.62-.88,.11,0,.21,.12,.21,.25,0,.07-.02,.15-.06,.23-.08,.16-.12,.27-.12,.34,0,.11,.09,.2,.21,.2,.13,0,.3-.06,.5-.17,.08-.04,.34-.15,.8-.31l.94-.34c.16-.06,.35-.09,.57-.09,.18,0,.34,.02,.51,.06,.33,.08,.55,.12,.65,.12,.26,0,.48-.22,.48-.47,0-.19-.2-.56-.46-.86-.1-.11-.14-.2-.14-.26l.03-.11c.04-.07,.1-.11,.15-.11,.19,0,.64,.48,1.04,1.11,2.45,3.85,3.32,4.78,4.97,5.28,1.67,.51,2.11,.9,2.11,1.89,0,.54-.28,1.17-.89,2.03-1.23,1.73-1.54,2.43-1.54,3.57v.21c.14-.06,.25-.11,.32-.14,.23-.12,.38-.19,.45-.2l.71-.14c.21-.04,.4-.31,.4-.58v-.07s-.09-.63-.09-.63v-.08c0-.22,.1-.48,.26-.6,.04-.04,.1-.06,.15-.06,.08,0,.18,.07,.22,.17l.45,.96c.19,.4,.41,.58,.99,.85" fill="#ffe800"/><path d="M8.11,10.65c-.21,0-.31,.18-.33,.57l-.06,.54c-.07,.5-.07,.56-.07,.69,0,.4,.12,.7,.28,.7,.18,0,.47-.34,.61-.74,.09-.24,.13-.45,.13-.66,0-.19-.04-.41-.13-.64-.1-.29-.26-.46-.43-.46" fill="#ffe800"/><path d="M5.5,6.22v.25c0,.35-.08,.77-.37,1.85-.05,.2-.09,.39-.09,.52,0,.19,.07,.4,.23,.65,.09,.15,.18,.25,.26,.28l.34,.17,.06,.4c-.01,.16,.01,.37,.09,.63,.08,.28,.12,.57,.12,.85,0,.24-.02,.33-.07,.33-.11,0-.3-.29-.47-.73-.27-.69-.52-.94-.9-.94-.31,0-.51,.05-.88,.23,.09,.11,.14,.19,.17,.23,.02,.04,.11,.2,.26,.48l.4,.77c.27,.53,.44,.83,.48,.91,.1,.16,.24,.3,.4,.4,.05,.03,.2,.11,.45,.26,.14,.07,.23,.18,.23,.26,0,.13-.1,.22-.24,.22h-.02l-.37-.06-.21-.02c-.11,0-.16,.1-.16,.32,0,.77,.61,1.66,1.68,2.43,.13,.09,.23,.23,.23,.3,0,.09-.1,.18-.21,.18-.07,0-.23-.05-.36-.11-.08-.04-.15-.06-.2-.06-.14,0-.23,.12-.23,.29,0,.2,.16,.6,.52,1.28,.23,.44,.57,.77,.96,.94l1.28,.54c.07,.03,.11,.09,.11,.17,0,.1-.07,.19-.17,.2l-.26,.03-.22,.03-.37-.03h-.06c-.18,0-.25,.03-.25,.12,0,.15,.16,.5,.42,.93,.3,.51,.57,.8,.73,.8,.07,0,.13-.06,.18-.14l.31-.65c.05-.11,.31-.31,.74-.57,.27-.17,.54-.27,.8-.31l.51-.09c.13-.02,.2-.12,.2-.27v-.07s-.09-.54-.09-.54l-.06-.6-.06-.54-.06-.63c0-.16-.05-.23-.14-.23-.07,0-.18,.09-.26,.2-.45,.68-.76,.91-1.23,.91-1.51,0-2.66-2.66-2.66-6.18,0-.31,.02-.7,.06-1.17,.07-.9,.09-1.13,.09-1.46,0-1.53-.32-2.6-.97-3.25l-.4-.4-.26-.28h0Z" fill="#ffe800"/><path d="M9.16,26.98c-.4-.06-.58-.1-.82-.2-.07-.03-.25-.1-.54-.23-.46-.19-.8-.28-1.09-.28-.43,0-.78,.15-1.19,.48l.26,.2,.57,.4,.54,.43c.14,.11,.31,.17,.47,.17,.55,0,1.04-.26,1.8-.97" fill="#ffe800"/><path d="M20.1,32.15c.16-.35,.23-.45,.57-.74,.79-.68,1.16-1.19,1.16-1.59v-.62c0-.37,.06-.48,.25-.48,.09,0,.16,.03,.18,.09l.14,.34c.03,.08,.13,.13,.24,.13s.27-.13,.41-.33l.28-.4c.14-.2,.21-.37,.21-.55,0-.11-.02-.22-.06-.32-.02-.06-.09-.21-.2-.46-.06-.15-.12-.34-.12-.45,0-.19,.1-.29,.25-.29,.09,0,.16,.03,.2,.09l.23,.28c.05,.06,.13,.1,.22,.1,.1,0,.22-.1,.29-.24l.23-.45c.06-.12,.09-.2,.09-.25,0-.09-.09-.18-.26-.26l-.37-.17c-.49-.22-.85-1.01-.85-1.82,0-.11,.02-.21,.06-.31l.2-.48c.06-.14,.09-.29,.09-.46,0-.29-.1-.59-.28-.88-.23-.35-.35-.55-.37-.6-.17-.45-.25-.57-.39-.57l-.14,.04-.2,.11-.31,.17-.37,.45-.4,.2c-.24,.12-.46,.62-.46,1.04,0,.73,.08,.94,1.06,2.62,.38,.65,.58,1.21,.58,1.63,0,1.16-1.04,1.99-3.13,2.49l-1.31,.31c-.96,.23-1.53,.89-1.73,2.02,.4-.21,.55-.23,1.26-.23h.42s.07,0,.07,0c.38,0,.43-.03,.67-.37,.28-.39,.55-.63,.94-.8l.45-.2,.37-.2,.11-.03c.1,0,.16,.04,.16,.12,0,.11-.1,.3-.27,.48-.33,.36-.46,.67-.46,1.1,0,.28,.07,.44,.31,.75" fill="#ffe800"/><path d="M16.52,27.75c.33,.21,.66,.5,.85,.77,.27,.37,.31,.4,.58,.4,.12,0,.26-.02,.42-.06l.26-.06c.47-.09,.63-.16,.63-.27,0-.07-.05-.15-.14-.24l-.31-.28-.31-.28c-.2-.18-.6-.32-.94-.32s-.54,.07-1.02,.34" fill="#ffe800"/><path d="M25.72,29.28l.17-.03,.26-.03,.25,.03h.13c.63,0,1.24-.53,1.24-1.09,0-.19-.18-.3-.5-.3-.77,0-1.24,.44-1.54,1.42" fill="#ffe800"/><path d="M83.98,31.24c-.07-.26-.09-.38-.09-.52l.03-.39c.07-.53,.09-.78,.09-1.1,0-.21-.06-.38-.21-.57l-.34-.46c-.22-.29-.31-.52-.31-.77,0-.16,.04-.22,.15-.22l.13,.03s.1,.05,.26,.14c.11,.06,.21,.1,.28,.1,.17,0,.26-.27,.26-.8,0-.74-.14-1.09-.57-1.43l-.4-.31c-.07-.05-.12-.15-.12-.23,0-.13,.08-.22,.21-.22,.08,0,.19,.02,.33,.06l.31,.09,.12,.03c.1,0,.14-.08,.14-.24v-.1s-.09-.6-.09-.6c-.09-.62-.19-.86-.37-.86h-.05s-.74,.15-.74,.15h-.12c-.89,0-1.93-.83-2.2-1.76l-.54-1.84c-.16-.55-.64-1.16-1.36-1.73-.24-.18-.44-.29-.6-.31l-.51-.06c-.09-.01-.16-.07-.16-.14,0-.12,.1-.18,.31-.18,.72,0,1.49,.15,2.51,.49,.93,.3,1.44,.42,1.9,.42,1.42,0,2.28-.74,2.28-1.97,0-.61-.22-1.39-.54-1.88-.27-.43-.74-.86-1.34-1.25-.09-.06-.17-.09-.22-.09-.08,0-.15,.06-.15,.14l.03,.37v.03c0,.14-.08,.25-.18,.25-.16,0-.32-.18-.5-.57-.52-1.11-1.36-1.78-2.23-1.78-.19,0-.3,.07-.3,.18,0,.09,.05,.22,.15,.38,.09,.14,.18,.31,.25,.51,.04,.11,.07,.19,.07,.24s-.05,.08-.13,.08c-.13,0-.34-.12-.48-.27-.28-.3-.42-.45-.42-.45l-.37-.57c-.29-.44-.6-.71-1.14-.99l-.71-.37c-.14-.08-.27-.11-.36-.11-.09,0-.13,.04-.13,.13,0,.09,.04,.2,.13,.33,.15,.22,.26,.46,.26,.57,0,.09-.06,.17-.14,.17-.2,0-.56-.36-1.06-1.05-.36-.5-.54-1.04-.54-1.59,0-1.2,.92-2.13,2.11-2.13,.61,0,1.37,.25,2.13,.71l1.36,.82c.49,.29,1.15,.51,1.56,.51,.22,0,.29-.01,.8-.14,.15-.04,.27-.09,.37-.14,.06-.04,.1-.1,.1-.17,0-.11-.07-.16-.25-.18-.63-.05-1.94-.56-2.81-1.11-.5-.32-.82-.5-.94-.54-.23-.08-.39-.2-.39-.3,0-.04,.05-.07,.12-.07l.17,.03,1.23,.46,1.19,.42c.59,.21,1.49,.4,1.91,.4,.54,0,.91-.37,.91-.91,0-.27-.07-.58-.18-.79-.17-.34-.4-.62-.5-.62-.11,0-.17,.11-.17,.31v.15s.05,.37,.05,.37c0,.38-.21,.63-.54,.63-.13,0-.28-.03-.46-.09l-1.85-.6c-1.6-.52-2.23-.65-3.01-.65-2.23,0-3.91,1.51-3.91,3.51,0,2.27,1.55,3.68,5.54,5.07,3.87,1.34,4.37,1.65,4.37,2.67,0,.58-.55,1.05-1.24,1.05-.25,0-.48-.02-.67-.06-.17-.03-.81-.18-1.93-.46-1.18-.28-2.19-.4-3.53-.4-2.82,0-4.17,.43-5.64,1.79-.34,.32-.48,.38-.86,.38h-.19s-.45-.04-.45-.04c-.34,0-.59,.16-.8,.51l-.45,.77c-.06,.1-.19,.17-.33,.17-.29,0-.45-.19-.72-.88-.14-.36-.34-.66-.57-.85l-.6-.51c-.09-.08-.14-.15-.14-.21,0-.06,.05-.15,.14-.28,.09-.12,.18-.25,.26-.4,.09-.16,.13-.28,.14-.34l.03-.26c.02-.08,.1-.14,.2-.14,.19,0,.22,.13,.22,.82,0,.18,.08,.44,.23,.77l.31,.68c.04,.09,.14,.14,.26,.14,.29,0,.67-.69,.77-1.42,.08-.61,.15-.8,.27-.8,.12,0,.17,.07,.41,.57,.07,.15,.19,.3,.34,.43,.14,.12,.26,.19,.34,.2h.03c.23,0,.31-.14,.37-.68l.03-.28-.06-.4-.04-.27c0-.18,.06-.3,.17-.3,.06,0,.14,.04,.21,.12l.28,.28c.19,.19,.38,.28,.57,.28,.24,0,.39-.11,.39-.28,0-.14-.03-.21-.28-.63-.02-.04-.09-.16-.2-.37-.25-.48-.37-.6-.59-.6l-.29,.03-.37,.14c-.11,.04-.18,.06-.22,.06-.05,0-.09-.05-.09-.11,0-.26,.17-.66,.48-1.16,.19-.31,.36-1.07,.48-2.23l.14-1.33c.09-.82,.18-1.11,.34-1.11,.06,0,.11,.02,.11,.06l.09,.42v.34c0,.41,.04,.75,.1,.75,.12,0,.3-.14,.47-.38,.12-.17,.22-.36,.28-.57,.1-.3,.14-.55,.14-.74,0-.66-.27-.94-1.17-1.19-.09-.02-.15-.05-.17-.09l-.03-.25v-.48l-.06-.34-.11-.28-.14-.31-.23,.14c-.58,.36-.72,.47-.91,.71-.26,.33-.35,.41-.46,.41-.08,0-.14-.06-.14-.12l.11-.48v-.09c0-.62-.34-1.22-.97-1.67l-.2,.23-.2,.28-.34,.4c-.2,.23-.32,.55-.32,.84v.09s0,.09,0,.09c0,.22-.04,.3-.14,.3l-.06-.02-.23-.28-.28-.34-.51-.31-.26-.2c-.27,.6-.29,.66-.29,1.42v.24c0,.26-.08,.41-.22,.41-.07,0-.19-.05-.35-.14-.13-.07-.28-.12-.42-.12-.42,0-.72,.35-.72,.83,0,.52,.11,.88,.46,1.44,.22,.37,.52,.67,.65,.67,.02,0,.05-.27,.09-.61l-.09-.48-.02-.22c0-.18,.06-.3,.17-.3,.16,0,.26,.18,.36,.65l.23,1.05,.23,1.34c.06,.36,.18,.74,.34,1.14,.22,.53,.39,.87,.48,.99,.32,.4,.35,.46,.35,.55,0,.07-.06,.13-.12,.13-.06,0-.15-.03-.26-.09-.1-.05-.21-.09-.34-.11l-.21-.03c-.47,0-.57,.38-.57,2.26,0,1.18,.24,2.74,.55,3.5l.6,1.5c.1,.24,.14,.48,.14,.71,0,2.08-2.81,5.4-5.76,6.82-1.15,.55-1.49,1.13-1.59,2.7,.49-.23,.69-.31,.99-.4,.84-.24,1.02-.35,1.14-.74l.11-.37c.05-.16,.16-.24,.74-.54,.22-.11,.38-.24,.45-.37,.15-.24,.26-.37,.34-.37,.08,0,.13,.05,.13,.15v.05s-.32,.81-.32,.81l-.04,.2c0,.59,.33,1.09,.94,1.4,.04-.15,.07-.26,.09-.34,.1-.43,.2-.72,.28-.85l.54-.79c.2-.29,.23-.48,.23-1.21l-.03-.89-.02-.23c0-.15,.07-.23,.2-.23,.1,0,.18,.04,.19,.09l.09,.54c.02,.11,.13,.2,.28,.2,.27,0,.63-.35,1-.99,.14-.25,.2-.44,.2-.68,0-.18-.04-.58-.09-.88v-.16c-.01-.14,.07-.23,.2-.23,.07,0,.13,.02,.14,.06l.2,.65c.07,.22,.22,.37,.37,.37,.44,0,.89-.89,.93-1.85,.03-.6,.1-.81,.29-.81,.07,0,.13,.03,.14,.07l.11,.37c.04,.13,.12,.23,.2,.23,.07,0,.22-.13,.39-.34,.1-.12,.18-.24,.26-.37,.06-.1,.09-.2,.09-.3,0-.14-.03-.18-.26-.35-.21-.16-.31-.36-.31-.6,0-.41,.18-.85,.68-1.73,.46-.8,.53-.89,.64-.89s.19,.1,.19,.24c0,.08-.02,.17-.06,.25-.08,.16-.12,.28-.12,.34,0,.11,.1,.2,.22,.2,.14,0,.32-.06,.52-.17,.12-.07,.38-.17,.77-.31,.53-.19,.85-.3,.96-.34,.18-.06,.38-.09,.59-.09,.16,0,.33,.02,.5,.06,.32,.08,.54,.12,.65,.12,.26,0,.46-.2,.46-.45,0-.11-.08-.33-.18-.49-.15-.24-.23-.37-.26-.4-.13-.13-.17-.2-.17-.25l.03-.12c.04-.07,.1-.11,.16-.11,.22,0,.66,.46,1.06,1.11,2.22,3.63,3.3,4.78,4.94,5.28,1.71,.52,2.11,.88,2.11,1.89,0,.54-.29,1.19-.89,2.02-1.14,1.58-1.54,2.5-1.54,3.54v.23c.14-.06,.25-.11,.32-.14,.23-.12,.38-.19,.45-.2l.71-.14c.22-.04,.4-.31,.4-.6v-.06s-.06-.63-.06-.63v-.1c0-.35,.17-.64,.38-.64,.08,0,.17,.07,.22,.17l.46,.96c.18,.4,.4,.58,.99,.85" fill="#ffe800"/><path d="M60.7,11.76l-.03,.46v.28c0,.46,.06,.66,.24,.66,.19,0,.48-.35,.62-.74,.08-.24,.14-.58,.14-.77,0-.14-.04-.26-.14-.54-.13-.31-.26-.46-.42-.46-.24,0-.36,.31-.41,1.11" fill="#ffe800"/><path d="M58.49,6.22v.25c0,.26-.08,.74-.2,1.2-.11,.4-.16,.62-.17,.65-.04,.16-.06,.34-.06,.52,0,.4,.19,.77,.48,.93l.31,.17,.06,.4c-.01,.16,.01,.37,.09,.63,.08,.28,.12,.57,.12,.86,0,.23-.02,.32-.07,.32-.11,0-.3-.29-.47-.73-.27-.69-.52-.94-.91-.94-.31,0-.51,.05-.88,.23,.3,.38,.48,.71,.82,1.48,.45,1.01,.63,1.21,1.33,1.56,.16,.08,.26,.18,.26,.26,0,.13-.1,.22-.26,.22-.06,0-.24-.03-.4-.06l-.21-.02c-.11,0-.16,.1-.16,.33,0,.75,.64,1.67,1.71,2.42,.14,.1,.23,.21,.23,.29,0,.04-.03,.09-.09,.13-.05,.04-.1,.06-.15,.06-.06,0-.19-.04-.33-.11-.09-.04-.16-.06-.21-.06-.13,0-.22,.13-.22,.33,0,.26,.19,.71,.52,1.24,.3,.48,.63,.81,.94,.94l1.28,.54c.07,.03,.11,.09,.11,.16,0,.1-.07,.19-.17,.21l-.23,.03-.25,.03-.34-.03h-.06c-.18,0-.25,.03-.25,.13,0,.13,.13,.42,.42,.92,.31,.54,.53,.8,.7,.8,.07,0,.14-.06,.18-.14l.31-.65c.04-.09,.3-.28,.74-.57,.27-.17,.54-.28,.79-.31,.68-.09,.74-.12,.74-.41,0-.1-.03-.28-.09-.56-.03-.14-.06-.34-.09-.6l-.06-.54-.06-.63c0-.16-.05-.23-.14-.23-.06,0-.16,.09-.23,.2-.33,.54-.83,.91-1.22,.91-1.59,0-2.67-2.53-2.67-6.24l.03-1.11,.09-1.34,.02-.47c0-1.14-.4-2.32-.98-2.91l-.4-.4-.26-.28h0Z" fill="#ffe800"/><path d="M62.15,26.98c-.6-.1-.69-.13-1.36-.43-.47-.2-.77-.28-1.07-.28-.45,0-.8,.14-1.21,.48l.26,.2,.57,.4,.54,.43c.14,.11,.31,.17,.48,.17,.56,0,1.03-.25,1.79-.97" fill="#ffe800"/><path d="M73.08,32.15c.16-.35,.23-.45,.57-.74,.79-.68,1.16-1.19,1.16-1.59v-.62c0-.37,.06-.48,.25-.48,.08,0,.15,.03,.18,.09l.14,.34c.03,.08,.13,.13,.24,.13,.2,0,.35-.15,.7-.72,.15-.24,.21-.4,.21-.56,0-.1-.02-.21-.07-.32-.02-.05-.09-.21-.2-.46-.06-.15-.12-.34-.12-.45,0-.19,.09-.29,.25-.29,.09,0,.16,.03,.2,.09l.23,.28c.05,.06,.06,.1,.15,.1,.1,0,.29-.1,.36-.24l.23-.45c.06-.11,.09-.2,.09-.26,0-.09-.09-.19-.23-.25l-.4-.17c-.47-.2-.85-1-.85-1.76,0-.08,.03-.21,.09-.37l.17-.48c.06-.16,.09-.32,.09-.47,0-.28-.09-.55-.28-.86-.2-.32-.31-.52-.34-.6-.16-.42-.27-.56-.41-.56-.1,0-.19,.04-.36,.14l-.28,.17-.4,.45-.4,.2c-.24,.12-.46,.64-.46,1.06,0,.61,.13,.95,1.06,2.6,.39,.7,.58,1.22,.58,1.62,0,1.16-1.18,2.11-3.11,2.5-2.3,.47-2.8,.85-3.07,2.33,.4-.21,.55-.23,1.26-.23h.42s.07,0,.07,0c.38,0,.43-.03,.67-.37,.28-.39,.55-.63,.94-.8l.45-.2,.37-.2,.11-.03c.1,0,.16,.04,.16,.12,0,.1-.09,.26-.27,.48-.27,.33-.43,.68-.43,.94,0,.38,.06,.57,.29,.91" fill="#ffe800"/><path d="M69.5,27.75c.33,.21,.66,.5,.85,.77,.27,.37,.31,.4,.58,.4,.11,0,.25-.02,.42-.06l.26-.06c.48-.09,.63-.16,.63-.29,0-.08-.04-.16-.12-.22l-.34-.28-.31-.28c-.19-.18-.59-.31-.9-.31-.35,0-.64,.09-1.06,.34" fill="#ffe800"/><path d="M78.7,29.28l.17-.03,.28-.03,.23,.03h.15c.29,0,.44-.02,.56-.11,.18-.13,.36-.35,.54-.65,.07-.12,.11-.23,.11-.32,0-.19-.18-.3-.49-.3-.78,0-1.26,.44-1.56,1.42" fill="#ffe800"/><path d="M28.25,89.28l.17-.34,.4-.43c.34-.36,.52-.87,.52-1.47,0-.29-.05-.61-.15-.92-.07-.23-.12-.42-.12-.5,0-.18,.13-.35,.27-.35,.06,0,.13,.05,.22,.14l.42,.48c.26,.3,.35,.35,.68,.43l.03-.4,.03-.47c0-.68-.25-1.44-.63-1.92-.23-.29-.33-.46-.33-.57s.08-.2,.16-.2c.03,0,.07,.02,.12,.06,.27,.2,.41,.29,.49,.29,.14,0,.26-.34,.26-.72,0-.54-.22-1.16-.58-1.59-.18-.22-.29-.36-.34-.43-.04-.05-.05-.11-.05-.16,0-.12,.1-.21,.24-.21,.11,0,.17,.03,.35,.14,.09,.06,.16,.09,.22,.09,.22,0,.3-.31,.3-1.16v-.35s-.04-.51-.04-.51c-.03-.6-.09-.71-.34-.71h-.23c-1.38,0-2.03-.88-2.38-3.24-.26-1.71-.9-2.92-1.68-3.18-.47-.16-.64-.26-.64-.38,0-.08,.13-.16,.27-.16,.1,0,.34,.06,.53,.14,1.13,.46,2.09,.68,2.92,.68,1.36,0,2.43-1,2.43-2.27,0-.97-.46-1.96-1.29-2.76-.23-.22-.47-.37-.71-.43h-.05s-.14,.04-.14,.04l.06,.41,.11,.28,.03,.12c0,.06-.06,.11-.13,.11-.08,0-.16-.04-.21-.11l-.51-.77c-.41-.61-1.29-1.11-1.95-1.11-.23,0-.38,.1-.38,.27,0,.08,.08,.23,.17,.33,.15,.16,.26,.36,.26,.45l-.03,.12c-.03,.06-.07,.11-.11,.11h-.03c-.14,0-.21-.06-.82-.77-.51-.58-1.54-1.14-2.09-1.14-.08,0-.15,.03-.21,.09-.04,.04-.06,.08-.06,.11,0,.09,.07,.2,.2,.32,.18,.16,.31,.35,.31,.43,0,.06-.07,.11-.16,.11-.16,0-.53-.23-1.2-.77-1.06-.83-1.53-1.62-1.53-2.53,0-1.1,.79-1.96,1.79-1.96,.59,0,1.37,.28,1.9,.68l1.39,1.05c.64,.48,1.42,.74,2.24,.74,.18,0,.34-.04,.49-.11,.12-.06,.2-.14,.2-.19,0-.04-.11-.09-.26-.12-.5-.12-.91-.29-1.19-.51l-1.42-1.08c-.52-.4-.9-.66-1.11-.77-.75-.39-.9-.49-.9-.57,0-.04,.07-.08,.16-.08,.08,0,.16,.02,.25,.06l.74,.31c.24,.1,.64,.34,1.19,.71,1.52,1.02,2.29,1.34,3.18,1.34s1.48-.6,1.48-1.42c0-.16-.04-.34-.12-.49l-.14-.28c-.05-.1-.14-.18-.17-.14l-.09,.11-.09,.6s-.03,.09-.09,.2c-.06,.12-.12,.21-.2,.28-.15,.15-.28,.2-.52,.2-.44,0-.93-.23-2.26-1.08-1.35-.86-2.56-1.31-3.52-1.31-2.04,0-3.69,1.65-3.69,3.68,0,2.85,1.73,4.13,7.18,5.32,2.07,.45,2.98,1.06,2.98,1.98,0,.84-.68,1.37-1.76,1.37-.33,0-.58-.02-.77-.06-.18-.04-1.16-.3-2.92-.79-1.22-.34-2.58-.53-3.79-.53-2.14,0-3.58,.64-4.56,2.01-.12,.16-.23,.26-.3,.26-.06,0-.14-.04-.24-.12l-.4-.31c-.28-.22-.72-.39-1.02-.39-.21,0-.42,.09-.6,.25-.14,.13-.25,.2-.29,.2-.16,0-.45-.36-.67-.82-.32-.67-.48-1.33-.48-1.93,0-.28,.09-.48,.21-.48,.1,0,.17,.08,.21,.23l.23,.82c.13,.46,.38,.83,.58,.83,.09,0,.24-.13,.41-.34,.1-.13,.18-.26,.23-.4,.18-.52,.22-.59,.36-.59,.17,0,.25,.1,.36,.62,.02,.09,.05,.24,.18,.48,.12,.22,.23,.39,.34,.51,.09,.09,.19,.15,.3,.15,.25,0,.48-.42,.48-.87v-.13s-.04-.52-.04-.52c0-.21,.03-.27,.15-.27,.07,0,.12,.04,.2,.14,.12,.16,.28,.29,.48,.4,.18,.09,.31,.14,.41,.14,.08,0,.18-.05,.28-.14,.08-.07,.12-.15,.12-.22,0-.08-.1-.21-.4-.51-.16-.16-.36-.55-.57-1.14-.08-.22-.18-.37-.27-.37-.02,0-.09,.02-.18,.06l-.37,.14-.26,.12-.1,.02c-.12,0-.22-.09-.22-.19,0-.11,.26-.42,.57-.68,.22-.19,.36-.46,.37-.77,.02-.47,.1-.85,.2-.85l.09-.99c.04-.5,.25-1.44,.42-1.96,.04-.1,.08-.17,.11-.17,.08,0,.15,.21,.15,.45v.14s-.03,.29-.03,.29c0,.36,.06,.54,.17,.54,.12,0,.26-.18,.39-.49l.26-.65c.08-.19,.11-.37,.11-.53,0-.55-.33-.95-.79-.95l-.21,.03c-.11,.04-.18,.06-.2,.06-.15,0-.27-.16-.27-.36l.02-.41-.03-.57-.11-.59-.03-.29-.25,.14-.31,.25-.46,.37-.37,.31c-.06,.05-.14,.09-.21,.09-.22,0-.24-.06-.24-.5v-.11c0-.36-.15-.64-.74-1.32-.03-.04-.08-.1-.14-.17l-.11,.2-.31,.51-.31,.79-.06,.51c-.01,.15-.07,.26-.13,.26-.06,0-.16-.07-.27-.2-.44-.49-.57-.59-1.22-.82l-.06,.2c-.1,.34-.16,.54-.17,.6l-.03,.54v.41c0,.15-.06,.25-.15,.25h-.02s-.07-.06-.17-.15c-.07-.06-.19-.09-.34-.09-.53,0-.87,.29-.87,.74,0,.34,.12,.59,.64,1.39,.23,.35,.5,.63,.61,.63,.07,0,.13-.19,.13-.4l-.05-.34c-.05-.16-.08-.31-.08-.43,0-.16,.04-.25,.13-.25,.26,0,.52,.74,.63,1.76l.11,1.05c.04,.37,.16,.76,.34,1.14,.26,.53,.51,.89,.74,1.05,.27,.19,.44,.38,.44,.48,0,.09-.07,.17-.15,.17,0,0-.2-.07-.57-.2l-.24-.04c-.57,0-.76,.32-.76,1.3,0,1.18,.79,2.88,1.68,3.59l1.31,1.05c.66,.53,1.17,1.42,1.17,2.05,0,.83-.91,1.65-2.47,2.21l-.94,.34c-.73,.27-1.02,.73-1.31,2.1,.37-.11,.53-.14,.78-.14h.13s.42,.01,.42,.01c.38,0,.65-.23,.65-.55v-.26c0-.08,.11-.18,.26-.26,.26-.12,.39-.19,.4-.2l.31-.25s.11-.06,.16-.06c.09,0,.15,.08,.15,.17,0,.07-.02,.16-.06,.26-.1,.25-.15,.59-.15,.98,0,.7,.11,1.07,.46,1.58,.03-.19,.06-.31,.09-.37,.06-.14,.22-.4,.48-.77,.43-.6,.75-1.33,.75-1.73v-.12s-.09-.65-.09-.65c0-.12,.05-.23,.14-.31,.06-.06,.13-.09,.19-.09,.12,0,.19,.07,.29,.28,.07,.16,.15,.26,.2,.26,.1,0,.29-.26,.42-.57,.09-.22,.14-.43,.14-.6,0-.1-.03-.23-.09-.37-.06-.14-.09-.25-.09-.32s.02-.11,.12-.19c.04-.04,.09-.06,.14-.06,.05,0,.11,.02,.17,.06l.26,.17c.09,.06,.16,.09,.23,.09,.12,0,.28-.13,.4-.32,.25-.38,.4-.69,.4-.81,0-.07-.05-.13-.21-.24-.56-.4-.94-1-.94-1.52,0-.12,.03-.26,.09-.41l.28-.77c.14-.39,.22-.59,.23-.6l.08-.03c.1,0,.16,.08,.16,.22,0,.09-.02,.2-.07,.33-.07,.19-.12,.41-.12,.54,0,.2,.1,.31,.3,.31,.14,0,.3-.04,.47-.11,.86-.37,1.54-.57,1.95-.57,.39,0,.63,.09,1.03,.37,.11,.07,.2,.11,.26,.11,.05,0,.11-.04,.16-.11,.04-.05,.06-.1,.06-.14,0-.1-.06-.24-.17-.37-.15-.18-.2-.29-.2-.4,0-.09,.06-.15,.16-.15,.44,0,1.14,1.41,1.81,3.64,.53,1.76,.67,1.94,2.36,2.89,1.43,.81,1.97,1.6,1.97,2.9s-.35,2.91-1.09,5.05c-.23,.68-.33,1.14-.33,1.52,0,.3,.06,.59,.28,1.35,.1,.37,.17,.58,.2,.65,.03,.09,.11,.23,.23,.43" fill="#ffe800"/><path d="M21.66,85.3c.17-.39,.22-.49,.54-.96,.46-.69,.63-1.06,.63-1.39v-.45c0-.43,.08-.63,.24-.63,.06,0,.12,.03,.15,.09l.14,.23c.04,.07,.12,.12,.2,.12s.24-.11,.32-.24c.21-.31,.33-.71,.33-1.02l-.03-.31-.03-.32c0-.17,.07-.24,.23-.24,.11,0,.16,.04,.25,.26,.06,.14,.15,.23,.22,.23,.08,0,.17-.06,.24-.17l.23-.34,.17-.26,.04-.14c0-.08-.06-.15-.21-.26-.53-.38-.76-.96-.8-2.02-.03-.8-.08-1.32-.14-1.56-.02-.05-.19-.46-.51-1.22-.13-.3-.24-.64-.34-1.02-.07-.26-.15-.34-.36-.34-.77,0-1.35,.66-1.35,1.53,0,.51,.21,1.32,.6,2.3,.55,1.38,.69,1.87,.69,2.36,0,1.04-.42,1.5-1.86,2.02-1.63,.58-2.39,1.42-2.67,2.92,.13-.05,.22-.09,.28-.11,.18-.07,.32-.12,.4-.14l.45-.11c.39-.1,.7-.32,.77-.54l.11-.4c.03-.09,.08-.16,.17-.2l.25-.12,.26-.11,.06,.11-.11,.37c-.04,.12-.06,.35-.06,.66,0,.62,.12,.99,.48,1.44" fill="#ffe800"/><path d="M6.41,59.04c.04,.16,.05,.27,.05,.32,0,.09-.04,.33-.11,.73l-.05,.58c0,.51,.09,1.05,.25,1.5,.15,.41,.19,.54,.19,.65v.12c-.04,.12-.08,.2-.12,.2-.05,0-.16-.06-.29-.18-.33-.28-.68-.43-1.05-.43-.12,0-.28,.02-.48,.06l.14,.31,.43,1.05,.6,.91,.62,.42c.06,.04,.12,.1,.17,.17,.06,.08,.09,.14,.09,.19,0,.05-.05,.09-.12,.1l-.57,.03c-.09,0-.16,.06-.16,.12,0,.09,.08,.38,.24,.85l.28,.82,.48,.45,.51,.37c.15,.11,.24,.23,.24,.33,0,.07-.05,.15-.1,.16l-.28,.03c-.09,.01-.14,.09-.14,.23,0,.21,.2,.6,.57,1.11,.44,.6,.75,.79,1.25,.79h.43c.2,0,.33,.1,.33,.26,0,.13-.09,.21-.27,.25-.4,.08-.51,.16-.51,.34,0,.07,.05,.18,.14,.31l.23,.31c.19,.26,.4,.43,.54,.43,.08,0,.26-.08,.41-.26,.25-.29,.55-.53,.92-.62,.99-.25,1.19-.35,1.19-.58,0-.08-.04-.2-.11-.33-.31-.56-.42-.93-.42-1.39,0-.35-.09-.6-.22-.6-.05,0-.14,.09-.23,.23-.23,.36-.63,.6-.99,.6-.98,0-2.17-1.54-2.76-3.58-.14-.47-.21-1.01-.21-1.53s.07-1.14,.21-1.73c.19-.83,.29-1.3,.31-1.39l.04-.38c0-.7-.65-1.61-1.65-2.31" fill="#ffe800"/><path d="M8.45,62.98c-.21,.4-.4,1.28-.4,1.85,0,.33,.11,.59,.25,.59,.05,0,.1-.05,.15-.14l.31-.57c.05-.1,.1-.19,.2-.35,.11-.17,.2-.33,.2-.42,0-.33-.31-.75-.71-.96" fill="#ffe800"/><path d="M11.58,75.79c.06,.06,.11,.11,.14,.14,.12,.12,.2,.2,.23,.23,.55,.57,.64,.63,.9,.63,.25,0,.77-.14,1.06-.29,.12-.06,.2-.14,.2-.19,0-.04-.1-.15-.28-.32l-.31-.28c-.24-.22-.59-.41-.76-.41-.32,0-.66,.15-1.18,.5" fill="#ffe800"/><path d="M18.17,80.93c.3,.13,.41,.18,.57,.28,.26,.17,.41,.26,.45,.28,.09,.04,.24,.06,.45,.06,.13,0,.25-.02,.35-.06l.6-.23,.57-.2c.15-.06,.26-.14,.26-.22,0-.04-.13-.1-.32-.15-.13-.03-.27-.08-.42-.14-.7-.28-.8-.32-1.05-.32-.56,0-1.12,.27-1.45,.69" fill="#ffe800"/><path d="M25.35,86.64c.19-.46,.32-.54,.96-.57,.73-.04,1.42-1.35,1.42-2.23,0-.09-.03-.16-.07-.16-.04,0-.1,.03-.19,.09-.21,.14-.35,.22-.43,.26l-.82,.37c-.55,.24-1.03,.97-1.03,1.55,0,.19,.04,.36,.15,.69" fill="#ffe800"/><path d="M77.11,79.85l.11-.31,.11-.4c.02-.07,.13-.24,.31-.48,.29-.38,.43-.86,.43-1.41,0-.18-.04-.34-.15-.55-.06-.11-.09-.2-.09-.26,0-.04,.02-.09,.06-.13,.04-.05,.08-.08,.11-.09h.02c.07,0,.2,.08,.29,.2,.12,.14,.23,.23,.29,.23,.13,0,.26-.22,.33-.54,.04-.17,.06-.26,.06-.28,0-.14-.11-.5-.26-.8-.05-.11-.08-.21-.08-.29,0-.1,.07-.18,.16-.18,.08,0,.22,.09,.38,.24,.08,.07,.15,.11,.21,.11,.18,0,.31-.18,.44-.63,.08-.28,.12-.4,.12-.44,0-.08-.04-.13-.1-.13h-.1s-.34,.04-.34,.04c-.52,0-1.25-.36-1.59-.77l-.79-.96c-.31-.37-.73-.94-.71-.94l-.65-.43c-.11-.07-.17-.16-.17-.23,0-.11,.11-.18,.27-.18,.15,0,.62,.17,1.46,.52,.82,.35,2.1,.63,2.88,.63,1.36,0,2.48-1.1,2.48-2.43,0-.73-.33-1.41-1.13-2.34-.15-.18-.41-.35-.52-.35-.09,0-.16,.07-.16,.16,0,.08,.03,.19,.09,.32,.04,.09,.06,.18,.06,.26,0,.13-.05,.21-.14,.21-.18,0-.37-.29-.52-.81-.19-.63-.56-1.01-1.42-1.45-.33-.17-.76-.32-.9-.32-.05,0-.09,.05-.09,.13,0,.11,.04,.22,.11,.34,.13,.19,.2,.38,.23,.54v.03c0,.11-.05,.17-.16,.17-.18,0-.22-.05-.64-.68-.21-.33-.78-.76-1.28-.97-.16-.07-.32-.1-.48-.11h-.02c-.1,0-.18,.05-.18,.11,0,.02,.04,.11,.13,.26l.04,.16c0,.09-.06,.15-.13,.15-.17,0-.7-.43-1.12-.91-.45-.52-.74-1.18-.74-1.7,0-1.09,1.04-2.05,2.2-2.05,.29,0,.54,.05,.73,.14l.99,.51,1.17,.77c.67,.44,1.59,.77,2.14,.77,.21,0,.36-.03,.89-.18,.28-.08,.45-.19,.45-.29v-.02s-.11-.06-.11-.06l-.63-.05c-.35-.03-1.13-.39-1.76-.8l-1.31-.85-1.16-.48c-.09-.03-.14-.09-.14-.15,0-.06,.06-.11,.13-.11,0,0,.11,.02,.32,.06l1.08,.31c.27,.08,.71,.28,1.31,.6,1.19,.63,1.96,.91,2.53,.91,.65,0,1.14-.45,1.14-1.06,0-.21-.05-.54-.11-.81-.03-.13-.09-.26-.17-.37-.05-.07-.1-.11-.14-.11-.08,0-.13,.09-.13,.24v.19s.03,.17,.03,.17c0,.52-.21,.71-.78,.71-.47,0-1.1-.19-2.55-.76-1.35-.54-2.2-.74-3.04-.74-2.14,0-4.01,1.75-4.01,3.74,0,1.72,1.14,3.03,3.47,3.99l2.41,.99c1.99,.82,2.73,1.41,2.73,2.18,0,.65-.6,1.07-1.54,1.07-.41,0-.91-.11-1.84-.41-2.26-.72-3.73-1.02-5.02-1.02-2.11,0-3.61,.58-4.8,1.84-.16,.17-.25,.22-.39,.22-.09,0-.19-.04-.4-.16-.22-.13-.45-.2-.63-.2-.21,0-.53,.18-.68,.37l-.28,.37c-.08,.11-.18,.17-.25,.17-.21,0-.57-.35-.8-.77-.14-.26-.24-.5-.28-.74-.04-.18-.06-.47-.06-.78l.03-.53,.09-.57c.04-.27,.07-.43,.09-.48,.02-.07,.08-.11,.14-.11,.15,0,.21,.13,.21,.45v.18s-.01,.13-.01,.13c0,.81,.32,1.55,.67,1.55,.28,0,.52-.49,.73-1.48,.04-.2,.12-.31,.22-.31,.11,0,.18,.14,.27,.57,.05,.27,.23,.66,.43,.91,.11,.15,.23,.23,.33,.23,.23,0,.38-.35,.5-1.17,.04-.31,.14-.51,.25-.51,.04,0,.09,.02,.12,.06,.02,.02,.09,.13,.2,.31,.07,.12,.18,.22,.31,.28,.14,.07,.26,.11,.33,.11,.09,0,.19-.04,.27-.11,.13-.11,.2-.2,.2-.23,0-.04-.06-.13-.17-.25-.19-.2-.33-.47-.51-.94-.12-.31-.2-.53-.25-.65-.05-.1-.1-.17-.14-.2l-.09-.02-.17,.02s-.23,.06-.6,.17l-.18,.03c-.08,0-.13-.05-.13-.13,0-.08,.1-.21,.23-.32,.72-.57,1.15-1.53,1.31-2.93,.1-.84,.21-1.17,.57-1.68,.08-.11,.14-.17,.18-.17,.11,0,.17,.09,.17,.25,0,.11-.03,.25-.09,.4-.04,.11-.06,.23-.06,.35v.11s.06,.17,.06,.17l.31-.11,.34-.4c.2-.23,.37-.77,.37-1.16,0-.27-.07-.46-.23-.66-.18-.21-.3-.3-.43-.3h-.19s-.2,.03-.2,.03c-.19,0-.27-.05-.27-.17l.05-.22,.03-.31-.17-.71-.14-.34-.09-.28-.2,.14-.43,.26c-.11,.07-.22,.17-.34,.31-.41,.49-.43,.51-.59,.51-.1,0-.16-.04-.16-.11v-.12c.07-.26,.1-.46,.1-.59,0-.49-.36-1.24-.8-1.65-.59,.57-.91,1.19-.91,1.79v.34c0,.13-.04,.2-.13,.2h-.01c-.07-.01-.14-.06-.2-.14l-.34-.46s-.18-.16-.45-.37c-.05-.04-.13-.11-.23-.2l-.11,.22c-.28,.56-.38,.9-.4,1.36-.01,.38-.05,.49-.13,.49-.04,0-.1-.02-.18-.06-.43-.24-.47-.26-.66-.26-.51,0-.86,.37-.86,.9,0,.21,.12,.53,.35,.94,.26,.46,.65,.89,.82,.89,.05,0,.06-.04,.06-.18v-.06s-.03-.48-.03-.48l-.06-.37v-.05c0-.11,.04-.16,.13-.16,.26,0,.48,.75,.67,2.25,.17,1.32,.53,2.23,1.11,2.76,.15,.13,.23,.24,.23,.31,0,.05-.05,.09-.11,.09-.08,0-.21-.05-.37-.14-.1-.06-.21-.09-.31-.09-.28,0-.6,.33-.66,.68l-.26,1.62-.2,2.27c-.04,.43,.02,1.01,.17,1.7,.13,.61,.2,1.06,.2,1.35,0,1.7-1.06,3.05-2.81,3.57l-1.82,.54c-1.13,.34-1.69,1.08-1.85,2.47,.29-.23,.38-.27,.82-.34l.54-.09c.23-.04,.39-.09,.48-.14,.05-.03,.15-.14,.31-.31l.48-.54c.18-.21,.34-.32,.45-.32,.07,0,.12,.07,.12,.16,0,.11-.07,.27-.2,.47-.14,.21-.21,.46-.21,.73,0,.36,.1,.59,.46,1.11,.05-.17,.09-.28,.11-.34,.05-.09,.19-.29,.43-.59,.39-.51,.68-1.04,.68-1.28,0-.44,.05-.58,.16-.58,.1,0,.11,.02,.16,.27,.01,.06,.04,.12,.09,.17,.07,.07,.13,.12,.18,.12,.03,0,.11-.04,.22-.12,.2-.13,.35-.27,.45-.4,.12-.15,.21-.32,.29-.51,.09-.25,.14-.43,.14-.53v-.37c0-.1,.04-.18,.09-.18,.07,0,.21,.15,.31,.31,.06,.11,.1,.14,.18,.14h.02c.1-.01,.19-.05,.26-.12,.35-.34,.57-.75,.57-1.06l-.03-.53-.11-.42v-.04c0-.09,.06-.16,.13-.16,.13,0,.27,.18,.46,.6,.09,.2,.18,.29,.26,.29,.13,0,.24-.1,.51-.49l.26-.37c.05-.08,.09-.18,.09-.29,0-.1-.03-.2-.09-.28l-.23-.34c-.04-.06-.06-.16-.06-.29,0-.38,.14-.82,.43-1.33,.21-.37,.33-.61,.37-.71,.04-.12,.09-.17,.16-.17,.05,0,.1,.07,.1,.15l-.03,.31v.45c.04,.1,.11,.15,.25,.15,.09,0,.19-.02,.29-.06l.71-.26c.17-.06,.39-.16,.65-.31,1.11-.61,1.46-.74,2-.74,.33,0,.75,.13,1.35,.4,.12,.06,.22,.09,.29,.09,.08,0,.17-.05,.25-.14,.05-.07,.09-.14,.09-.22,0-.1-.04-.23-.11-.35-.09-.16-.17-.35-.17-.42,0-.08,.05-.12,.13-.12,.06,0,.16,.07,.21,.15,.09,.13,.3,.51,.65,1.14,.53,.94,1.22,1.59,1.82,1.73l1.25,.28c.39,.09,.49,.24,.49,.72,0,.88-.42,1.66-1.14,2.12l-1.02,.65c-.37,.24-.68,.89-.68,1.43,0,.35,.09,.97,.2,1.46l.2-.2,.48-.28,.43-.43,.23-.62,.23-.57c.11-.28,.24-.46,.33-.46,.1,0,.16,.15,.16,.43v.08s0,.1,0,.1c0,.41,.05,.59,.37,1.2" fill="#ffe800"/><path d="M60.33,88.45c.35-.32,.4-.34,1.36-.54,.78-.16,1.14-.51,1.31-1.28,.12-.57,.2-.67,.71-.97,.17-.09,.29-.19,.37-.28,.06-.07,.11-.11,.14-.11,.06,0,.1,.06,.1,.13,0,.1-.06,.26-.18,.47-.08,.13-.11,.31-.11,.54,0,.46,.09,.77,.34,1.13,.17-.38,.27-.48,.71-.8,.56-.4,.78-.85,.88-1.87,.04-.43,.13-.66,.24-.66,.05,0,.1,.04,.13,.09l.2,.43c.03,.05,.09,.09,.18,.09s.23-.09,.36-.21l.4-.37c.17-.16,.28-.55,.34-1.19,.02-.24,.1-.4,.2-.4,.06,0,.12,.06,.14,.14l.17,.57c.04,.13,.12,.23,.2,.23,.04,0,.12-.05,.23-.14,.15-.13,.29-.27,.4-.43,.13-.18,.2-.38,.2-.57v-.48c0-.1,.04-.22,.11-.31,.05-.07,.1-.11,.13-.11,.06,0,.13,.06,.16,.14l.11,.31c.05,.14,.16,.23,.27,.23,.15,0,.3-.13,.53-.46,.07-.09,.12-.17,.17-.23,.13-.16,.2-.28,.2-.36,0-.04-.04-.11-.11-.21-.41-.54-.63-1.19-.63-1.93,0-.94,.36-1.74,1.45-3.21,.65-.88,1.02-1.7,1.02-2.27,0-.16-.07-.24-.22-.24-.1,0-.21,.03-.34,.11-.11,.06-.18,.09-.22,.09-.05,0-.12-.04-.18-.11l-.2-.23-.14-.23c-.06-.09-.14-.14-.23-.14-.02,0-.09,.02-.22,.06l-.26,.03c-.29,.01-.4,.12-.4,.4v.17s.01,.13,.01,.13c0,.25-.22,.63-.52,.9l-.54,.48c-.66,.59-1.18,1.54-1.18,2.17,0,.27,.09,.71,.24,1.23,.25,.85,.35,1.25,.35,1.53,0,1.36-2.08,3.16-5.94,5.12-1.96,.99-2.45,1.58-2.45,2.93l.03,.5h0Z" fill="#ffe800"/><path d="M58.46,58.67v.71c0,.15,0,.26-.06,.46-.09,.39-.11,.53-.11,.64,0,.55,.08,.81,.4,1.37,.18,.31,.29,.68,.29,.96,0,.11-.05,.18-.12,.18-.05,0-.1-.03-.14-.09l-.23-.31c-.18-.25-.35-.32-.81-.32l-.49,.03c.2,.49,.26,.67,.34,.99,.23,.93,.26,.99,.76,1.45,.51,.46,.55,.52,.55,.68,0,.13-.09,.23-.2,.23l-.19-.03h-.11c-.15-.01-.29,.27-.29,.59,0,.18,.07,.47,.18,.72,.07,.17,.14,.28,.2,.34l.28,.28c.07,.07,.11,.18,.11,.29,0,.14-.08,.25-.17,.25-.06,0-.14-.03-.25-.09-.07-.04-.14-.06-.2-.06-.13,0-.19,.08-.19,.23l.05,.42,.17,.74c.04,.16,.14,.35,.31,.54,.14,.17,.29,.28,.43,.34,.36,.16,.55,.24,.57,.26,.05,.04,.08,.12,.08,.23,0,.11-.08,.2-.19,.2-.03,0-.13-.02-.29-.06l-.29-.03c-.29,0-.31,.02-.31,.24,0,.14,.02,.29,.06,.44l.11,.46c.12,.48,.28,.74,.45,.74,.04,0,.11-.04,.21-.11,.41-.31,1.23-.59,1.75-.59s1.14,.06,1.37,.14c.13,.04,.22,.07,.27,.07,.07,0,.09-.07,.1-.32l.06-.51,.11-.88,.09-.65v-.37c-.1,.09-.18,.15-.23,.2-.49,.45-.79,.6-1.29,.6-1.31,0-2.06-1.47-2.06-4.03,0-1.06,.16-2.55,.45-4.26,.06-.36,.09-.61,.09-.79,0-.93-.59-1.85-1.62-2.51" fill="#ffe800"/><path d="M60.39,65.03l.26-.25,.26-.23c.21-.18,.38-.58,.38-.87,0-.13-.03-.26-.1-.4-.1-.21-.29-.4-.4-.4-.1,0-.19,.24-.22,.6l-.06,.43-.09,.43-.03,.43v.28h0Z" fill="#ffe800"/><path d="M57.89,76.64c.29,.11,.35,.16,.65,.51,.39,.46,.61,.57,1.13,.57,.14,0,.27-.02,.4-.06l.37-.11,.28-.09c.14-.04,.23-.1,.23-.15,0-.06-.22-.25-.57-.48-.23-.15-.45-.29-.68-.4-.25-.12-.45-.18-.65-.18-.4,0-.79,.12-1.17,.37" fill="#ffe800"/><path d="M61.75,84.96c.5-.22,.68-.31,1.25-.62,.5-.28,.77-.43,.82-.46,.53-.28,.77-.47,.77-.62,0-.19-.32-.3-.87-.3-1.1,0-2,.75-2,1.67l.03,.32h0Z" fill="#ffe800"/><path d="M73.28,77.75c.4-.08,.54-.19,.74-.2l.51,.03c.06-.02,.18-.1,.34-.22,.09-.07,.22-.17,.4-.28,.57-.39,.6-.41,.6-.54,0-.16-.23-.23-.71-.23-.9,0-1.44,.42-1.88,1.45" fill="#ffe800"/><path d="M15.07,9.32l-.14-.4-.04-.23c0-.23,.12-.36,.44-.48,.56-.21,.74-.31,.96-.51l.31-.28h.03c.08,0,.14,.08,.14,.2,0,.36-.39,1.03-.79,1.71-.29,.5-.43,.82-.55,.82-.14,0-.28-.22-.31-.48l-.06-.34h0Z" fill="#1d1d1b"/><path d="M13.4,8.18l.48,.26c.13,.07,.2,.16,.2,.27l-.03,.18c-.07,.24-.02,.5-.02,.61-.02,.51-.41,.5-.56,.5-.09,0-.04-.06-.27-.31l-.63-.71c-.19-.22-.36-.71-.43-1.28v-.07c0-.15,.04-.21,.17-.21,.08,0,.22,.06,.32,.14l.77,.63h0Z" fill="#1d1d1b"/><path d="M15.1,11.14l.45-.28,.27,.06c.31,0,.39,.09,.39,.44,0,.5-.32,.72-.88,2.14-.25,.63-.3,.99-.67,.99-.42,0-.73-.34-1.06-1.14l-.37-.91c-.26-.64-.38-1.03-.38-1.26,0-.22,.17-.36,.42-.36,.14,0,.28,.04,.41,.12,.22,.13,.33,.2,.34,.2l.33,.03h.15s.6-.03,.6-.03h0Z" fill="#1d1d1b"/><path d="M68.15,9.41l-.23-.49-.04-.23c0-.24,.1-.35,.47-.48,.36-.13,.75-.34,.94-.51l.31-.28h.03c.08,0,.14,.08,.14,.2,0,.36-.33,.93-.73,1.62-.29,.5-.48,.91-.6,.91-.14,0-.28-.22-.31-.48l.04-.25h0Z" fill="#1d1d1b"/><path d="M66.38,8.18l.48,.26c.14,.07,.22,.19,.22,.33l-.02,.12-.14,.51-.09,.57c0,.07-.07,.12-.15,.12h-.02c-.12-.04-.42-.17-.62-.39l-.43-.72c-.06-.07-.23-.35-.37-.79-.05-.16-.09-.33-.11-.48v-.08c0-.14,.04-.21,.17-.21,.07,0,.22,.06,.31,.14l.77,.63h0Z" fill="#1d1d1b"/><path d="M68.11,11.14l.42-.28,.17-.04c.31,0,.67,.32,.67,.64,0,.28-.38,.45-.53,.84l-.31,1.28c-.23,.61-.53,.91-.89,.91-.43,0-.75-.34-1.06-1.13-.15-.37-.27-.67-.37-.91-.24-.56-.36-.97-.36-1.18,0-.28,.16-.44,.42-.44,.13,0,.27,.04,.4,.12,.21,.13,.33,.19,.34,.2l.33,.03h.15s.63-.03,.63-.03h0Z" fill="#1d1d1b"/><path d="M12.69,61.25l-.14-.43-.03-.13s.05-.08,.12-.08,.22,.08,.34,.17c.13,.1,.2,.09,.4,.14,.77,.2,.94,.34,.94,.72l-.03,.47-.11,.43c-.05,.18-.1,.25-.18,.25-.06,0-.55-.36-.61-.45l-.28-.4-.4-.71h0Z" fill="#1d1d1b"/><path d="M16.12,61.96l-.37,.66c-.09,.1-.14,.15-.14,.16h-.03c-.15,0-.31-.34-.32-.7l-.05-.57c.04-.23,.18-.33,.54-.4,.29-.05,.48-.11,.57-.17,.27-.19,.42-.3,.45-.31h.04c.08,0,.13,.04,.13,.13v.04s-.21,.48-.21,.48l-.63,.68h0Z" fill="#1d1d1b"/><path d="M15.38,63.89l.45-.22c.08-.04,.15-.06,.22-.06,.22,0,.39,.16,.39,.46,0,.32-.25,.76-.6,1.39-.37,.67-.66,1.13-.95,1.13-.41,0-.99-.65-1.55-1.73-.13-.26-.22-.56-.22-.79,0-.36,.16-.55,.46-.55,.12,0,.24,.03,.32,.09l.26,.17c.22,.15,.48,.23,.72,.23,.18,0,.35-.04,.5-.12" fill="#1d1d1b"/><path d="M64.7,60.46l.4,.26c.23,.15,.42,.25,.57,.31,.44,.18,.6,.24,.6,.41,0,.06-.02,.21-.06,.32-.04,.13-.07,.26-.09,.4-.04,.39-.27,.48-.43,.48-.19,0-.39-.29-.71-.85-.14-.25-.35-.76-.45-1.14l-.02-.11c0-.07,.04-.11,.12-.11l.07,.02h0Z" fill="#1d1d1b"/><path d="M68.54,61.45l-.65,.66c-.23,.31-.23,.57-.28,.63-.04,.04-.11,.07-.2,.09h-.04c-.17,0-.29-.11-.3-.28l-.03-.48-.03-.48v-.03c0-.19,.1-.28,.25-.31l.6-.17,.63-.31c.18-.09,.24-.11,.27-.11,.08,0,.13,.07,.13,.16,0,.04-.02,.1-.06,.18l-.29,.48h0Z" fill="#1d1d1b"/><path d="M65.67,63.38l.43,.32c.1,.06,.24,.1,.38,.1,.17,0,.43-.07,.67-.18l.37-.17c.09-.04,.16-.06,.22-.06,.22,0,.41,.24,.41,.54,0,.42-.3,.85-.74,1.48l-.31,.65c-.25,.36-.41,.48-.62,.48-.34,0-.5-.19-1-1.19-.36-.72-.51-1.16-.51-1.5,0-.3,.16-.51,.38-.51,.09,0,.21-.02,.33,.05" fill="#1d1d1b"/><path d="M14.47,11.96h-.37c-.05,0-.11,.03-.14,.09l-.06,.14,.14,.68,.11,.6c.06,.33,.18,.46,.43,.46,.28,0,.45-.19,.48-.54l.06-.62c.04-.42,.06-.63,.06-.65,0-.06-.03-.12-.09-.17-.04-.04-.09-.06-.14-.06h-.03s-.46,.09-.46,.09h0Z" fill="#ffe800"/><path d="M67.46,11.96h-.34c-.05,0-.1,.03-.14,.09-.05,.08-.09,.13-.09,.14l.14,.68,.11,.6c.06,.33,.12,.46,.36,.46,.28,0,.51-.19,.55-.54l.06-.62c.04-.42,.06-.63,.06-.65,0-.06-.03-.12-.09-.17-.04-.04-.09-.06-.14-.06h-.03s-.45,.09-.45,.09h0Z" fill="#ffe800"/><path d="M14.73,64.57l-.31-.06h-.05c-.18,0-.27,.1-.27,.31,0,.29,.22,.82,.52,1.23,.05,.07,.13,.12,.22,.12,.18,0,.31-.35,.41-.91l.09-.43v-.08c0-.18-.04-.24-.19-.24h-.07s-.34,.06-.34,.06h0Z" fill="#ffe800"/><path d="M66.04,64.94l.03,.54c.01,.25,.22,.49,.41,.49,.26,0,.45-.39,.55-1,.05-.27,.07-.32,.07-.4,0-.21-.07-.27-.34-.27h-.15s-.2,0-.2,0h-.13c-.18,0-.24,.13-.24,.5v.13h0Z" fill="#ffe800"/><path d="M34.07,37.43h3.01c.34-.72,.8-1.03,1.52-1.03s1.17,.3,1.57,1.03h2.46c.3-.65,.89-1.03,1.61-1.03,.67,0,1.32,.43,1.54,1.03h2.29c.35-.67,.88-1.03,1.5-1.03s1.15,.29,1.53,.86l.11,.17h3.18v14.72h-2.78v5.64h-3.26v-5.64h-8.25v5.64h-3.26v-5.7h-2.78v-14.66h0Z" fill="#1d1d1b"/><polygon points="35.25 51.01 53.31 51.01 53.31 38.64 35.25 38.64 35.25 51.01 35.25 51.01" fill="#e41713"/><path d="M37.13,41.47c-.47,0-.86,.39-.86,.86s.38,.86,.86,.86,.86-.39,.86-.86-.38-.86-.86-.86" fill="#ffe800"/><path d="M37.13,41.47c-.47,0-.86,.39-.86,.86s.38,.86,.86,.86,.86-.39,.86-.86-.38-.86-.86-.86h0Z" fill="none" stroke="#1d1d1b" stroke-width=".23"/><path d="M51.31,41.47c-.48,0-.86,.39-.86,.86s.38,.86,.86,.86,.86-.39,.86-.86-.38-.86-.86-.86" fill="#ffe800"/><path d="M51.31,41.47c-.48,0-.86,.39-.86,.86s.38,.86,.86,.86,.86-.39,.86-.86-.38-.86-.86-.86h0Z" fill="none" stroke="#1d1d1b" stroke-width=".23"/><path d="M37.13,48.2c-.47,0-.86,.39-.86,.86s.4,.86,.89,.86c.46,0,.83-.38,.83-.86s-.38-.86-.86-.86" fill="#ffe800"/><path d="M37.13,48.2c-.47,0-.86,.39-.86,.86s.4,.86,.89,.86c.46,0,.83-.38,.83-.86s-.38-.86-.86-.86h0Z" fill="none" stroke="#1d1d1b" stroke-width=".23"/><path d="M51.31,48.2c-.48,0-.86,.39-.86,.86s.38,.86,.86,.86,.86-.38,.86-.86-.38-.86-.86-.86" fill="#ffe800"/><path d="M51.31,48.2c-.48,0-.86,.39-.86,.86s.38,.86,.86,.86,.86-.38,.86-.86-.38-.86-.86-.86h0Z" fill="none" stroke="#1d1d1b" stroke-width=".23"/><path d="M39.82,45.59c1.17,1.46,2.63,2.18,4.45,2.18,1.68,0,2.84-.6,4.2-2.18-1.36-1.39-2.62-1.98-4.28-1.98-1.75,0-3.32,.71-4.37,1.98" fill="#ffe800"/><path d="M40.68,45.59c1.2-.93,2.21-1.32,3.46-1.32s2.21,.37,3.44,1.35c-1.07,1.06-2.01,1.46-3.46,1.46-1.28,0-2.45-.5-3.45-1.49" fill="#1d1d1b"/><path d="M42.14,45.3c.72,.45,1.29,.63,1.96,.63,.79,0,1.45-.2,2.08-.63-.67-.32-1.36-.49-2.05-.49s-1.39,.16-1.99,.49" fill="#ffe800"/><line x1="35" y1="39.58" x2="53.56" y2="39.58" fill="none" stroke="#1d1d1b" stroke-width=".63"/><polygon points="35 39.9 53.56 39.9 53.56 39.27 35 39.27 35 39.9 35 39.9" fill="none" stroke="#1d1d1b" stroke-width=".08"/><path d="M37.85,38.46v1.78c0,.42,.33,.74,.77,.74,.5,0,.78-.27,.78-.74v-1.75c0-.68-.27-1.09-.72-1.09-.09,0-.23,.04-.34,.09-.09,.04-.16,.08-.2,.11-.07,.06-.13,.13-.17,.23-.08,.15-.12,.26-.12,.32v.31h0Z" fill="#ffe800"/><path d="M43.43,39.92v.32c0,.42,.33,.74,.76,.74,.5,0,.78-.27,.78-.74v-1.75c0-.67-.28-1.1-.71-1.1-.51,0-.84,.42-.84,1.07v1.46h0Z" fill="#ffe800"/><path d="M48.84,38.46v1.78c0,.42,.33,.74,.77,.74,.5,0,.78-.27,.78-.74v-1.75c0-.68-.27-1.09-.72-1.09-.09,0-.23,.04-.34,.09-.1,.04-.16,.08-.2,.11-.07,.06-.13,.13-.17,.23-.07,.15-.11,.26-.11,.32v.31h0Z" fill="#ffe800"/><polygon points="37.45 55.61 39.13 55.61 39.13 53.44 37.45 53.44 37.45 55.61 37.45 55.61" fill="#ffe800"/><polygon points="37.45 56.79 39.13 56.79 39.13 56.1 37.45 56.1 37.45 56.79 37.45 56.79" fill="#ffe800"/><polygon points="48.96 55.61 50.65 55.61 50.65 53.44 48.96 53.44 48.96 55.61 48.96 55.61" fill="#ffe800"/><polygon points="48.96 56.79 50.65 56.79 50.65 56.1 48.96 56.1 48.96 56.79 48.96 56.79" fill="#ffe800"/><path d="M114.89,7.1c0-3.48-1.79-3.53-3.72-3.53h-.58v-1.45c2.08,0,4.64,.19,7.69,.19s5.32-.19,7.26-.19v1.45h-.58c-1.93,0-3.87,.05-3.87,3.53V23.79c0,6.14,2.27,10.4,9.19,10.4,6.39,0,9.19-4.06,9.19-10.59V7.1c0-3.48-1.84-3.53-3.48-3.53h-.97v-1.45c1.94,0,3.92,.19,5.85,.19s3.72-.19,5.61-.19v1.45h-1.02c-1.31,0-3.1,.05-3.1,3.53v15.43c0,10.93-5.8,14.08-13.01,14.08-9.29,0-14.46-3.39-14.46-12.05V7.1h0Z" fill="#1d1d1b"/><path d="M180.02,26.35l.1-.1V8.11c0-3.97-2.76-4.55-4.21-4.55h-1.06v-1.45c2.27,0,4.5,.19,6.77,.19,1.98,0,3.97-.19,5.95-.19v1.45h-.72c-2.03,0-4.31,.39-4.31,6.14V31.72c0,1.69,.05,3.39,.29,4.89h-1.84l-24.91-27.77V28.77c0,4.21,.82,5.66,4.55,5.66h.82v1.45c-2.08,0-4.16-.19-6.24-.19s-4.4,.19-6.58,.19v-1.45h.68c3.34,0,4.35-2.27,4.35-6.14V7.92c0-2.71-2.22-4.35-4.4-4.35h-.63v-1.45c1.84,0,3.73,.19,5.56,.19,1.45,0,2.86-.19,4.31-.19l21.53,24.24h0Z" fill="#1d1d1b"/><path d="M189.87,34.43h.68c1.74,0,3.58-.24,3.58-2.76V6.33c0-2.52-1.84-2.76-3.58-2.76h-.68v-1.45c1.89,0,4.79,.19,7.16,.19s5.32-.19,7.59-.19v1.45h-.68c-1.74,0-3.58,.24-3.58,2.76V31.67c0,2.51,1.84,2.76,3.58,2.76h.68v1.45c-2.32,0-5.22-.19-7.64-.19s-5.22,.19-7.11,.19v-1.45h0Z" fill="#1d1d1b"/><path d="M220.85,3.57h-1.11c-1.79,0-2.51,.72-2.51,1.35,0,.24,.19,.92,.43,1.55l8.27,21.53h.1l7.69-20.12c.58-1.5,.63-2.37,.63-2.71,0-1.4-1.45-1.6-3.1-1.6h-.82v-1.45c1.69,0,3.53,.19,5.61,.19,1.5,0,3.05-.19,4.45-.19v1.45h-.49c-.87,0-1.79,.14-2.56,1.69-.39,.68-7.45,18.53-10.6,26.56-.63,1.6-1.4,3.19-1.98,4.79h-1.79l-12.29-30.28c-.92-2.27-1.93-2.76-4.06-2.76h-.48v-1.45c2.47,0,4.98,.19,7.45,.19s5.76-.19,7.16-.19v1.45h0Z" fill="#1d1d1b"/><path d="M242.35,34.43h.68c1.74,0,3.58-.24,3.58-2.76V6.33c0-2.52-1.84-2.76-3.58-2.76h-.68v-1.45c2.95,0,7.98,.19,12.05,.19s9.09-.19,12.38-.19c-.1,2.08-.05,5.27,.1,7.4l-1.45,.39c-.24-3.14-.83-5.66-5.9-5.66h-6.73v12.67h5.76c2.9,0,3.53-1.64,3.82-4.26h1.45c-.1,1.89-.14,3.78-.14,5.66s.05,3.68,.14,5.51l-1.45,.29c-.29-2.9-.43-4.79-3.77-4.79h-5.81v11.27c0,3.14,2.81,3.14,5.9,3.14,5.81,0,8.37-.39,9.82-5.9l1.35,.34c-.63,2.56-1.21,5.13-1.64,7.69-3.1,0-8.66-.19-13.01-.19s-10.11,.19-12.87,.19v-1.45h0Z" fill="#1d1d1b"/><path d="M276.65,7.24c0-3.53-1.94-3.68-3.44-3.68h-.87v-1.45c1.55,0,4.55,.19,7.5,.19s5.22-.19,7.79-.19c6.09,0,11.51,1.65,11.51,8.52,0,4.35-2.9,7.01-6.72,8.51l8.27,12.38c1.36,2.03,2.32,2.61,4.69,2.9v1.45c-1.6,0-3.14-.19-4.74-.19-1.5,0-3.05,.19-4.55,.19-3.72-4.89-6.92-10.11-10.06-15.67h-3.19v10.35c0,3.72,1.74,3.87,3.97,3.87h.87v1.45c-2.76,0-5.56-.19-8.32-.19-2.32,0-4.6,.19-7.02,.19v-1.45h.87c1.79,0,3.44-.82,3.44-2.61V7.24h0Zm6.19,11.22h2.37c4.84,0,7.45-1.84,7.45-7.55,0-4.31-2.76-7.06-7.06-7.06-1.45,0-2.08,.15-2.76,.19v14.42h0Z" fill="#1d1d1b"/><path d="M325.06,9.28c-.34-3.14-2.37-6.14-5.71-6.14-3.82,0-5.95,2.27-5.95,6.09,0,8.03,14.51,5.61,14.51,17.22,0,6.67-5.51,10.16-11.7,10.16-2.71,0-5.32-.97-7.69-2.18-.24-2.47-.58-4.89-.82-7.35l1.36-.29c.58,4.11,2.9,7.69,7.5,7.69,3.29,0,5.95-2.08,5.95-5.52,0-8.56-14.22-5.9-14.22-17.56,0-6.29,4.45-10.01,10.69-10.01,1.36,0,5.47,.53,6.97,.73,0,2.27,.19,4.6,.48,6.92l-1.35,.24h0Z" fill="#1d1d1b"/><path d="M332.59,34.43h.68c1.74,0,3.58-.24,3.58-2.76V6.33c0-2.52-1.84-2.76-3.58-2.76h-.68v-1.45c1.89,0,4.79,.19,7.16,.19s5.32-.19,7.6-.19v1.45h-.68c-1.74,0-3.58,.24-3.58,2.76V31.67c0,2.51,1.84,2.76,3.58,2.76h.68v1.45c-2.32,0-5.22-.19-7.64-.19s-5.22,.19-7.11,.19v-1.45h0Z" fill="#1d1d1b"/><path d="M354.85,4.53c-3.63,0-3.77,.87-4.5,4.4h-1.45c.2-1.35,.44-2.71,.58-4.11,.19-1.35,.29-2.71,.29-4.11h1.16c.39,1.45,1.59,1.4,2.9,1.4h24.96c1.31,0,2.52-.05,2.61-1.5l1.16,.19c-.19,1.3-.39,2.61-.53,3.92-.1,1.31-.1,2.61-.1,3.92l-1.45,.53c-.1-1.79-.34-4.64-3.58-4.64h-7.93V30.27c0,3.72,1.69,4.16,4.01,4.16h.92v1.45c-1.89,0-5.27-.19-7.88-.19-2.9,0-6.29,.19-8.18,.19v-1.45h.92c2.66,0,4.02-.24,4.02-4.06V4.53h-7.93Z" fill="#1d1d1b"/><path d="M398.48,20.11l-9.67-13.25c-1.45-2.03-2.37-3.29-4.64-3.29h-.48v-1.45c2.61,0,4.98,.19,7.59,.19s4.84-.19,7.16-.19v1.45h-.63c-1.31,0-2.52,.34-2.52,1.11,0,.53,.58,1.16,.87,1.6l7.3,10.26,6-8.66c.87-1.4,1.5-2.22,1.5-3.14,0-1.02-2.08-1.16-2.76-1.16h-.87v-1.45c1.84,0,3.68,.19,5.51,.19,1.55,0,3.1-.19,4.6-.19v1.45c-1.65,0-3,1.16-3.77,2.22l-9,12.72v11.56c0,4.11,1.45,4.35,4.02,4.35h.92v1.45c-2.86,0-5.76-.19-7.89-.19-2.42,0-5.32,.19-8.18,.19v-1.45h.92c2.85,0,4.02-.77,4.02-3.97v-10.35h0Z" fill="#1d1d1b"/><path d="M453.57,1.39c10.31,0,18.53,6.39,18.53,16.69,0,11.12-7.98,18.53-18.29,18.53s-18.09-6.97-18.09-17.37,7.79-17.85,17.85-17.85h0Zm.73,33.09c9.38,0,11.03-8.27,11.03-15.33s-3.82-15.63-11.85-15.63c-8.47,0-10.98,7.55-10.98,14.03,0,8.66,3.97,16.93,11.8,16.93" fill="#1d1d1b"/><path d="M485.7,16.92h6.77c2.37,0,3.1-1.5,3.1-3.92h1.45c-.1,1.74-.19,3.44-.19,5.18,0,1.98,.05,3.92,.19,5.9h-1.45c0-2.71-.77-4.74-3.87-4.74h-6v12.34c0,2.71,2.23,2.76,4.65,2.76h.63v1.45c-2.27,0-5.56-.19-8.32-.19-2.52,0-5.47,.19-7.4,.19v-1.45h.68c1.74,0,3.58-.24,3.58-2.76V6.33c0-2.52-1.84-2.76-3.58-2.76h-.68v-1.45c2.95,0,7.98,.19,12.05,.19s9.09-.19,12.38-.19c-.1,2.08-.05,5.27,.1,7.4l-1.45,.39c-.29-3.34-1.06-5.66-4.88-5.66h-7.74v12.67h0Z" fill="#1d1d1b"/><path d="M149.68,67.51c-1.71-5.92-4.52-10.8-13.67-10.8-10.01,0-15.26,7.87-15.26,18.55s5.19,20.5,16.72,20.5c6.53,0,10.86-4.09,12.45-10.19l1.71,.24c-.79,3.3-1.22,6.59-1.53,9.89-3.54,1.53-8.36,2.74-13.98,2.74-13.73,0-23.92-7.5-23.92-22.82,0-13.67,11.05-21.6,23.62-21.6,7.14,0,9.46,2.2,15.19,3.05-.06,3.36,.06,6.77,.49,10.19l-1.83,.24h0Z" fill="#1d1d1b"/><path d="M164.48,88.81c-.61,2.08-1.34,3.66-1.34,4.76,0,1.83,2.56,2.14,4.58,2.14h.67v1.83c-2.44-.12-4.94-.24-7.38-.24-2.2,0-4.39,.12-6.59,.24v-1.83h.36c2.38,0,4.39-1.4,5.31-3.97l9.76-28.01c.79-2.26,1.89-5.31,2.26-7.57,1.95-.67,4.39-1.89,5.55-2.62,.18-.06,.3-.12,.49-.12s.3,0,.43,.18c.18,.49,.36,1.04,.55,1.53l11.23,31.92c.73,2.14,1.46,4.4,2.26,6.22,.73,1.71,2.02,2.44,4.03,2.44h.36v1.83c-2.75-.12-5.49-.24-8.42-.24s-6.04,.12-9.16,.24v-1.83h.67c1.4,0,3.78-.24,3.78-1.77,0-.79-.55-2.44-1.22-4.4l-2.38-7.08h-13.85l-1.95,6.34h0Zm8.91-27.03h-.12l-5.67,17.27h11.41l-5.61-17.27h0Z" fill="#1d1d1b"/><path d="M229.41,86.86l14.46-31.92c1.83,0,4.03,.24,6.23,.24s4.33-.24,6.47-.24v1.83h-.55c-1.83,0-5.55,.12-5.68,2.81-.06,1.59,.18,3.42,.3,4.76l2.32,27.95c.24,3.05,1.77,3.3,5.43,3.42v1.83c-2.87-.12-5.86-.24-8.78-.24-3.36,0-6.71,.12-10.07,.24v-1.83c3.17-.18,5.25-.18,5.25-2.87,0-.73,0-1.4-.06-2.99l-1.71-25.75h-.12l-15.56,34.36h-1.46l-14.77-33.69h-.12l-2.08,26.79c0,1.95,.49,2.93,1.28,3.48,.92,.55,2.2,.61,3.91,.67h.73v1.83c-2.75-.12-5.55-.24-8.3-.24-2.38,0-4.82,.12-7.2,.24v-1.83h.85c4.82-.18,5-2.26,5.55-6.65l1.83-16.96c.49-4.33,.73-8.3,.73-10.74,0-3.42-2.62-4.58-5.31-4.58h-.79v-1.83c2.5,0,4.95,.24,7.45,.24,1.83,0,3.66-.24,5.49-.24l14.28,31.92h0Z" fill="#1d1d1b"/><path d="M262.21,95.71h.85c2.2,0,4.52-.31,4.52-3.48v-31.98c0-3.17-2.32-3.48-4.52-3.48h-.85v-1.83c2.68,0,6.1,.24,9.52,.24s6.96-.24,9.76-.24c10.25,0,14.09,4.27,14.09,9.58,0,6.23-5.74,8.91-11.1,9.89v.12c6.65-.18,13.61,3.54,13.61,10.92,0,6.59-6.47,12.08-14.4,12.08-3.05,0-6.9-.24-10.68-.24s-8.18,.24-10.8,.24v-1.83h0Zm13.18-5.55c0,4.27,.79,5.19,5.49,5.19,5.19,0,9.03-4.21,9.03-9.64,0-6.77-4.52-9.89-10.62-9.89h-3.9v14.34h0Zm0-16.54h2.99c5.19,0,9.03-2.2,9.03-7.93,0-7.02-4.21-8.54-8.36-8.54h-3.66v16.48h0Z" fill="#1d1d1b"/><path d="M308.14,61.41c0-4.45-2.44-4.64-4.33-4.64h-1.1v-1.83c1.95,0,5.74,.24,9.46,.24s6.59-.24,9.82-.24c7.69,0,14.52,2.07,14.52,10.74,0,5.49-3.66,8.85-8.48,10.74l10.44,15.62c1.71,2.56,2.93,3.3,5.92,3.66v1.83c-2.01,0-3.97-.24-5.98-.24-1.89,0-3.84,.24-5.74,.24-4.7-6.16-8.72-12.75-12.69-19.77h-4.03v13.06c0,4.7,2.2,4.88,5.01,4.88h1.1v1.83c-3.48,0-7.02-.24-10.5-.24-2.93,0-5.8,.24-8.85,.24v-1.83h1.1c2.26,0,4.33-1.04,4.33-3.3v-31h0Zm7.81,14.16h2.99c6.1,0,9.4-2.32,9.4-9.52,0-5.43-3.48-8.91-8.91-8.91-1.83,0-2.62,.18-3.48,.24v18.19h0Z" fill="#1d1d1b"/><path d="M346.83,95.71h.85c2.2,0,4.52-.31,4.52-3.48v-31.98c0-3.17-2.32-3.48-4.52-3.48h-.85v-1.83c2.38,0,6.04,.24,9.03,.24s6.71-.24,9.58-.24v1.83h-.86c-2.2,0-4.52,.31-4.52,3.48v31.98c0,3.17,2.32,3.48,4.52,3.48h.86v1.83c-2.93,0-6.59-.24-9.64-.24s-6.59,.24-8.97,.24v-1.83h0Z" fill="#1d1d1b"/><path d="M369.82,95.71h.86c2.2,0,4.52-.31,4.52-3.48v-31.98c0-3.17-2.32-3.48-4.52-3.48h-.86v-1.83c1.83,0,5.86,.24,9.76,.24s7.2-.24,9.83-.24c15.01,0,24.23,8.42,24.23,21.18s-10.25,22.15-22.64,21.42c-2.69-.12-6.96-.24-11.11-.24s-8.48,.24-10.07,.24v-1.83h0Zm13.18-5.19c0,4.27,1.95,4.82,6.34,4.82,10.38,0,15.74-8.67,15.74-18.06,0-16.11-8.18-20.14-17.94-20.14-1.4,0-2.81,.18-4.15,.31v33.07h0Z" fill="#1d1d1b"/><path d="M457.53,66.84c-1.83-7.51-7.02-10.13-14.16-10.13-10.92,0-16.29,8.05-16.29,18.25s4.82,20.81,16.48,20.81c2.93,.06,5.98-.43,6.77-1.16v-9.95c0-2.5-2.38-3.11-4.64-3.11h-.79v-1.83c3.05,.12,6.1,.24,9.15,.24,2.75,0,5.43-.12,8.18-.24v1.83h-.79c-2.14,0-3.3,.98-3.3,3.11v9.28l1.4,.79v1.1c-5.43,1.53-10.74,2.62-17.03,2.62-13.67,0-23.98-8.18-23.98-22.88s12.08-21.54,24.41-21.54c3.78,0,6.41,.55,8.79,1.1,2.38,.55,4.45,1.1,6.89,1.16,0,2.26,0,6.9,.73,10.44l-1.83,.12h0Z" fill="#1d1d1b"/><path d="M465.28,95.71h.86c2.2,0,4.52-.31,4.52-3.48v-31.98c0-3.17-2.32-3.48-4.52-3.48h-.86v-1.83c3.72,0,10.07,.24,15.19,.24s11.47-.24,15.62-.24c-.12,2.62-.06,6.65,.12,9.34l-1.83,.49c-.3-3.97-1.03-7.14-7.44-7.14h-8.48v15.99h7.26c3.66,0,4.45-2.08,4.82-5.37h1.83c-.12,2.38-.18,4.76-.18,7.14s.06,4.64,.18,6.96l-1.83,.37c-.37-3.66-.55-6.04-4.76-6.04h-7.32v14.22c0,3.97,3.54,3.97,7.45,3.97,7.32,0,10.56-.49,12.39-7.44l1.71,.43c-.79,3.23-1.53,6.47-2.07,9.7-3.91,0-10.92-.24-16.42-.24s-12.75,.24-16.23,.24v-1.83h0Z" fill="#1d1d1b"/></g></g></svg>