<?xml version="1.0" encoding="UTF-8"?><svg id="b" xmlns="http://www.w3.org/2000/svg" viewBox="0 0 500 143.33"><g id="c"><g><path d="M392.95,143.05V5.39h46.58V113.85h60.47v29.48"/><path d="M256.8,143.24c-20.6-14.83-30.33-39.68-30.33-63.49C226.47,40.34,252.93,0,303,0c22.3,0,43.56,7.84,59.15,23.62,6.24,6.52,9.26,11.34,12.28,17.2l-39.21,19.27c-3.68-8.79-10.87-24.38-30.61-24.38-10.2,0-16.72,4.91-19.94,7.84-11.15,10.68-11.15,27.31-11.15,33.16,0,21.83,8.13,42.42,31.08,42.42s28.25-19.27,29.86-24.09l39.68,19.27c-3.68,6.99-7.46,13.7-14.36,20.88-3.02,3.02-6.24,5.57-9.73,7.84"/><path d="M96.18,143.24c-2.08-1.42-3.68-2.74-5.57-4.44-14.64-14.17-14.83-30.61-15.31-45.92V5.57h46.86V97.32c0,6.24,.19,12.76,5.29,17.57,3.68,3.97,9.54,5.29,14.83,5.29,7.46,0,12.09-2.74,14.83-5.1,5.29-5.1,5.57-11.62,5.57-17.86V5.57h47.05V83.71c0,16.91,0,38.74-17.38,55.18-1.61,1.61-3.5,3.02-5.57,4.44"/><g><path d="M51.68,38.55l-25.23-5.29S1.42,38.55,1.23,38.55s0,.19,0,.19l.19,1.42h0s.47,0,.66,.19l.47,2.08s0,.19,.19,.19H50.36c.28,0,.19,0,.19,0l.47-2.08c.19-.47,.66-.47,.66-.47h0l.19-1.42v-.19h-.19v.09Z"/><path d="M49.13,43.18h0v-.76h-3.97v.66h.19v.19s0,.66,.47,.94v.19h-.19v.38h0v14.17l-.19,.19h0v.19h-.19v.47h3.68v-.47h-.19l-.19-.19v-14.17h0v-.38h0s-.19-.19,0-.19c.47-.19,.47-.66,.47-.94v-.09h.19v-.19h-.09Z"/><path d="M40.82,43.18h0v-.76h-3.97v.66h.28v.19s0,.66,.47,.94v.19h-.19v.38h0v14.17l-.19,.19h0v.19h-.19v.47h3.68v-.47h-.19l-.19-.19v-14.17h0v-.38h0s-.19-.19,0-.19c.47-.19,.47-.66,.47-.94v-.09h.19v-.19h-.19Z"/><path d="M32.69,43.18h0v-.76h-3.97v.66h.19v.19s0,.66,.47,.94v.19h-.19v.38h0v14.17l-.19,.19h0v.19h-.19v.47h3.68v-.47h-.19l-.19-.19v-14.17h0v-.38h-.19s-.19-.19,0-.19c.19-.19,.47-.66,.47-.94v-.09h.19l.09-.19Z"/><path d="M24.38,43.18h0v-.76h-3.97v.66h.19v.19s0,.66,.47,.94v.19h-.19v.38h0v14.17l-.19,.19h0v.19h-.19v.47h3.68v-.47h-.28l-.19-.19v-14.17h0v-.38h0s-.19-.19,0-.19c.47-.19,.47-.66,.47-.94v-.09h.19v-.19Z"/><path d="M16.06,43.18h0v-.76h-3.97v.66h.19v.19s0,.66,.47,.94v.19h-.19v.38h0v14.17l-.19,.19h0v.19h-.19v.47h3.68v-.47h-.19l-.19-.19v-14.17h0v-.38h-.19s-.19-.19,0-.19c.47-.19,.47-.66,.47-.94v-.09h.19l.09-.19Z"/><path d="M7.94,43.18h0v-.76H3.97v.66h.19v.19s0,.66,.47,.94v.19h-.19v.38h0v14.17l-.19,.19h0v.19h-.19v.47h3.68v-.47h-.19l-.19-.19v-14.17h0v-.38h-.19s-.19-.19,0-.19c.19-.19,.47-.66,.47-.94v-.09h.19l.09-.19Z"/><path d="M38.27,28.06h-.47v-.47h-.47v-.47h-.19s-.19,0-.19-.19c0-.47,.19-4.44-1.89-6.99-1.61-2.36-3.68-3.5-4.91-4.16,0-.47-.66-.66-1.13-.94-.19,0-.19-.19-.19-.19v-.19c0-.19,.19-.19,.47-.19h.19v-.47s0-.19-.19-.19h-.47s-.19,0-.19-.19v-.19q0-.19-.19-.19v-2.74h.19v-.19h-.19v-.38h0v-.47h-.38l-.94-.94h0s0-.19-.19-.19,0-.19,0-.19h0v-.19l-.19-.47h0s-.19,.19-.19,.47v.19h0v.19q-.19,0-.19,.19h0s-.47,.66-.94,.94h-.38v.19h0v.38h-.19v.19h.19v2.74l-.19,.19v.19s0,.19-.19,.19h-.47s-.19,0-.19,.19v.47h.19c.19,0,.47,0,.47,.19v.19c0,.19-.19,.19-.19,.19-.19,0-.94,.19-1.13,.94-1.13,.47-3.5,1.89-4.91,4.16-2.08,2.74-1.89,6.52-1.89,6.99,0,0,0,.19-.19,.19h-.19v.47h-.47v.47h-.47v.47h0c.19,0,.47,.19,.47,.47,0,.47,.19,.47,.47,.47v1.61c0,.47-.19,.47-.47,.47h0v1.61l11.62-2.55h0l11.62,2.55v-1.61h0c-.19,0-.47-.19-.47-.47v-1.61s.47,0,.47-.47c0-.19,.19-.47,.47-.47h0v-.47h0l-1.13,.28Z"/><polygon points="51.02 61.7 49.13 61.7 49.13 60.28 3.97 60.28 3.97 61.7 2.08 61.7 2.08 65.19 0 65.19 0 68.41 53.1 68.41 53.1 65.19 51.02 65.19 51.02 61.7"/></g></g></g></svg>