<?xml version="1.0" encoding="UTF-8"?><svg id="b" xmlns="http://www.w3.org/2000/svg" xmlns:xlink="http://www.w3.org/1999/xlink" viewBox="0 0 500 212.04"><defs><clipPath id="d"><rect width="500" height="212.04" fill="none"/></clipPath><clipPath id="e"><rect y="-138.72" width="500" height="500" fill="none"/></clipPath><clipPath id="f"><rect y="-138.72" width="500" height="500" fill="none"/></clipPath></defs><g id="c"><g clip-path="url(#d)"><g clip-path="url(#e)"><g clip-path="url(#f)"><path d="M387.57,61.18l-.55,4.23s3.32,1.72,7.67,1.72c1.22,0,3.78-.26,4.9-.67,3.92-1.43,5.83-4.28,5.83-7.79s-2.46-5.55-6.57-6.28l-2.96-.5c-2.34-.38-4.3-.96-4.3-3.68,0-2.34,2.2-4.11,5.23-4.11,1.72,0,3.77,.6,4.87,1.94l.07,1.65h1.65l.36-4.3c-2.34-.91-4.59-1.22-6.85-1.22-5.31,0-9.68,2.15-9.68,7.74,0,3.01,2.15,5.55,6.52,6.28l3.58,.6c2.49,.43,3.42,2.17,3.42,3.68,0,3.2-2.65,4.78-5.76,4.78-1.91,0-4.76-1.08-5.9-2.7l-.12-1.36h-1.41Zm-80.87,26.23c.17,.17,6.81-3.18,9.25-.5,2.84,3.1-.86,15.03-8.55,30.24-7.45,14.74-14.14,26.9-15.72,31.59-1.6,4.73,1.82,3.01,5.42,1.17,7.14-3.68,37.34-28.93,41.19-30.92,2.15-1.12-15.22,19.64-32.28,37.6-19.57,20.55-38.44,43.46-65.53,43.46-28.43,0-40.98-23.22-40.98-23.22,0,0,6.91,27.47,42.55,27.47,40.83,0,71.65-42.98,93.96-68.93,18.09-21,33.78-39.54,44.87-46.11,11.09-6.57,23.22-2.51,23.22-2.51-17.28-10.7-38.75,4.85-56.05,20.21-14.34,12.76-39.06,29.62-40.66,30.92-2.1,1.67,26.35-47.97,18.13-55.14-3.01-2.7-20.19,3.37-18.83,4.66m177.23-43.31v-1.48h-6.79v1.48c1.46,0,2.22,.24,1.82,.95-.36,.65-5.42,9.06-5.42,9.06,0,0-4.47-7.81-4.97-8.67-.45-.81-.38-1.41,2.01-1.34v-1.48h-11.06v1.48c2.63-.07,2.84,.64,3.46,1.65,.62,1,6.84,11.4,6.84,11.4v5.45c-.03,2.53-.19,2.77-3.11,2.7v1.48h11.39v-1.51c-2.96,.1-3.13-.14-3.13-2.65,0,0-.02-6.21,0-6.57,0,0,5.59-9.48,6.07-10.25,.5-.79,.91-1.7,2.89-1.7m-238.75,18.44c0,2.53-.14,2.8-3.11,2.7v1.5h8.39v-1.5c-2.96,.1-3.11-.17-3.11-2.7v-14.41l16.91,19.06,2.65-.79v-19.57c0-2.53,.14-2.8,3.11-2.7v-1.5h-8.41v1.5c2.99-.1,3.1,.17,3.1,2.7v13.31l-.83-.88-14.36-16.56-7.48-.07v1.5c2.96-.1,3.1,.17,3.1,2.7l.03,15.7Zm35.07,0c-.05,2.53-.19,2.8-3.11,2.72v1.48h11.4v-1.5c-2.96,.1-3.1-.17-3.1-2.7v-15.72c0-2.53,.12-2.74,3.1-2.72v-1.48h-11.4v1.48c2.92-.07,3.08,.21,3.11,2.72v15.72Zm24.66-15.24c-.34-.76-.86-1.7-.72-2.53,.12-.64,1.55-.67,2.82-.67v-1.48h-11.83v1.48c1.14,0,2.89,.6,3.77,2.53l8.79,20.14h2.72s6.04-14,9.1-21.02c.74-1.55,1.1-1.65,2.82-1.65v-1.48h-8.46v1.48c2.22,0,3.03,.26,3.03,.95,0,.36-.31,1.05-.55,1.82l-5.78,14-5.73-13.57Zm26.83,15.84c0,1.55-.55,2.03-2.63,2.15v1.48h19.42l.36-5.47h-1.44l-.71,2.84s-3.27,.43-9.84,.43v-9.46h4.23c.67,0,1.82,.07,1.94,.86,.17,.72,.02,1.74,.02,1.74h1.53l.57-6.74h-1.46c-.07,.81-.17,1.12-.41,1.72-.16,.65-.67,.65-1.19,.65h-5.23v-7.48c0-.43,.09-.89,.24-1.27,1.05,0,5.76-.05,7.08,.07,.78,.07,1.65,.21,1.67,.76,.07,.76,.14,1.79,.14,1.79h1.39l.36-3.3,.14-1.29h-19.38v1.48c2.79,.14,3.08,.38,3.15,2.55v16.46h.05Zm27.29-.6c-.05,2.53-.19,2.8-3.13,2.72v1.48h11.4v-1.5c-2.96,.1-3.13-.17-3.13-2.7v-17.11c0-.24,.14-.81,.14-.81,.9-.21,1.15-.24,2.2-.24,2.87,0,5.04,2.25,5.04,5.14,0,3.2-1,5.11-5.28,5.52l-.09,.65,7.67,11.08h6.86v-1.48c-.93-.1-2.01-.83-2.56-1.58l-6.57-8.36c3.84-.74,5.33-3.4,5.16-6.76-.19-4.49-4.75-5.97-8.82-5.97h-12.06v1.48c2.94-.07,3.08,.21,3.13,2.72v15.72h.05Zm57.49,0c-.05,2.53-.19,2.8-3.11,2.72v1.48h11.4v-1.5c-2.97,.1-3.11-.17-3.11-2.7v-15.72c0-2.53,.14-2.79,3.11-2.7v-1.51h-11.4v1.48c2.94-.07,3.06,.21,3.11,2.72v15.72Zm29.07-17.56h5.16c2.01,.05,1.65,.24,1.91,2.01,.07,.48,.07,.41,.07,.91h1.43l.48-5.26h-23.01s.19,3.54,.12,5.26h1.46c.07-.88,.12-1.17,.19-1.79,.45-.76,.76-1.03,1.65-1.12h5.37v17.58c-.05,2.53-.19,2.79-3.11,2.72v1.48h11.39v-1.51c-2.96,.1-3.1-.17-3.1-2.7v-17.58h-.03Zm-237.51-.93v-1.43h11.16v1.43c-1.27,0-2.08,.12-2.41,.34-.17,.1-.29,.31-.36,.6-.17,.72-.21,10.68-.21,10.68,0,2.08,.02,3.37,.07,3.87,.12,1.08,.38,1.94,.84,2.6,.45,.67,1.12,1.2,2.05,1.6,.93,.41,2.1,.62,3.51,.62,1.63,0,2.94-.28,3.92-.81,.98-.55,1.67-1.24,2.08-2.12,.41-.86,.62-2.51,.62-4.95,0,0,0-8.36-.02-9.01-.05-1.43-.12-2.32-.24-2.6-.09-.19-.21-.34-.4-.41-.38-.19-1.24-.31-2.56-.33v-1.44h8.19v1.44c-1.1,0-1.79,.07-2.05,.26-.14,.1-.26,.26-.36,.52-.1,.26-.19,1.22-.26,3.47-.05,2.05-.12,8.89-.12,8.89,0,1.03-.07,2.08-.24,3.18-.14,1.1-.45,2.03-.93,2.82-.45,.79-1.12,1.48-1.98,2.1-.84,.62-1.87,1.1-3.01,1.41-1.17,.31-2.51,.48-4.04,.48-1.79,0-3.46-.24-5.02-.69-1.12-.33-2.05-.81-2.77-1.39-.72-.57-1.27-1.22-1.65-1.94-.38-.72-.6-1.41-.69-2.08-.05-.41-.1-1.53-.1-3.32,0,0-.02-10.68-.07-11.97-.03-.5-.1-.89-.22-1.1-.05-.12-.21-.26-.45-.43l-2.27-.29Z" fill="#333e48"/><path d="M266.54,106.62c-.14-.02,6.5-19.54,12.33-20.83,6.19-1.36,3.42,6.23,2.13,8.48-.89,1.55-.29,1.7,1,.55,2.2-1.94,7.34-7.95,4.52-10.9-.89-.93-2.53-1.51-4.97-1.51-6.43,0-15.08,4.4-23.56,23.7,0,0-8.31-.14-15.6,1.13-.05-5.16-2.96-8.53-8.46-8.53-9.17,0-21.98,9.32-28.62,20.81-6.64,11.49-4.59,20.81,4.56,20.81s21.98-9.32,28.62-20.81c1.36-2.34,2.34-4.59,2.99-6.69,2.29-.31,8.41-.96,13.85-.58,.43,.03-6.04,17.23-10.37,25.71-3.46,6.81-14,19.61-28.07,13.26-2.89-1.29-2.67,.48,1.79,1.99,6.09,2.05,17.37,3.75,29.05-10.39,6.98-8.46,16.46-30.13,16.46-30.13,0,0,20.71,1.67,24.3-14.96-.05,0-3.49,11.4-21.96,8.89m-52.51,28.55c-5.18,0-5.88-7-1.55-15.65,4.33-8.65,12.02-15.65,17.2-15.65,3.27,0,4.76,2.8,4.32,7.05-3.39,2.13-6.6,4.64-6.6,4.64-.36,.28-.29,.43,.14,.31l5.71-1.39c-.48,1.58-1.12,3.27-2.01,5.02-4.35,8.67-12.04,15.67-17.23,15.67m283.09,23.25s-6.28,4.61-14.57,3.51c-9.96-1.32-23.65-15.05-26.9-18.13-1.32-1.27,21.91-6.53,26.81-17.3,2.92-6.43-3.85-8.27-3.85-8.27-2.7,13.29-15.89,17.97-27.07,23.56,0,0-4.68-1.58-9.77,1.67-2.1,1.34,19.38-46.06,22.62-52.3,.17-.33-10.82,3.51-11.18,4.01-.81,1.15,.43,.48,.09,1.84-1.08,4.16-11.04,24.4-11.04,24.4-6.69,0-26.81,8.6-29.41,10.11-2.63,1.5,3.92-8.94,1.39-10.54-2.56-1.6-5.33-1.17-11.25,.34-4.94,1.24-11.97,5.04-15.38,6.76-.34-5.33-3.59-8.72-9.44-8.72-10.25,0-24.58,10.42-32.01,23.3-7.43,12.85-5.14,23.29,5.11,23.29s24.58-10.42,32.02-23.29c2.15-3.73,3.49-7.24,4.04-10.37,5.37-3.47,17.65-8.55,18.61-6.93,1.5,2.51-15.68,34.26-18.83,40.28-.05,.1,.12,.19,.48,.07,3.94-1.22,8.77-3.03,9.7-4.99,4.39-9.18,19.83-34.6,34.83-31.85,2.06,.38,8.41-3.7,7.96-2.41-1.12,3.18-14.69,31.23-19.25,38.92-1.05,1.77,8.72-2.29,9.91-4.59,4.37-8.36,10.15-12.64,13.38-12.64,3.65,0,18.85,18.47,35.26,18.47,12.3,0,18.52-7.86,17.75-8.2m-141.18,1.77c-5.78,0-6.57-7.83-1.74-17.51,4.83-9.68,13.43-17.51,19.24-17.51,4.01,0,5.62,3.77,4.61,9.31-2.96,2.65-5.59,5.26-5.59,5.26-.31,.31-.26,.41,.14,.19l4.7-2.44c-.5,1.63-1.22,3.37-2.12,5.18-4.83,9.65-13.43,17.51-19.24,17.51h0Zm-258.48,17.39c-.19-.57-.38-.83-.81-1.05-.57-.29-1.72-.07-1.84-.05,0,0-2.36,.76-3.01,.98-.05-.14-.1-.31-.14-.48-.03-.1-.05-.17-.1-.26,.71-.24,3.11-1.03,3.11-1.03,.09-.04,1.17-.52,1.46-1.1,.12-.21,.17-.43,.17-.64,0-.19-.05-.41-.12-.67-.6-1.82-1.84-3.42-3.7-4.78-1.86-1.36-3.77-2.06-5.69-2.06-.6,0-.91,.12-1.24,.45-.45,.45-.59,1.62-.59,1.72v3.15h-.45c-.15,0-.29,0-.45,.03v-3.16c0-.12-.14-1.26-.6-1.72-.34-.34-.65-.46-1.24-.46-1.91,0-3.82,.69-5.69,2.05-1.87,1.36-3.11,2.96-3.7,4.78-.1,.26-.12,.48-.12,.67,0,.21,.05,.43,.17,.64,.29,.57,1.36,1.07,1.46,1.1,0,0,2.53,.84,3.1,1.01-.02,.09-.07,.17-.1,.26-.05,.14-.1,.31-.14,.45-.82-.26-3.01-.98-3.01-.98-.1-.02-1.27-.26-1.82,.05-.43,.22-.62,.48-.81,1.05-.6,1.81-.52,3.85,.19,6.04,.72,2.2,1.87,3.87,3.39,5,.48,.35,.79,.45,1.27,.38,.62-.1,1.43-.96,1.5-1.05,0,0,1.55-2.13,1.94-2.67,.07,.05,.15,.12,.22,.17,.1,.07,.21,.14,.31,.21-.45,.62-1.91,2.63-1.91,2.65-.05,.07-.55,.95-.55,1.57,0,.05,0,.12,.03,.17,.07,.48,.26,.74,.74,1.1,1.55,1.12,3.49,1.67,5.8,1.67s4.25-.57,5.81-1.67c.48-.33,.67-.62,.74-1.1v-.17c0-.62-.48-1.5-.55-1.57,0,0-1.44-1.98-1.91-2.63,.12-.07,.21-.14,.33-.21,.07-.05,.14-.12,.21-.17,.46,.62,1.94,2.67,1.94,2.67,.07,.1,.86,.96,1.5,1.05,.48,.07,.79-.02,1.27-.38,1.53-1.12,2.68-2.79,3.39-4.99,.76-2.22,.83-4.25,.26-6.04m-11.75-7.28c0-.1,.17-.96,.48-1.39,.86-1.17,2.01-.36,3.04,.33,.76,.52,1.51,1.05,2.06,.76l.24-.12-.05,.29s-.02,.07-.02,.12c0,.57,.67,1.07,1.36,1.6,.74,.57,1.55,1.19,1.55,1.96,0,.26-.09,.52-.31,.81-.31,.43-1.1,.86-1.17,.89,0,0-1.22,.41-1.62,.52-.41-.81-.93-1.46-1.58-1.94-.26-.19-.43-.24-.69-.19-.31,.05-.76,.5-.83,.57,0,0-.79,1.1-1.5,2.08l-.22-.14c.72-.98,1.51-2.08,1.51-2.08,.05-.1,.31-.57,.31-.88v-.1c-.05-.26-.14-.41-.41-.6-.62-.43-1.34-.74-2.15-.88,.03-.45,.03-1.62,.03-1.62m2.37,8.82c-.07-.84-.43-1.58-.98-2.15,.38-.52,.86-1.19,.86-1.19,.02-.05,.33-.31,.55-.38,.52-.17,.72,.27,.98,1.01,.17,.45,.34,.93,.67,1.1-.05,.12-.1,.21-.1,.36,0,.28,.1,.6,.19,.91,.1,.36,.19,.65,.19,.86,0,.26-.09,.43-.38,.52-.21,.07-.62,.03-.69,.03,0,0-.74-.24-1.31-.43,0-.09,.02-.19,.02-.29,.03-.12,.03-.21,0-.33h0Zm-2.32-5.47c.79,.02,1.27,.07,1.27,.62,0,.21-.17,.6-.19,.64,0,0-.48,.69-.86,1.22-.43-.19-.88-.28-1.39-.31h-.05c-.5,0-.98,.1-1.41,.29-.38-.55-.88-1.22-.88-1.22-.02-.05-.19-.41-.19-.65,0-.55,.48-.59,1.27-.62,.48-.02,.98-.02,1.24-.29,.22,.29,.72,.31,1.2,.31m-9.63,1.89c-.07-.02-.86-.45-1.17-.88-.83-1.17,.26-2.03,1.24-2.78,.74-.57,1.46-1.12,1.36-1.72l-.05-.29,.24,.12c.55,.29,1.29-.22,2.06-.76,1.03-.69,2.17-1.51,3.01-.34,.31,.43,.48,1.27,.48,1.36v1.62c-.81,.14-1.55,.43-2.15,.89-.26,.19-.36,.33-.41,.6v.09c0,.34,.24,.81,.31,.89,0,0,.81,1.12,1.51,2.08-.07,.04-.14,.09-.24,.16-.72-.98-1.51-2.08-1.51-2.08-.07-.1-.52-.52-.83-.58-.27-.05-.43,0-.69,.19-.64,.48-1.17,1.12-1.58,1.93l-1.58-.52Zm4.8,4.2c-.57,.19-1.31,.43-1.31,.43-.05,0-.45,.05-.67-.03-.29-.1-.38-.26-.38-.52,0-.21,.07-.5,.19-.86,.1-.31,.19-.62,.19-.91,0-.14-.03-.24-.1-.36,.33-.17,.5-.65,.67-1.1,.26-.74,.45-1.17,.98-1.01,.21,.07,.52,.34,.55,.38,0,0,.48,.67,.86,1.19-.48,.5-.81,1.13-.93,1.84-.05,.22-.05,.41-.05,.62v.31Zm-2.68,6.45c-.05,.07-.69,.67-1.19,.84-1.36,.45-1.84-.88-2.25-2.06-.31-.88-.62-1.74-1.22-1.81l-.26-.05,.19-.19c.45-.43,.19-1.29-.07-2.2-.36-1.19-.76-2.53,.62-2.98,.5-.17,1.39-.05,1.46-.03,0,0,1.08,.33,1.58,.5-.12,.81-.05,1.55,.17,2.25,.1,.31,.22,.45,.43,.57,.29,.14,.91,.05,1.03,.02,0,0,1.24-.41,2.34-.76,.02,.07,.05,.17,.07,.24-1.12,.36-2.34,.76-2.34,.76-.12,.05-.67,.34-.82,.62-.12,.24-.12,.41-.02,.72,.24,.76,.69,1.46,1.34,2.08-.34,.48-1.05,1.51-1.05,1.48m1.91-3.01c-.46-.36-.76-.62-.76-.91,0-.1,.05-.21,.12-.33,.14-.19,.5-.38,.55-.41,0,0,.72-.24,1.27-.43,.5,.95,1.41,1.65,2.48,1.86,0,.57-.05,1.29-.05,1.29,0,.05-.09,.45-.21,.65-.33,.45-.74,.21-1.39-.24-.41-.26-.81-.55-1.17-.48-.05-.4-.43-.71-.83-1m8.79,4.28c.05,.07,.43,.88,.43,1.41,0,1.43-1.41,1.48-2.65,1.51-.93,.02-1.84,.04-2.1,.6l-.12,.24-.12-.24c-.28-.55-1.17-.58-2.1-.6-1.24-.03-2.63-.08-2.63-1.51,0-.52,.38-1.34,.43-1.41,0,0,.76-1.05,1.03-1.44,.76,.38,1.5,.58,2.27,.58,.34,0,.5-.05,.67-.24,.24-.24,.33-.86,.33-.96v-2.39h.29v2.39c0,.12,.1,.74,.33,.96,.19,.19,.36,.24,.67,.24,.77,0,1.51-.19,2.27-.58,.31,.5,1,1.44,1,1.44m-.12-4.28c-.38,.29-.76,.6-.81,.98-.38-.07-.79,.22-1.19,.48-.65,.45-1.05,.69-1.39,.24-.14-.19-.22-.6-.24-.64v-1.29c1.08-.21,1.96-.9,2.46-1.84,.57,.19,1.27,.43,1.27,.43,.05,.02,.41,.24,.55,.41,.07,.12,.12,.21,.12,.33,.03,.29-.29,.55-.76,.91m6.69-.24l.19,.19-.29,.05c-.62,.1-.91,.93-1.22,1.82-.41,1.17-.89,2.48-2.25,2.06-.5-.17-1.17-.77-1.19-.84l-1.05-1.44c.64-.62,1.1-1.31,1.34-2.08,.05-.14,.07-.26,.07-.38s-.02-.22-.1-.36c-.14-.28-.71-.57-.81-.62,0,0-1.22-.41-2.32-.76,.03-.07,.05-.17,.07-.24,1.1,.36,2.34,.76,2.34,.76,.12,.02,.74,.12,1.03-.03,.24-.12,.33-.27,.43-.58,.21-.69,.28-1.46,.16-2.24,.48-.17,1.56-.5,1.56-.5,.07-.02,.95-.14,1.46,.03,1.36,.45,.98,1.79,.62,2.99-.24,.88-.5,1.72-.05,2.17" fill="#333e48"/><path d="M56.13,182.24c7.02,8.94,16.32,16.84,27.71,23.49l.81,.48,.81-.48c11.4-6.64,20.69-14.55,27.72-23.49l1.98-2.65c5.3-7.38,9.2-15.6,11.66-24.49l.07-.34c.24-.86,.45-1.74,.67-2.63l.19-.83c.5-2.29,.91-4.51,1.24-6.69v.12c.79,7.5,3.34,10.99,8.03,10.99,3.49,0,5.59-1.34,6.48-4.11,.07-.21,.17-.52,.31-.91,.67-1.94,1.77-5.21,1.77-7.02v-.43c.02-1.57,.02-3.34-1.84-3.92-.07-.07-.17-.15-.24-.19,.64-.38,1.15-.72,1.46-1,.81-.74,1.67-2.68,2.67-4.92,.57-1.27,1.15-2.58,1.72-3.63,.02-.05,.07-.14,.14-.24,4.13-7.45,5.38-14.1,3.49-18.71,0-.02-.02-.05-.02-.07-.02-.05-.07-.1-.1-.14-1.12-3.27-2.36-5.73-7.26-9.22-2.1-1.48-4.11-2.7-5.71-3.68-1.65-1-3.04-1.84-3.87-2.58,1.96,.24,3.85,.79,5.71,1.34,2.53,.74,5.16,1.5,7.98,1.5,5.37,0,8.1-1.87,10.3-3.34,1.36-.93,2.41-1.65,3.75-1.65,.17,0,.31-.12,.33-.28,.02-.17-.05-.34-.21-.38-.62-.24-1.29-.81-2.03-1.46-1.39-1.19-3.23-2.75-6.23-3.51,0-.05-.03-.1-.03-.14-.43-1.94-1.43-3.85-2.94-5.66,1.39,.33,3.13,.69,4.59,.69,2.36,0,3.94-.76,5.47-1.51,.41-.19,.81-.38,1.24-.57,.26-.12,.43-.38,.41-.65-.03-.29-.19-.53-.45-.62-1.22-.4-2.67-1.77-4.06-3.08-1.5-1.41-2.92-2.72-4.3-3.23-.88-.31-1.79-.45-2.84-.45-.48,0-.93,.02-1.36,.05-.4,.02-.81,.05-1.19,.05-.48,0-.89-.05-1.24-.12-.21-.05-.29-.1-.29-.1-.02-.03-.05-.1-.05-.17-.24-.76-.62-1.39-2.77-1.7,8.03-2.55,13.59-5.49,16.99-8.91,3.87-3.94,4.37-8.1,4.4-11.28v-.45c-.07-.91-.29-1.81-.65-2.67-.76-4.01-2.75-7.79-4.13-10.42-.62-1.17-1.15-2.18-1.36-2.82-.17-.5-.36-1.05-.53-1.6-.76-2.29-1.53-4.64-2.48-6.02-.72-1.05-2.37-2.34-3.82-3.49-.91-.72-1.77-1.41-2.27-1.91-.12-.12-.29-.14-.43-.05-.14,.07-.22,.24-.17,.41,.17,.57,0,1.05-.21,1.57-.17,.46-.36,.91-.36,1.46,0,.62,.45,1.34,.89,2.01,.22,.34,.57,.89,.59,1.1-.16-.02-.57-.38-.91-.65-.79-.64-1.89-1.55-3.25-1.72-.29-.02-.55-.07-.81-.1,.65-1.1,.95-2.39,.95-3.39,0-1.08,.24-1.74,.5-2.53l.1-.31c.09-.29-.02-.62-.29-.79-.26-.17-.6-.15-.83,.07,0,0-.1,.1-.52,.1-.36,0-.82-.07-1.27-.12-.52-.07-1.05-.14-1.55-.14-1.07,0-3.27,.67-4.73,2.15t-.02,.05l-.02,.02c-.84,.86-.98,1.29-.98,2.36,0,2.1,.83,3.71,1.96,5.95,.57,1.1,1.22,2.36,1.86,3.92,1.91,4.49,4.2,5.09,11.75,7.09,.55,.14,1.12,.29,1.74,.46,.46,.12,.91,.26,1.34,.43,.29,3.44-.98,7.41-3.32,10.34-3.92,4.92-9.84,7.48-15.6,9.96l-.86,.36,2.74-2.53c1.56-1.46,1.87-3.01,2.11-4.25,.17-.89,.31-1.58,.81-2.03,1.63-1.5,3.06-4.23,3.71-6.14,.45-1.34-.15-3.73-.69-5.85-.24-.96-.5-1.96-.5-2.37,0-.26-.17-.5-.41-.62-.24-.12-.53-.05-.74,.12-.31,.28-.88,.57-1.58,.91-1.48,.72-3.49,1.7-4.9,3.8-.38-1.58-1.29-3.06-2.7-4.37-1.5-1.39-3.99-2.32-6.16-3.15-1.48-.55-2.89-1.1-3.44-1.58-.19-.19-.48-.24-.74-.12-.24,.12-.4,.36-.4,.62,0,.53-.19,1.6-.38,2.75-.28,1.7-.62,3.63-.62,5.14,0,.79,.31,1.67,1.02,2.96,.03,.05,.05,.07,.07,.12,.41,.45,.86,1,1.34,1.65,1.12,1.87,2.29,3.92,2.29,5.81,0,6.33-5,9.56-9.97,9.97-.52,.05-1.05,.07-1.55,.07-5.35,0-7.91-2.39-8.6-3.2,.12-.72-.02-1.48-.41-2.08-.38-.6-.98-1.03-1.67-1.17h-.05l1.79-8.01,1.15-4.9c.05-.17,0-.33-.1-.48-.1-.14-.24-.24-.41-.26-1.31-.19-2.65-.43-3.94-.64-2.34-.41-4.76-.83-7.19-1-.07,0-.14,0-.19,.02l-3.66,.74-.31,4.42c-.91-.05-1.81-.1-2.73-.12l.24-5.64c0-.17-.05-.31-.17-.43-.12-.12-.26-.19-.43-.19-1.91-.07-3.85-.1-5.74-.1s-3.82,.02-5.73,.1c-.17,0-.31,.07-.43,.19-.12,.12-.17,.26-.17,.43l.24,5.64c-.86,.02-1.74,.07-2.6,.12l-.31-4.42-3.78-.74c-.07-.02-.12-.02-.19-.02-2.41,.19-4.85,.6-7.19,1-1.29,.21-2.65,.45-3.94,.64-.17,.03-.31,.12-.41,.26-.1,.14-.12,.31-.1,.48l1.15,4.88,1.79,8h-.02c-.69,.14-1.27,.55-1.65,1.17-.43,.67-.55,1.5-.36,2.29,.33,1.36,1.46,2.36,2.7,2.36,.17,0,.31-.02,.45-.05l.57-.1c-.31,.19-.64,.43-1.03,.67-1.39,.38-3.18,.69-5.47,.69-6.43,0-11.11-6.09-11.11-8.67,0-1.19,.19-2.32,.4-3.49,.26-1.46,.53-3.11,.53-5.28,0-1.7-.41-2.92-.79-4.01-.52-1.51-.95-2.82-.24-5.09,.05-.14,0-.31-.15-.41-.14-.09-.31-.07-.43,.05-1.65,1.53-1.93,1.79-4.87,2.87-2.77,1-5.47,3.7-5.76,6.69-.57-.74-1.32-1.39-1.93-1.77-1.39-.83-2.75-.96-3.94-1.08-1.03-.1-1.94-.19-2.73-.67-.14-.09-.36-.05-.45,.1-.12,.14-.1,.33,.05,.48,.81,.76,.81,4.78,.81,6.28,0,1.77,2.27,3.8,3.8,5.16,.21,.19,.4,.38,.6,.52,.29,.26,.55,.67,.89,1.17,.95,1.48,2.36,3.61,6.5,5.66-8.31-.77-20.19-6.62-23.58-16.96-.24-.76-.17-1.43,.22-1.98,.64-.91,2.15-1.46,3.92-1.46,2.03,0,4.09,.79,4.09,2.29,0,.14,.07,.26,.21,.31,.12,.05,.29,.02,.38-.07,1.36-1.27,1.58-3.22,1.08-4.49-.17-.46-.43-.81-.74-1.08,.83-.24,1.65-.67,2.34-1.12,.17-.07,1.72-.86,1.82-.91,1.84-1.24,4.42-4.37,4.42-6.67,0-.34,.34-.88,.72-1.48,.71-1.17,1.69-2.75,1.69-5,0-1.89-1.31-5.4-4.47-5.4-1.48,0-2.22,.41-2.87,.74-.6,.34-1.12,.62-2.41,.62-.29,0-.55,.19-.64,.45-.1,.26,0,.57,.21,.76,1.72,1.36,2.82,2.94,3.35,4.85-1.2,.93-2.17,1.41-2.89,1.41-1.6,0-5.83,0-9.51,2.27-3.71,2.27-5.85,8.65-7,12.07l-.02,.05c-.57,1.67-1.12,2.55-1.63,3.34-.52,.81-.98,1.53-1.24,2.82-.83,3.87-.24,11.83,7.33,17.08,5.95,4.13,12.9,4.99,17.71,4.99,.72,0,1.43-.03,2.15-.05-2.13,1.03-5.28,2.41-8,3.34-1.24,.43-2.8,.89-4.27,1.29-2.7,.76-5.47,1.55-6.86,2.41-1.41,.88-3.16,2.89-4.51,4.49-.74,.86-1.36,1.6-1.82,2.01-.1,.1-.14,.26-.1,.38,.05,.14,.19,.21,.34,.21,2.29,0,3.06,0,5.02,.41,.52,.12,.74,.24,.95,.36,.21,.12,.45,.26,.86,.26,.38,0,.93-.12,1.91-.41-1.03,1.03-2.2,2.7-2.46,5.18h-2.27c-2.15,0-3.78,1.1-5.23,2.08-1.24,.84-2.44,1.65-3.78,1.65-.33,0-.62,.26-.67,.6-.05,.34,.17,.64,.5,.74,.95,.26,2.49,1.24,4.09,2.27,2.96,1.93,6.64,4.32,10.01,4.32,3.18,0,4.59-.57,5.62-1,.62-.26,1.08-.43,1.77-.43,.55,0,1.24,.12,1.98,.24,.98,.17,2.08,.33,3.2,.33h.43c-6.26,4.06-12.09,8.51-14.29,13.76-2.12,5.14,.21,10.99,1.48,14.14,.24,.6,.45,1.12,.57,1.48,.67,2.17,.67,6.11,.67,7.6,0,2.56,2.1,5.42,4.2,7.91-1.01,1.58-1.34,3.8-1.01,6.98,.29,2.82,1.01,4.44,2.82,6.31,.19,.21,.4,.43,.6,.6,.29,.26,.6,.5,.88,.69,.02,.03,.05,.03,.07,.05,1.36,.81,2.94,1.27,4.54,1.27,.52,0,1.05-.05,1.6-.14,.98-.19,1.86-.52,2.68-.96,0,0,.02,0,.02-.03,.03-.02,.05-.02,.07-.05h.02c.57-.36,1.05-.79,1.41-1.24,2.41-2.49,3.56-6.04,3.56-11.47,0-.21,0-.41-.02-.62,.31,2.05,.69,4.16,1.17,6.31l.19,.84c.21,.88,.43,1.74,.67,2.63l.07,.31c2.46,8.88,6.35,17.1,11.66,24.49l2.06,2.87ZM146.8,21.09c0,.91-.33,2.2-1.08,3.15-2.85-.41-4.16-1.26-4.8-2.2-.24-.6-.21-1.22-.19-1.72v-.05c1.12-1.03,2.77-1.55,3.59-1.55,.4,0,.91,.07,1.38,.12,.48,.07,.96,.12,1.41,.14-.19,.57-.31,1.22-.31,2.1m-119.2-2.03c.62-.14,1.05-.38,1.46-.6,.58-.31,1.08-.57,2.22-.57,2.18,0,3.13,2.68,3.13,4.04,0,1.87-.83,3.2-1.51,4.28-.5,.79-.91,1.48-.91,2.2,0,.76-.79,2.6-2.22,4.16,.67-2.51,1.36-5.73,.52-8.89-.5-1.75-1.39-3.3-2.7-4.61h0Zm-.29,16.75s-.07,.05-.12,.07c.02-.02,.07-.05,.12-.07m85.94,60.73s0,.03,0,0l-7.24,.03c-.38-1.41-.83-2.2-2.65-3.82,0-.05,.02-.07,.02-.12,0-3.01,.86-6.64,1.79-9.56,.07,.1,.14,.21,.24,.31,2.91,3.87,7.76,10.37,7.83,13.16m-19.78-38.51c-.38-.03-1.96-.12-1.96-.12-.74-.1-1.32-.86-1.27-1.79,.02-.91,.64-1.65,1.41-1.67h.02c.24-.03,1.96,.1,2.08,.12l.24,.02c.43,.03,.89,.05,1.39,.1l.86,.07,1.27,.1,1.84,.19c.74,.07,1.41,.14,2.08,.26,.29,.05,.6,.09,.86,.12,.5,.07,.98,.14,1.41,.21l2.22,.38c.36,.07,.67,.31,.89,.62,.24,.38,.31,.89,.19,1.36-.19,.81-.86,1.44-1.5,1.44-.07,0-.14,0-.24-.03l-2.08-.36c-.4-.07-.86-.14-1.34-.19-.26-.05-.55-.07-.81-.12-.64-.1-1.34-.17-2-.24l-1.65-.17-1.39-.12c-.29-.02-.57-.05-.84-.07-.48-.05-.95-.07-1.36-.09l-.31-.02Zm-31.23-11.45l-1-4.25c1.12-.17,2.25-.36,3.35-.55,2.13-.38,4.32-.76,6.5-.95l.55,4.82c.05,.31,.31,.55,.64,.52,2.25-.17,4.54-.28,6.81-.36,.17,0,.31-.07,.43-.19s.17-.26,.17-.43l-.24-5.64c1.7-.05,3.42-.07,5.09-.07s3.39,.02,5.09,.07l-.24,5.64c0,.17,.05,.31,.17,.43s.26,.19,.43,.19c2.27,.07,4.54,.19,6.81,.36,.31,.02,.6-.21,.65-.52l.55-4.82c2.18,.19,4.37,.57,6.5,.95,1.1,.19,2.22,.38,3.35,.55l-1,4.25-1.82,8.05-1-.17c-.45-.07-.93-.15-1.43-.22-.29-.05-.57-.07-.86-.12-.69-.1-1.43-.19-2.15-.26l-1.31-.14-1.84-.17-.86-.07c-.5-.05-1.01-.09-1.43-.09l-2.22-.12h-.14s-.24-.03-.64-.03l-1.6-.05c-1.05-.05-2.34-.07-3.73-.07l-1.2-.02-1.19,.02c-1.39,.03-2.67,.03-3.73,.07l-1.6,.05c-.4,0-.62,.03-.62,.03h-.17l-2.22,.12c-.46,.02-.93,.07-1.44,.09l-.86,.07-1.32,.1-1.84,.19c-.72,.07-1.46,.17-2.13,.26-.28,.05-.57,.07-.86,.12-.53,.07-1.01,.14-1.44,.21l-1.03,.19-1.91-8.05Zm27.24,11.28h-.19c-1.01-.05-2.25-.05-3.56-.07-.41,0-.81,0-1.22-.03-.4,0-.81,0-1.19,.03-1.32,.03-2.56,.03-3.56,.07h-.19l-2.08,.07c-.72-.02-1.34-.76-1.41-1.65-.03-.5,.12-1,.43-1.34,.21-.24,.48-.38,.79-.43h.05c.45-.07,2.29-.1,2.29-.1h.02c1.03-.05,2.32-.05,3.68-.07l1.17-.03,1.2,.03c1.36,.02,2.65,.02,3.71,.07h.21c-.33,.48-.55,1.08-.57,1.72-.05,.62,.12,1.22,.43,1.72m-25.73,1.6c-.72,.14-1.51-.5-1.72-1.41-.12-.48-.05-.98,.19-1.36,.21-.33,.52-.55,.86-.62l2.22-.41c.43-.07,.88-.14,1.39-.21,.29-.05,.57-.07,.89-.12,.67-.1,1.36-.17,2.08-.26l1.81-.19,1.29-.1c.28-.02,.59-.05,.86-.07,.5-.05,.98-.07,1.41-.09l.24-.03c-.31,.53-.45,1.15-.41,1.77,.05,.64,.26,1.22,.62,1.7h-.19c-.43,.02-.88,.05-1.36,.09-.26,.03-.55,.05-.84,.07l-1.24,.09-1.77,.19c-.67,.07-1.36,.14-2,.24-.29,.05-.57,.07-.84,.12-.48,.07-.93,.12-1.34,.19l-2.15,.41Zm3.2,1.2c.1-.05,.19-.14,.24-.24l.21-.34c.26-.02,.53-.07,.79-.12,.62-.1,1.27-.17,1.96-.24l1.77-.19,1.24-.09,.86-.07c.48-.05,.93-.07,1.34-.1l2.15-.12h.17s.21-.02,.57-.02l1.58-.05c.98-.05,2.22-.05,3.51-.07,.41,0,.81,0,1.2-.02,.41,0,.81,0,1.22,.02,1.32,.03,2.53,.03,3.51,.07l1.55,.05c.33,0,.53,.02,.55,.02h.07c.24,.31,.57,.74,1.05,1.31,.48,1.39,.69,3.06,.69,5,0,5.64-3.01,8.63-5.9,11.52-2.82,2.79-5.47,5.45-5.47,10.2,0,2.72,2.15,4.54,4.15,4.54,.72,0,1.36-.24,1.87-.69,.07-.07,.12-.17,.12-.26s-.05-.19-.12-.26c-.46-.43-.93-.98-1.22-2.48,1.24-.57,2.67-.74,4.08-.88,1.77-.19,3.42-.38,4.49-1.36,3.73-3.44,4.09-6.33,4.4-8.65,.14-1.15,.28-2.15,.79-3.03,.41,.79,.72,1.55,1.05,2.36,.65,1.58,1.31,3.23,2.84,5.35-.95,2.85-1.91,6.55-2.1,9.75-1.7-.83-3.61-1.24-5.78-1.24-1.5,0-3.13,.19-5.11,.62-4.13,.88-8.56,4.4-12.45,7.5-1.34,1.08-2.63,2.08-3.85,2.96l-.02,.03c-.9,.67-2.08,1.46-3.23,1.96l-1.81,.55c-.1,0-.22,.02-.31,.02-.14,0-.26,0-.38-.02-.19-.72-.38-1.43-.6-2.15t-.02-.05c-.38-1.34-.79-2.68-1.22-3.94t-.03-.05c-5.16-15.41-11.73-21.41-14.48-23.37,14.05-4.27,35.65-6.88,35.88-6.9,.05,0,.12-.03,.17-.05,.84-.33,1.15-3.37,.91-4.61-.24-1.32-1.03-2.05-2.15-2.05-3.34,0-12.54,5.33-13.71,6.02-1.36,.19-12.04,1.74-16.22,2.77v-.6c2.89-4.97,9.13-8.27,9.2-8.29m35.76,35.91h-12.16c-.14-.19-.31-.38-.48-.58,2.2-1.43,4.32-2.17,6.14-2.17,2.58,0,4.76,.91,6.5,2.75m-37.17,0h-7.57c.98-1.94,2.56-4.33,4.66-7.02,1.01,2.05,1.98,4.39,2.92,7.02m-6.69-31.32c-.89,.95-1.72,2.03-2.39,3.2-.05,.1-.1,.21-.1,.34v1.46c-.67,.19-1.29,.38-1.88,.55,.12-.19,.24-.34,.33-.41,.09-.1,.14-.22,.09-.34-.02-.12-.12-.22-.26-.26-.38-.1-.79-.24-1.15-.41-.55-.26-.95-.52-1.15-.74,1.55-1.32,3.94-2.44,6.5-3.39m-19.55,11.11c3.82-2.75,5.95-3.51,8.07-4.04-.95,1.15-2.17,2.99-2.17,6.55,0,1.17,.24,2.22,.71,3.25-2.77,1.29-3.99,1.48-4.47,1.48-1.39,0-2.8-.79-4.13-1.58-.67-.38-1.34-.76-2.03-1.08-.17-.07-.34-.14-.55-.19,1.86-2.1,3.37-3.54,4.56-4.39m-14.55,47.83c.36-2.84,3.34-8.91,11.92-17.08-.26,.29-.48,.58-.65,.86-2.27,3.41-1.89,8.46-1.74,9.92,.29,2.41,1.05,4.71,2.2,6.45,.31,.48,.65,.91,1.01,1.27-.74-.1-1.46-.48-2.24-.86-1.03-.53-2.1-1.08-3.37-1.08s-1.96,.14-2.75,.29c-.84,.14-1.72,.31-3.37,.31-.31-.02-.67-.05-1-.07m14.36,1.05c-1.67-1.27-3.08-4.16-3.47-7.5-.6-5.3,1-8.24,1.51-9.01,.4-.62,1.08-1.32,1.96-2.22v18.73Zm-8.41,18.3c.86,.41,1.67,.88,2.41,1.41,.24,.17,.48,.36,.69,.55-.02,.1,0,.21,.03,.31,.43,1.29,.64,3.03-.76,4.16-.93,.74-1.77,.88-2.32,.88s-1.03-.14-1.36-.41c.29-.31,.57-.67,.81-1.1,1-1.67,1.46-3.99,.5-5.8m3.89,13.67c-.69,.38-1.46,.64-2.27,.81-.45,.07-.91,.12-1.34,.12-1.34,0-2.65-.36-3.8-1.05-1.29-.98-2.72-2.1-1.82-5.21,.31-1.05,1.03-1.7,2.17-1.96,.07,.38,.24,.76,.48,1.07,.6,.77,1.63,1.2,2.73,1.2s2.17-.41,3.16-1.17c1.02-.81,1.58-1.96,1.6-3.32,1,1.34,1.39,2.49,1.39,2.92,0,.14,0,.31,.02,.52,.07,1.48,.19,4.54-2.32,6.07m-2.6-24.94l-.33-.1c-.98-.28-1.32-.41-1.41-.91,1.82,0,4.13-.07,5.23-1.1,.52-.48,.93-1.07,1.36-1.7,.43-.62,.93-1.34,1.6-2,.22,.14,.43,.26,.64,.38,.03,4.73,.17,9.94,.86,15.5-1.39-6.07-6.43-9.6-7.95-10.08m7.12-35.69v6.5c-10.4,9.03-14.88,16.39-15.65,20.52-3.94-1.15-5.37-5.18-5.37-8.69,0-4.66,8.77-11.59,15.82-17.18,.28-.21,.33-.62,.14-.91-.19-.29-.6-.38-.91-.21-.86,.5-1.86,.74-3.08,.74-1.02,0-2.05-.17-2.99-.33-.79-.12-1.55-.26-2.2-.26-.96,0-1.6,.26-2.27,.55-.98,.4-2.2,.88-5.09,.88s-6.45-2.27-9.27-4.11c-.91-.6-1.77-1.15-2.53-1.58,.86-.36,1.63-.88,2.41-1.41,1.41-.96,2.72-1.84,4.47-1.84h1.86c.05,2.92,.98,4.11,1.74,5.09,.57,.72,.98,1.24,.98,2.44,0,.19,.09,.38,.24,.5,.14,.12,.36,.19,.55,.17,.17-.02,4.3-.67,7.07-4.04,.62-.74,1.48-1.89,2.51-3.2,.29-.38,.6-.79,.93-1.19,2.03,.52,3.39,.4,4.11-.36,.45-.48,.45-1.03,.45-1.12-.02-.31-.24-.55-.52-.62,0,0-1.1-.26-2.01-1.34-.26-.31-.48-.62-.64-1-.62-1.27-.79-2.34-.81-2.96,1.03-.02,3.13-.02,4.73,.31,.4,.09,.74,.19,1.02,.31,.62,.26,1.24,.62,1.91,1,1.51,.86,3.06,1.75,4.8,1.75,1,0,2.63-.5,4.83-1.51,.45,.67,.93,1.22,1.39,1.72,.59,.67,1.12,1.26,1.29,1.84,.1,.31,.4,.52,.74,.48,.31-.05,.52-.29,.57-.6,.19-.36,1.38-1.36,2.25-2.08,2.08-1.74,3.56-3.06,3.96-4.18,1.7,1.81,3.32,3.97,4.85,6.43,.21,.38,.41,.76,.62,1.17-1.99,2.48-4.25,5.64-5.5,8.36h-17.41v-.02Zm-10.08-8.86c.24-.31,.5-.65,.74-.96,.52,.53,1.08,.89,1.53,1.1-.19,.07-.43,.1-.69,.1-.43,0-.96-.07-1.58-.24m28.77,71.48c-.33-.48-.69-1.01-.69-1.62-.02-.53-.02-1.96,.4-2.42,.07-.1,.17-.12,.26-.12,.21,0,.38,.05,.48,.17,.17,.19,.07,.53,.07,.53l-.05,.21h.21c.36,0,.67-.45,.69-.96,0-.29-.12-1.22-1.79-1.34v-.07c0-.98-.34-1.86-.82-2.2l-.1-.07-.09,.07c-.48,.31-.81,1.19-.81,2.2v.07c-1.67,.12-1.79,1.05-1.79,1.34,0,.5,.33,.96,.69,.96h.21l-.05-.21s-.07-.34,.07-.53c.1-.12,.24-.17,.48-.17,.1,0,.19,.05,.26,.12,.43,.45,.43,1.89,.41,2.42,0,.62-.36,1.15-.69,1.62-.27,.38-.48,.69-.48,1v.1h-3.32v-11.76c0-.55,.43-1.41,1.01-1.96l.26-.21c.38-.27,.69-.27,.86-.05h17.18c.17-.12,.33-.16,.48-.16,.22,0,.45,.14,.45,.55v11.66l-1.98,1.93h-3.22v-.1c0-.31-.22-.64-.48-1-.33-.48-.69-1.01-.69-1.62-.02-.53-.02-1.96,.4-2.42,.07-.1,.17-.12,.27-.12,.21,0,.38,.05,.48,.17,.17,.19,.07,.53,.07,.53l-.05,.21h.21c.36,0,.67-.45,.69-.96,0-.29-.12-1.22-1.79-1.34v-.07c0-.98-.34-1.86-.81-2.2l-.1-.07-.1,.07c-.48,.31-.81,1.19-.81,2.2v.07c-1.67,.12-1.79,1.05-1.79,1.34,0,.5,.33,.96,.69,.96h.21l-.05-.21s-.07-.34,.07-.53c.1-.12,.24-.17,.48-.17,.09,0,.19,.05,.26,.12,.43,.45,.43,1.89,.4,2.42,0,.62-.38,1.15-.69,1.62-.26,.38-.48,.69-.48,1v.1h-4.54v-.1c0-.31-.22-.62-.48-1m26.86,43.22c-10.85-6.45-19.66-14.05-26.3-22.62l26.3-28.69,26.3,28.69c-6.64,8.58-15.46,16.2-26.3,22.62m4.87-65.2c-.33-.48-.69-1.01-.69-1.63-.02-.52-.02-1.96,.41-2.41,.07-.1,.17-.12,.26-.12,.21,0,.38,.05,.48,.17,.17,.19,.07,.53,.07,.53l-.05,.21h.21c.36,0,.67-.45,.69-.96,0-.29-.12-1.22-1.79-1.34v-.07c0-1-.31-1.86-.81-2.2l-.09-.07-.1,.07c-.48,.33-.82,1.19-.82,2.2v.07c-1.67,.12-1.79,1.05-1.79,1.34,0,.5,.33,.96,.69,.96h.21l-.05-.21s-.07-.34,.07-.53c.09-.12,.24-.17,.48-.17,.1,0,.19,.05,.26,.12,.43,.45,.43,1.89,.4,2.41,0,.62-.38,1.15-.69,1.63-.26,.38-.48,.69-.48,1v.1h-4.54v-.1c0-.31-.21-.64-.48-1-.34-.48-.69-1.01-.69-1.63-.03-.52-.03-1.96,.4-2.41,.07-.1,.17-.12,.26-.12,.22,0,.38,.05,.48,.17,.17,.19,.07,.53,.07,.53l-.05,.21h.21c.36,0,.67-.45,.69-.96,0-.29-.12-1.22-1.79-1.34v-.07c0-1-.31-1.86-.81-2.2l-.1-.07-.1,.07c-.5,.33-.81,1.19-.81,2.2v.07c-1.67,.12-1.79,1.05-1.79,1.34,0,.5,.33,.96,.69,.96h.22l-.05-.21s-.07-.34,.07-.53c.1-.12,.24-.17,.48-.17,.1,0,.19,.05,.26,.12,.43,.45,.43,1.89,.4,2.41,0,.62-.36,1.15-.69,1.63-.26,.38-.48,.69-.48,1v.1h-3.32v-11.76c0-.55,.43-1.41,1.01-1.96l.26-.21c.38-.27,.69-.27,.86-.05h17.18c.17-.12,.33-.16,.48-.16,.21,0,.45,.14,.45,.55v11.66l-1.98,1.94h-3.23v-.1c0-.31-.21-.64-.48-1m29.32,21.17l-1.98,1.94h-3.23v-.1c0-.31-.21-.65-.48-1.01-.33-.48-.69-1-.69-1.63-.02-.52-.02-1.96,.41-2.41,.07-.1,.17-.12,.26-.12,.21,0,.38,.05,.48,.17,.17,.19,.07,.52,.07,.52l-.05,.21h.21c.36,0,.67-.45,.69-.95,0-.29-.12-1.22-1.79-1.34v-.07c0-.98-.33-1.86-.81-2.2l-.09-.07-.1,.07c-.48,.34-.81,1.19-.81,2.2v.07c-1.67,.12-1.79,1.05-1.79,1.34,0,.5,.33,.95,.69,.95h.22l-.05-.21s-.07-.33,.07-.52c.09-.12,.24-.17,.48-.17,.1,0,.19,.05,.26,.12,.43,.45,.43,1.89,.41,2.41,0,.62-.36,1.15-.69,1.63-.26,.38-.47,.69-.47,1.01v.1h-4.54v-.1c0-.31-.21-.65-.48-1.01-.34-.48-.7-1-.7-1.63-.02-.52-.02-1.96,.41-2.41,.07-.1,.17-.12,.26-.12,.21,0,.38,.05,.48,.17,.17,.19,.07,.52,.07,.52l-.05,.21h.21c.36,0,.67-.45,.69-.95,0-.29-.12-1.22-1.79-1.34v-.07c0-.98-.33-1.86-.81-2.2l-.09-.07-.1,.07c-.48,.31-.81,1.19-.81,2.2v.07c-1.67,.12-1.79,1.05-1.79,1.34,0,.5,.34,.95,.69,.95h.22l-.05-.21s-.07-.33,.07-.52c.09-.12,.24-.17,.48-.17,.1,0,.19,.05,.26,.12,.43,.45,.43,1.89,.4,2.41,0,.62-.36,1.15-.69,1.63-.26,.38-.48,.69-.48,1.01v.1h-3.32v-11.76c0-.55,.43-1.41,1-1.96l.26-.22c.38-.26,.69-.26,.86-.05h17.18c.17-.12,.33-.17,.48-.17,.21,0,.45,.14,.45,.55v11.66Zm6.24-10.03l-40.42-44.1-40.43,44.1c-1.7-8.6-1.84-16.51-1.84-23.34v-25.18h21.5c-.79,.81-1.65,1.96-2.8,3.78l-.19,.31,13.33,7,.17-.19c.07-.07,5.57-6.35,10.61-10.87h28.02c-.29,1.58-.89,2.84-1.72,3.68-.5-.41-1.08-.71-1.62-1.03-.98-.55-1.91-1.07-2.44-1.98-.09-.17-.26-.28-.43-.31-.19-.05-.38,0-.53,.12-1.1,.81-1.81,1.58-2.24,2.27,0,0,0,.02-.02,.02v.03c-.31,.5-.48,.95-.57,1.36-.1,.43-.1,.83,.02,1.22l.07,.21s.05,.12,.1,.19c.38,.76,1.24,1.5,2.55,2.37,1.24,.81,3.3,1.34,5.26,1.34,3.25,0,5.71-1.41,6.93-3.89,.5,4.8,2.05,19.07,7.31,22.58,.05,.05,.12,.05,.19,.05s.12-.02,.19-.05c.29-.17,.57-.36,.86-.52-.07,6.24-.38,13.26-1.86,20.86m-14.67-43.89c-1.24,1.19-2.58,1.79-3.39,1.79-.76,0-1.6-.38-2.08-.96l-.14-.28c-.31-.91,.33-2.03,1.77-3.25,.69,.86,1.65,1.39,2.51,1.87,.48,.26,.94,.52,1.34,.83m6.93-27.91c1.03,.07,1.82,.38,2.7,.72,1.27,.48,2.67,1.03,5.11,1.03,1.58,0,3.37-.79,5.47-2.44,2.03,1.31,3.82,2.56,5.3,3.68-.17,.1-.34,.19-.5,.31-1.77,1.05-3.58,2.15-5.76,2.15-6.72,.02-11.18-3.56-12.33-5.45m20.67,70.38c-1.43,0-2.48-.91-3.18-1.84,.41-.55,1.03-1.15,1.86-1.79,.5,1.27,1.15,2.75,2.32,3.63h-1Zm5.54-4.37c0,2.41-.34,3.3-2.27,3.75-1.79-.04-2.56-1.6-3.42-3.8-.07-.19-.14-.38-.21-.55-.07-.19-.14-.36-.24-.52,1.15-.05,2.03-.41,2.82-.74,.27-.12,.53-.21,.79-.31,.17-.05,.31-.1,.48-.14,.38-.1,.69-.12,1.01-.1h.07c.64,.05,.98,1.6,.98,2.41m2.77-20c3.28-1.67,5.14-3.61,6.09-5.54-.33,3.39-1.72,7.38-4.11,11.66-.07,.12-.12,.19-.15,.26-.6,1.1-1.19,2.43-1.77,3.73-.86,1.91-1.74,3.92-2.36,4.47-.4,.38-1.58,1.05-2.84,1.74l-.12,.07c-.07,.02-.12,.02-.19,.05-.05,.03-.1,.03-.15,.05-.07,.03-.17,.05-.24,.07-.05,.03-.07,.03-.12,.05-.07,.02-.17,.07-.24,.09-.02,.03-.07,.03-.1,.05-.02,.03-.07,.03-.09,.05-.07,.02-.17,.07-.24,.1-.79,.34-1.55,.65-2.51,.65-.31,0-.62-.03-.95-.1-.29-.07-.6,.1-.74,.36-.14,.26-.07,.6,.14,.81,.05,.05,.07,.1,.12,.15,0,.02,.02,.02,.02,.05,.03,.04,.07,.1,.1,.14,0,.03,.02,.03,.02,.05,.05,.07,.07,.14,.12,.21,0,.02,.02,.02,.02,.05,.02,.07,.07,.12,.1,.19,0,0,0,.02,.02,.02-.76,.55-1.38,1.1-1.86,1.6-.69-1.43-1.01-2.96-1.01-3.72,0-1.15,0-3.3,7.17-8.84,.26-.19,.33-.55,.19-.83-.12-.24-.36-.38-.62-.38-.05,0-.09,0-.17,.03-.52,.12-1.03,.19-1.51,.19-1.34,0-2-.48-2.22-.69-.17-.17-.41-.45-.69-.81-.57-.69-1.27-1.53-2.1-2.22,.45-.21,.93-.5,1.48-.81,.95-.55,2.05-1.2,3.06-1.51,.88-.28,1.39-.31,2.2-.38,1.12-.07,2.63-.19,6.09-.98,.02-.04,.09-.07,.14-.1m-6.11-9.94c.84,.96,1.6,1.79,2.29,2.53,2.39,2.6,3.7,4.04,3.58,6-.1,.04-.19,.1-.29,.17-3.3,.74-4.75,.86-5.8,.93-.86,.07-1.46,.09-2.51,.43-1.12,.36-2.29,1.03-3.32,1.62-.91,.53-1.94,1.12-2.36,1.12-.31,0-.6,.21-.67,.55-.07,.31,.1,.62,.38,.77,1.15,.5,2.17,1.74,2.91,2.65,.31,.38,.6,.72,.84,.93,.33,.31,1.03,.79,2.15,.98-3.13,1.7-6.43,4.61-7.79,8.46,.5-5.26,.57-10.18,.57-14.62,2.34-2.03,3.94-4.61,3.94-8.67,0-3.71-1.87-7.65-3.35-10.83-.21-.43-.41-.86-.6-1.26v-1.53c1.94,2.15,3.42,3.47,4.87,4.73,1.58,1.36,3.06,2.67,5.14,5.04m-.33-26.61c.69-.38,1.2-.89,1.55-1.34,.33,.43,.6,.84,.86,1.29-.86,0-1.67,.02-2.41,.05m22.22-6.72c-1.53,.74-2.84,1.36-4.88,1.36-2.65,0-6.55-1.29-6.59-1.32-.31-.1-.64,.03-.79,.29-.17,.29-.12,.62,.12,.83,2.15,1.98,3.59,4.16,4.16,6.35-.12-.02-.22-.02-.33-.05-5.3-.67-8.67-.81-9.96-.83-.41-.81-.86-1.53-1.43-2.27,.31-.72,.45-1.41,.45-1.84,0-.81,.48-1.89,1.84-2.58,.19-.1,.34-.29,.36-.5,.02-.22-.05-.45-.21-.6-.19-.17-.43-.4-4.99-.4-1.05,0-2.05,.4-2.92,.86-1.41-1.08-3.04-2.2-4.92-3.47,.76-.65,1.46-1.31,2.08-1.91,.91-.86,1.84-1.75,2.22-1.89,.31-.12,.48-.43,.43-.76-.05-.31-.33-.55-.67-.55-.98,0-2.27-.77-3.61-1.6-1.94-1.17-4.11-2.48-6.67-2.48-2.41,0-4.01,.36-5.42,.67-1.12,.24-2.08,.45-3.27,.45-1.53,0-3.23-.95-4.08-1.89-.29-.31-.41-.55-.45-.69,.67,.21,2.08,.52,5.28,.52,7.26,0,12.71-6.43,12.71-12.16,0-3.66-2.6-7.38-4.8-9.89-.36-.67-.84-1.6-.84-2.24,0-1.39,.31-3.25,.6-4.9,.12-.67,.22-1.27,.29-1.79,.76,.41,1.77,.76,2.84,1.17,2.05,.76,4.4,1.65,5.71,2.87,2.01,1.86,2.82,4.13,2.32,6.43l-.02,.14c-.07,.36,.14,.72,.5,.81,.36,.1,.72-.14,.81-.5l.03-.12c.88-3.72,3.53-5.01,5.47-5.95,.33-.17,.64-.31,.93-.45,.1,.45,.22,.96,.38,1.53,.43,1.74,1.05,4.11,.72,5.09-.6,1.79-1.94,4.27-3.35,5.56-.84,.76-1.03,1.79-1.22,2.77-.21,1.17-.45,2.39-1.7,3.51l-5.76,5.35c-.24,.24-.29,.6-.1,.89,.19,.29,.55,.38,.86,.24,1.48-.69,2.99-1.36,4.59-2.05,5.9-2.53,11.99-5.16,16.13-10.35,2.29-2.89,3.65-6.74,3.65-10.25,4.47,2.15,6.98,5.92,7.17,8.72v.36c0,7.96-4.13,14.41-24.15,20.02-.33,.1-.52,.41-.48,.74,.05,.33,.34,.6,.67,.6,5.16,0,5.35,.62,5.42,.93,.15,.48,.36,.98,1.34,1.19,.48,.1,.95,.14,1.53,.14,.43,0,.86-.02,1.27-.05,.41-.03,.86-.05,1.29-.05,.91,0,1.65,.12,2.39,.38,1.12,.41,2.48,1.67,3.82,2.94,1.1,.96,2.2,1.96,3.25,2.65t0,0" fill="#333e48"/></g></g></g></g></svg>