<?xml version="1.0" encoding="UTF-8"?><svg id="b" xmlns="http://www.w3.org/2000/svg" viewBox="0 0 500 147.84"><g id="c"><g id="d"><path id="e" d="M38.07,36.4s4.5-1.17,8.01-.5c3.5,.67,.67,2.84,.67,2.84,0,0-3.5,2-7.01,2.5-3.5,.67-1.67-4-1.67-4" fill="#b59b0c" stroke="#b59b0c" stroke-miterlimit="33.32" stroke-width=".71"/><path id="f" d="M25.56,21.39s-2.84,8.01,1.5,11.18c4.17,3,7.84-1,8.51-1,.5-.17-1.33-1.17-1.33-1.17,0,0-.83,1-2.84,1.5-5.17,1.5-6.84-5.34-5.17-10.01,0-.17-.33-.83-.67-.5Z" fill="#b59b0c" stroke="#b59b0c" stroke-miterlimit="33.32" stroke-width=".98"/><path id="g" d="M32.23,18.22s-5.34,8.01-1.5,12.01c3.67,3.84,8.67,0,9.34,0,.5,0-1.17-1.33-1.17-1.33,0,0-1.17,1-3.5,1.17-6.01,.83-5.84-6.51-2.84-11.18,.33,0,.17-.83-.33-.67h0Z" fill="#b59b0c" stroke="#b59b0c" stroke-miterlimit="33.32" stroke-width=".98"/><path id="h" d="M36.73,35.57s-1.5-10.01,4-16.35c5.51-6.34,8.84-8.34,10.01-11.84,1.17-3.34,1.5-6.51,1.17-6.84-.33-.33-.67,1.33-.67,1.67,0,1.17-.83,4.34-2.34,6.17-3.67,5.17-8.01,7.67-10.18,11.01-1.5,2.5-4.5,7.34-3.67,14.01s1.67,2.17,1.67,2.17Z" fill="#b59b0c" stroke="#b59b0c" stroke-miterlimit="33.32" stroke-width=".98"/><path id="i" d="M46.08,12.21c-2.84-2.84-2.17-7.51,0-9.34,.17,0,0-.83-.33-.83,0,0-4.67,3.84-1.67,9.18,.33,.67,.83,1.33,1.33,1.84l.67-.83h0Z" fill="#b59b0c" stroke="#b59b0c" stroke-miterlimit="33.32" stroke-width=".98"/><path id="j" d="M38.74,21.55c-2.17-2.84-1.5-7.01,.67-8.67,0,0,0-.83-.33-.83,0,0-4.67,3.84-1.67,9.18,.17,.33,.5,.83,.67,1.17l.67-.83h0Z" fill="#b59b0c" stroke="#b59b0c" stroke-miterlimit="33.32" stroke-width=".98"/><path id="k" d="M61.76,14.71s2,10.01-3.67,12.34c-5.34,2.17-8.84-3.5-9.51-3.84-.5-.33,1.84-1,1.84-1,0,0,.83,1.33,3,2.67,5.67,3.34,8.84-4,7.67-9.84,0,0,.5-.83,.67-.33h0Z" fill="#b59b0c" stroke="#b59b0c" stroke-miterlimit="33.32" stroke-width=".98"/><path id="l" d="M37.74,35.9s3.34-10.18,13.01-12.85,14.35-2.5,17.68-5.34c3.34-2.84,6.84-8.67,6.17-8.67-.67-.17-2,1.5-2.34,2-.83,1.17-3.84,4.84-6.34,6.01-4.67,2.17-14.51,3-17.68,4.5-3.17,1.67-9.18,4.67-12.34,13.01s1.84,1.33,1.84,1.33h0Z" fill="#b59b0c" stroke="#b59b0c" stroke-miterlimit="33.32" stroke-width=".98"/><path id="m" d="M67.43,17.38c-1.84-4.67,.33-9.84,4.17-11.84,.17-.17,1.17-1.17,.67-1.33,0,0-8.51,3.67-6.67,12.18,.17,.67,.33,1.17,.5,1.84l1.33-.83h0Z" fill="#b59b0c" stroke="#b59b0c" stroke-miterlimit="33.32" stroke-width=".98"/><path id="n" d="M48.08,18.72s5,8.34,.5,13.18c-4.17,4.5-9.34,.83-10.01,.83-.5,0,1.33-1.67,1.33-1.67,0,0,1.17,.83,3.5,1,6.34,.33,7.01-7.84,4-12.51,0,0,.17-1,.67-.83h0Z" fill="#b59b0c" stroke="#b59b0c" stroke-miterlimit="33.32" stroke-width=".98"/><path id="o" d="M172.53,21.72c-1.33,1.67-1.33,4.17-1.33,6.34v18.02c0,2.17,0,4.67,1.33,6.34l-7.01,.33,.17-3.17c0-.17-.17-.17-.33-.17s-.33,.33-.67,.5c-2.34,1.67-6.01,3.34-11.51,3.34-6.84,0-11.51-2.34-11.68-8.17V28.06c0-2.17,0-4.67-1.33-6.34h8.01c-1.33,1.67-1.33,4.17-1.33,6.34v14.01c.17,5.17,2.84,8.34,9.51,8.34s9.01-3.5,9.18-9.18c0-1.84,.17-3.67,.17-5.51v-7.51c0-2.17,0-4.67-1.33-6.34" fill="#002868"/><path id="p" d="M178.03,52.41c2-4,2-9.84,2-14.01v-10.18c0-2.34-.17-5-1.84-6.34h6.01c1.17,0,1.67,0,2.34,.83,1.17,1.33,5,6.51,6.84,8.67l11.84,13.51c.33,.5,.83,1.17,1.17,1.17,.5,0,.5-.5,.5-.83V28.23c0-3.34-.67-4.84-1.5-6.17h6.17c-1.5,2.17-1.84,4.67-1.84,7.17v19.18c0,1.67,0,3,.17,4.5h-4.17l-21.69-25.02c-.17-.33-.5-.5-.67-.5s-.33,.33-.33,.67v12.34c0,3.84-.17,8.67,1.84,12.34" fill="#002868"/><path id="q" d="M218.24,28.06c0-2.17,0-4.67-1.33-6.34h8.01c-1.33,1.67-1.33,4.17-1.33,6.34v18.02c0,2.17,0,4.67,1.33,6.34h-8.01c1.33-1.67,1.33-4.17,1.33-6.34" fill="#002868"/><path id="r" d="M239.59,52.58l-.83-2.5c-2.84-7.67-7.01-19.52-11.18-26.86l-1-1.67h5.34c1.17,0,1.5,1.17,1.84,1.84,3.17,7.51,6.51,14.85,9.01,22.52,.33,.83,.67,1.33,1,1.33s.67-.83,1-1.5c1.67-4.17,9.01-18.02,9.01-22.52,0-.67-.17-1.17-.33-1.67h7.34l-1,1.5c-5.67,8.17-10.18,17.85-14.18,26.69l-1.17,2.67" fill="#002868"/><path id="s" d="M269.62,50.58h6.84c3.67,0,7.51-.67,10.34-2.67l-1,4.5c-1.67,.17-3.5,.17-5.67,.17h-17.18c1.33-1.67,1.5-4.17,1.5-6.34V28.23c0-2.17,0-4.67-1.33-6.34h20.69l.17,3.67c-2-1.5-5.34-1.84-8.84-1.84h-5.51v11.51c4.5,0,9.34,0,14.01-.33-2,2.67-8.84,2.67-12.51,2.67h-1.5" fill="#002868"/><path id="t" d="M297.14,35.57c.83,.17,1.84,.17,2.67,.17,5.84,0,8.84-2.5,8.84-7.01,0-4.84-3.34-5.34-8.67-5.51h-2.84c0,.67-.17,1.5-.17,2.34v10.01h.17Zm18.35,12.34c1.67,1.84,2.5,2.67,5,4.5h-4.84c-2.5,0-3.67-1.17-5-2.67l-7.17-8.34c-2.5-2.84-2.84-3.67-6.34-4v8.67c0,2.17,0,4.67,1.33,6.34h-8.17c1.67-2.17,1.67-4.5,1.67-6.67V27.89c0-2.17,0-4.67-1.33-6.34,5,0,9.68-.5,14.35-.5,6.01,0,9.18,2.67,9.18,6.51,0,4.5-4.5,7.34-8.84,8.67" fill="#002868"/><path id="u" d="M320.67,46.41c1.84,2,4.34,4.84,10.51,4.84,4.5,0,7.84-2.17,7.84-6.01,0-8.01-17.02-7.01-17.02-16.01,0-5.51,5.67-8.34,12.01-8.34,3.17,0,6.17,.33,9.18,.33v4.5c-2.67-2.34-4.34-2.84-8.17-2.84-4.17,0-7.17,1.67-7.17,5.34,0,7.34,17.02,6.51,17.02,15.68,0,6.01-7.17,9.34-13.85,9.34-2.84,0-7.51-.83-10.18-1.67" fill="#002868"/><path id="v" d="M350.86,28.06c0-2.17,0-4.67-1.33-6.34h8.01c-1.33,1.67-1.33,4.17-1.33,6.34v18.02c0,2.17,0,4.67,1.33,6.34h-8.01c1.33-1.67,1.33-4.17,1.33-6.34" fill="#002868"/><path id="w" d="M371.55,52.41c1.33-1.67,1.33-4.17,1.33-6.34V24.22h-7.84c-1.33,0-2.67,.17-4.17,1l1.17-3.5h29.86c-1,2-4.67,2.34-7.01,2.34h-6.51v22.02c0,2.17,0,4.67,1.33,6.34" fill="#002868"/><path id="x" d="M401.91,52.41c1.33-1.67,1.33-4.17,1.33-6.34v-4.34c0-3.34-1.84-6.67-4.17-10.51-2.34-4-5.34-7.67-7.84-9.51h5.17c2.17,0,2.5,.5,3.67,1.84,2.34,3,5,8.51,6.17,11.84,.17,.67,.5,1.5,1,1.5,.33,0,.83-.83,1.33-1.67l4-5.84c1.33-2,2.67-4.34,2.67-5.67,0-.67-.17-1.33-.83-2h7.51l-6.84,8.51c-4.17,5.17-6.34,7.51-6.34,13.85v2c0,2.17,0,4.67,1.33,6.34" fill="#002868"/><path id="y" d="M455.63,23.05c-8.51,0-12.18,6.34-12.18,13.35,0,6.34,2.67,14.68,12.18,14.68,8.51,0,12.18-6.34,12.18-13.35,0-6.34-2.67-14.68-12.18-14.68Zm-.5,30.19c-12.51,0-17.85-7.01-17.85-15.51,0-9.18,6.51-16.68,18.85-16.68s18.02,7.01,18.02,15.51c-.17,9.01-6.67,16.68-19.02,16.68" fill="#002868"/><path id="z" d="M485.49,46.07c0,2.17,0,4.67,1.33,6.34h-8.01c1.33-1.67,1.33-4.17,1.33-6.34V28.06c0-2.17,.17-4.67-1.17-6.34h18.35c1.5,0,2.67,0,2.67,.5v3.84h-.17c-1.67-2.17-5.34-2.34-8.17-2.34h-6.17v12.34c4.5,0,9.34,0,14.01-.33-2,2.67-8.84,2.67-12.51,2.67h-1.5" fill="#002868"/><path id="aa" d="M139,117.14c3.5,4.5,8.67,10.84,21.19,10.84,9.01,0,15.85-4.84,15.85-13.51,0-18.02-34.03-15.85-34.03-35.7,0-12.51,11.34-18.68,23.86-18.68,6.17,0,12.18,.67,18.35,.67v10.01c-5.34-5-8.51-6.34-16.52-6.34s-14.51,3.84-14.51,11.84c0,16.52,34.03,14.51,34.03,35.2,0,13.35-14.35,20.85-27.69,20.85-5.84,0-15.01-1.67-20.35-3.84" fill="#002868"/><path id="ab" d="M257.27,61.92c-2.67,3.84-2.67,9.34-2.67,14.18v40.54c0,4.84,0,10.51,2.67,14.01l-14.18,.67,.5-7.17c0-.33-.17-.5-.67-.5-.17,0-.67,.67-1.5,1.17-4.67,3.5-10.84,7.51-22.02,7.51-13.85,0-22.85-5-23.36-18.35v-37.87c0-4.84,0-10.51-2.67-14.18h15.85c-2.67,3.84-2.67,9.34-2.67,14.18v31.53c.33,11.51,5.51,18.52,19.02,18.52s17.18-7.84,17.52-20.69c.17-4.17,.5-8.34,.5-12.34v-16.85c0-4.84,0-10.51-2.67-14.18" fill="#002868"/><path id="ac" d="M279.29,92.95c1.84,.17,3.5,.33,5.34,.33,11.51,0,17.85-5.67,17.85-15.85,0-10.84-6.84-12.01-17.35-12.34h-5.51c-.17,1.67-.17,3.5-.17,5.17v22.69h-.17Zm37.03,27.69c3.5,4.17,5.17,6.01,10.01,10.01h-9.68c-5.17,0-7.34-2.5-10.01-6.01l-14.51-18.68c-5-6.51-5.84-8.34-12.68-8.84v19.35c0,4.84,0,10.51,2.67,14.18h-16.52c3.5-5,3.17-10.18,3.17-14.68v-40.04c0-4.84,0-10.51-2.67-14.18,10.01,0,19.52-1,28.69-1,12.18,0,18.35,6.01,18.35,14.51,0,9.84-9.01,16.35-17.52,19.52" fill="#002868"/><path id="ad" d="M339.85,92.95c1.84,.17,3.5,.33,5.34,.33,11.51,0,17.85-5.67,17.85-15.85,0-10.84-6.84-12.01-17.35-12.34h-5.51c-.17,1.67-.17,3.5-.17,5.17v22.69h-.17Zm37.87,27.69c3.5,4.17,5.17,6.01,10.01,10.01h-9.68c-5.17,0-7.34-2.5-10.01-6.01l-14.51-18.68c-5-6.51-5.84-8.34-12.68-8.84v19.35c0,4.84,0,10.51,2.67,14.18h-16.52c3.5-5,3.17-10.18,3.17-14.68v-40.04c0-4.84,0-10.51-2.67-14.18,10.01,0,19.52-1,28.69-1,12.18,0,18.35,6.01,18.35,14.51,0,9.84-9.01,16.35-17.52,19.52" fill="#002868"/><path id="ae" d="M402.41,126.32h13.68c7.34,0,15.01-1.67,20.52-6.17l-2.17,9.84c-3.17,.17-7.17,.5-11.34,.5h-34.37c2.67-3.67,3-9.34,3-14.18v-40.37c0-4.84,0-10.51-2.67-14.18h41.54l.5,8.34c-4.17-3.17-10.51-4-17.52-4h-11.01v25.69c9.18,0,18.68,0,27.86-.83-4.17,6.17-17.52,6.17-25.02,6.17h-3" fill="#002868"/><path id="af" d="M454.62,130.65c2.67-3.67,2.67-9.34,2.67-14.18v-9.84c0-7.51-3.5-14.68-8.34-23.52s-10.84-17.18-15.68-21.19h10.18c4.34,0,5.34,.83,7.17,4.17,4.5,8.17,9.01,18.68,12.34,26.69,.67,1.5,1,3.17,1.84,3.17,.67,0,1.5-1.84,2.67-3.84l8.01-13.01c2.67-4.34,5.34-9.68,5.34-12.85,0-1.67-.5-3-1.84-4.34h15.01l-13.51,19.02c-8.34,11.51-12.85,16.85-12.85,31.03v4.5c0,4.84,0,10.51,2.67,14.18" fill="#002868"/><path id="ag" d="M46.91,137.66c19.35-3.67,42.71-.83,55.38,1,7.01,1,9.34,.5,9.34,.5,0,0-7.34-1.5-11.34-2.67-20.35-5.84-74.74-15.18-77.74,11.34-.17,0,6.67-7.01,24.36-10.18" fill="#b59b0c"/><path id="ah" d="M32.56,120.81c2,0,3.84,1.84,3.84,4s-1.67,4-3.84,4-3.84-1.84-3.84-4c0-2.34,1.67-4,3.84-4Zm73.74-26.19c-.33-2.34,.67-13.51,.67-13.51l1,11.68s2.17-3.5,2.5-10.68c.33-8.67-3.84-14.51-10.51-16.68-3.34-1.17-6.34-.5-8.34-.17-6.67,.67-12.51,.17-15.01,.17-14.85,.67-18.52-4-21.35-8.34-5.51-8.34-6.51-7.17-11.84-18.02-4.5-9.01-8.67-3.34-16.01-1-2.17,.67-9.51,3.5-10.18,3.67-.67,.33-.5,1.84-.33,2.5,0,.33,1.84,2.17,2.34,2.5,.5,.17,11.18,3,14.18,3.67,0,0,1.17,2.5-1.5,11.51-2,6.84,.33,10.84,.33,10.84,0,0-4-2.84-7.67-5.34s-15.35,2.67-22.19,7.51C-.47,76.94,.03,79.77,.03,79.77l3.34,7.51,3.17-1.84c-1.17-.33-2-1.5-2-2.67,0-1.5,1.33-2.84,2.84-2.84s2.84,1.33,2.84,2.84v.17c.5-1,1.5-1.67,2.5-1.67,1.5,0,2.84,1.33,2.84,2.84s-1.33,2.84-2.84,2.84h-.17c.83,.5,1.33,1.33,1.33,2.34,0,1.5-1.33,2.84-2.84,2.84s-2.84-1.33-2.84-2.84c0-.33,0-.5,.17-.83l-3.34,1.5,3.34,6.51,9.34-4.5,10.01,23.86-4.34,13.85,14.35,5.34,5.17-14.18-10.68-6.17L14.71,73.1l.33-.17c1.84-.67,3.5-1.17,5.17-1.67,3.34-1,13.35,13.85,15.35,15.18,2.84,1.84,4.5,1.5,6.34,1.67h-.17c-.17-.17-.5-.33-.67-.5-9.01-7.01-5.34-20.02-5.34-20.02,.17,13.35,8.01,21.85,8.17,22.52v.17c.17,.33,.33,.5,.5,1,2.5,5-1.33,41.21-1.33,41.21l3.84-1.67s7.01-36.03,8.01-35.87c16.85,3,24.69-10.18,31.2,14.51,1,3.5-19.52,21.19-19.52,21.19,0,0,4,.67,6.84-1.5,7.67-5.67,21.69-20.19,21.02-20.69-1-.67-3.84-6.34-3.84-7.34,0-.83,.67-3.84,1.5-4.84-.17-.17-.5-.17-.67-.33-9.34-4.67-9.34-19.85-9.34-19.85,3.34,13.85,11.68,20.52,12.34,21.35,3,3.34,9.34,11.18,9.84,14.51,.67,4-15.01,22.52-15.01,22.52,0,0,6.17,.83,7.17-1.67,.83-1.84,16.52-21.52,16.18-23.19-.83-1.67-6.01-12.68-6.34-15.01" fill="#b59b0c"/></g></g></svg>